<svg width="133" height="40" viewBox="0 0 133 40" fill="none" xmlns="http://www.w3.org/2000/svg">
<circle cx="18" cy="20" r="18" fill="#3772FF"/>
<path fill-rule="evenodd" clip-rule="evenodd" d="M16.5023 21.4312C15.7399 21.4312 15.7399 21.4312 14.2153 21.9858C13.4529 22.5405 11.1659 23.6499 12.6906 24.7593C13.4529 25.314 17.2646 25.8686 18.0269 25.314C19.5516 25.314 24.1256 24.2046 24.8879 23.6499L25.6503 23.0952V22.5405C24.8879 22.5405 19.5516 22.5405 18.0269 22.5405C17.2646 22.5405 16.5023 22.5405 15.7399 22.5405C16.5023 21.9858 16.5023 21.9858 16.5023 21.4312Z" fill="white"/>
<path fill-rule="evenodd" clip-rule="evenodd" d="M21.4561 19.3247C22.5655 19.3247 23.1201 19.3247 24.2295 18.77C26.4483 18.2153 30.3311 15.9966 28.667 13.2232C25.3389 9.34036 14.53 6.01225 11.2019 8.78568C9.5378 10.4497 10.0925 12.1138 11.2019 13.7779C12.8659 15.9966 13.1358 17.106 14.2452 19.8794C15.9092 24.3169 12.5811 27.645 9.80768 29.8637C9.253 30.4184 8.14362 31.5278 9.253 32.0825C9.80768 32.6372 12.0264 31.5278 12.5811 31.5278C15.3545 30.9731 18.6827 29.8637 20.9014 28.7544C21.4561 28.1997 21.4561 28.7544 22.0108 28.1997H21.4561C20.3467 28.1997 17.5733 29.3091 15.9092 29.3091C15.3545 29.3091 14.2452 29.8637 12.5811 29.8637C18.128 24.8716 18.3538 18.77 15.0135 13.7779C14.5103 12.8792 14.53 12.9089 13.9753 11.7995C13.7152 11.0379 13.665 10.5525 13.9753 10.4497C17.3034 9.89505 21.4561 11.0044 24.2295 12.1138C27.003 13.2232 28.1123 14.8872 25.3389 16.5513C24.2295 17.6607 22.5655 18.2153 21.4561 19.3247Z" fill="white"/>
<path d="M47.8043 28.5V12.0771H58.1006V14.2102H50.2821V19.214H57.5634V21.3391H50.2821V26.367H58.1969V28.5H47.8043ZM63.6157 21.1867V28.5H61.218V16.1829H63.5194V18.1876H63.6718C63.9551 17.5354 64.3989 17.0115 65.003 16.6159C65.6124 16.2203 66.3795 16.0225 67.3044 16.0225C68.1437 16.0225 68.8788 16.1989 69.5096 16.5517C70.1404 16.8992 70.6296 17.4178 70.9771 18.1074C71.3246 18.797 71.4983 19.6497 71.4983 20.6655V28.5H69.1006V20.9541C69.1006 20.0614 68.8681 19.3637 68.403 18.8612C67.9379 18.3533 67.2991 18.0994 66.4865 18.0994C65.9305 18.0994 65.436 18.2197 65.003 18.4602C64.5753 18.7008 64.2358 19.0537 63.9845 19.5188C63.7386 19.9785 63.6157 20.5345 63.6157 21.1867ZM80.5758 16.1829V18.1074H73.6153V16.1829H80.5758ZM75.5238 28.5V14.7555C75.5238 13.9857 75.6922 13.3468 76.029 12.839C76.3658 12.3257 76.8122 11.9435 77.3682 11.6922C77.9242 11.4356 78.5283 11.3073 79.1805 11.3073C79.6616 11.3073 80.0733 11.3474 80.4154 11.4276C80.7576 11.5025 81.0115 11.572 81.1772 11.6361L80.6159 13.5767C80.5036 13.5446 80.3593 13.5072 80.1829 13.4644C80.0064 13.4163 79.7926 13.3923 79.5413 13.3923C78.9586 13.3923 78.5417 13.5366 78.2904 13.8253C78.0445 14.114 77.9215 14.531 77.9215 15.0762V28.5H75.5238ZM85.4473 21.1867V28.5H83.0496V12.0771H85.4152V18.1876H85.5676C85.8563 17.5247 86.2973 16.9981 86.8907 16.6079C87.4841 16.2176 88.2593 16.0225 89.2162 16.0225C90.0609 16.0225 90.7986 16.1962 91.4295 16.5437C92.0656 16.8912 92.5575 17.4098 92.905 18.0994C93.2578 18.7837 93.4342 19.639 93.4342 20.6655V28.5H91.0365V20.9541C91.0365 20.0507 90.804 19.3504 90.3389 18.8532C89.8738 18.3507 89.2269 18.0994 88.3983 18.0994C87.8316 18.0994 87.3238 18.2197 86.8747 18.4602C86.431 18.7008 86.0808 19.0537 85.8242 19.5188C85.573 19.9785 85.4473 20.5345 85.4473 21.1867ZM101.942 28.7486C100.729 28.7486 99.6837 28.4893 98.8069 27.9707C97.9355 27.4468 97.2619 26.7118 96.7861 25.7655C96.3157 24.8139 96.0805 23.6993 96.0805 22.4216C96.0805 21.16 96.3157 20.048 96.7861 19.0857C97.2619 18.1235 97.9248 17.3723 98.7749 16.8324C99.6302 16.2925 100.63 16.0225 101.774 16.0225C102.469 16.0225 103.143 16.1374 103.795 16.3673C104.447 16.5972 105.032 16.958 105.551 17.4499C106.069 17.9417 106.478 18.5805 106.778 19.3664C107.077 20.1469 107.227 21.0958 107.227 22.2131V23.0631H97.4357V21.2669H104.877C104.877 20.6361 104.749 20.0774 104.492 19.5909C104.236 19.0991 103.875 18.7115 103.41 18.4282C102.95 18.1448 102.41 18.0032 101.79 18.0032C101.116 18.0032 100.528 18.1689 100.026 18.5003C99.5286 18.8264 99.1437 19.2541 98.8711 19.7834C98.6038 20.3073 98.4701 20.8766 98.4701 21.4914V22.8947C98.4701 23.718 98.6145 24.4183 98.9032 24.9957C99.1972 25.5731 99.6062 26.0141 100.13 26.3188C100.654 26.6182 101.266 26.7679 101.966 26.7679C102.421 26.7679 102.835 26.7038 103.209 26.5754C103.584 26.4418 103.907 26.244 104.18 25.982C104.452 25.7201 104.661 25.3967 104.805 25.0117L107.074 25.4207C106.893 26.089 106.567 26.6743 106.096 27.1769C105.631 27.674 105.046 28.0616 104.34 28.3396C103.64 28.6123 102.84 28.7486 101.942 28.7486ZM119.117 19.19L116.944 19.5749C116.853 19.2969 116.709 19.0323 116.511 18.781C116.318 18.5297 116.056 18.3239 115.725 18.1635C115.393 18.0032 114.979 17.923 114.482 17.923C113.803 17.923 113.236 18.0753 112.782 18.3801C112.328 18.6794 112.1 19.067 112.1 19.5428C112.1 19.9545 112.253 20.2859 112.557 20.5372C112.862 20.7884 113.354 20.9942 114.033 21.1546L115.99 21.6037C117.123 21.8656 117.968 22.2693 118.524 22.8146C119.08 23.3598 119.358 24.0682 119.358 24.9396C119.358 25.6773 119.144 26.3349 118.716 26.9122C118.294 27.4843 117.703 27.9333 116.944 28.2594C116.19 28.5855 115.316 28.7486 114.322 28.7486C112.942 28.7486 111.817 28.4546 110.946 27.8665C110.074 27.2731 109.54 26.4311 109.342 25.3405L111.659 24.9877C111.804 25.5918 112.1 26.0489 112.549 26.3589C112.998 26.6637 113.584 26.816 114.306 26.816C115.091 26.816 115.72 26.653 116.19 26.3269C116.66 25.9954 116.896 25.5918 116.896 25.116C116.896 24.7311 116.751 24.4077 116.463 24.1457C116.179 23.8837 115.744 23.6859 115.156 23.5523L113.071 23.0952C111.921 22.8333 111.071 22.4163 110.521 21.8443C109.975 21.2722 109.703 20.5479 109.703 19.6711C109.703 18.9441 109.906 18.3079 110.312 17.7626C110.718 17.2173 111.28 16.7923 111.996 16.4876C112.712 16.1775 113.533 16.0225 114.458 16.0225C115.789 16.0225 116.837 16.3112 117.601 16.8885C118.366 17.4606 118.871 18.2277 119.117 19.19ZM131.224 19.19L129.05 19.5749C128.96 19.2969 128.815 19.0323 128.617 18.781C128.425 18.5297 128.163 18.3239 127.832 18.1635C127.5 18.0032 127.086 17.923 126.589 17.923C125.91 17.923 125.343 18.0753 124.889 18.3801C124.434 18.6794 124.207 19.067 124.207 19.5428C124.207 19.9545 124.359 20.2859 124.664 20.5372C124.969 20.7884 125.461 20.9942 126.14 21.1546L128.096 21.6037C129.23 21.8656 130.074 22.2693 130.63 22.8146C131.186 23.3598 131.464 24.0682 131.464 24.9396C131.464 25.6773 131.25 26.3349 130.823 26.9122C130.4 27.4843 129.81 27.9333 129.05 28.2594C128.297 28.5855 127.423 28.7486 126.428 28.7486C125.049 28.7486 123.924 28.4546 123.052 27.8665C122.181 27.2731 121.646 26.4311 121.448 25.3405L123.766 24.9877C123.91 25.5918 124.207 26.0489 124.656 26.3589C125.105 26.6637 125.691 26.816 126.412 26.816C127.198 26.816 127.826 26.653 128.297 26.3269C128.767 25.9954 129.002 25.5918 129.002 25.116C129.002 24.7311 128.858 24.4077 128.569 24.1457C128.286 23.8837 127.85 23.6859 127.262 23.5523L125.177 23.0952C124.028 22.8333 123.178 22.4163 122.627 21.8443C122.082 21.2722 121.809 20.5479 121.809 19.6711C121.809 18.9441 122.012 18.3079 122.419 17.7626C122.825 17.2173 123.386 16.7923 124.103 16.4876C124.819 16.1775 125.64 16.0225 126.565 16.0225C127.896 16.0225 128.944 16.3112 129.708 16.8885C130.473 17.4606 130.978 18.2277 131.224 19.19Z" fill="#3772FF"/>
</svg>
