<svg width="177" height="43" viewBox="0 0 177 43" fill="none" xmlns="http://www.w3.org/2000/svg">
<g opacity="0.6">
<path d="M28.9989 42.8008C28.0237 42.8008 26.9834 42.4107 26.2032 41.6305C24.6429 40.0701 24.6429 37.5995 26.2032 36.0392C32.4447 29.7977 32.4447 19.6553 26.2032 13.4138C23.1475 10.3581 19.1816 8.73267 14.8905 8.73267C10.5995 8.73267 6.56856 10.4231 3.57785 13.4138C0.522125 16.4695 -1.10326 20.4355 -1.10326 24.7265C-1.10326 29.0175 0.58714 33.0485 3.57785 36.0392C5.13822 37.5995 5.13822 40.0701 3.57785 41.6305C2.01748 43.1909 -0.453112 43.1909 -2.01348 41.6305C-6.49955 37.1444 -9.03516 31.098 -9.03516 24.7265C-9.03516 18.355 -6.56457 12.3735 -2.01348 7.82245C2.47259 3.33639 8.51902 0.800781 14.8905 0.800781C21.2621 0.800781 27.2435 3.27137 31.7946 7.82245C41.0918 17.1197 41.0918 32.2683 31.7946 41.6305C31.0144 42.4107 30.0391 42.8008 28.9989 42.8008Z" fill="#949494"/>
<path d="M21.9771 36.4292C21.0019 36.4292 19.9616 36.0392 19.1815 35.259C17.6211 33.6986 17.6211 31.228 19.1815 29.6676C20.3517 28.4974 20.9369 27.002 20.9369 25.3766C20.9369 23.7512 20.2867 22.2559 19.1815 21.0856C18.0112 19.9153 16.5158 19.3302 14.8904 19.3302C13.265 19.3302 11.7697 19.9803 10.5994 21.0856C9.42914 22.2559 8.84399 23.7512 8.84399 25.3766C8.84399 27.002 9.49416 28.4974 10.5994 29.6676C12.1598 31.228 12.1598 33.6986 10.5994 35.259C9.03905 36.8193 6.56846 36.8193 5.00809 35.259C2.40747 32.6583 0.912109 29.1475 0.912109 25.4416C0.912109 21.7358 2.34245 18.2249 5.00809 15.6243C7.60871 13.0237 11.1195 11.5283 14.8254 11.5283C18.5313 11.5283 22.0421 12.9587 24.6428 15.6243C27.2434 18.2249 28.7387 21.7358 28.7387 25.4416C28.7387 29.1475 27.3084 32.6583 24.6428 35.259C23.9926 36.0392 22.9524 36.4292 21.9771 36.4292Z" fill="#949494"/>
</g>
<path d="M52.3164 30.1699V14.1699H58.6289C59.8372 14.1699 60.8685 14.3861 61.7227 14.8184C62.582 15.2454 63.2357 15.8522 63.6836 16.6387C64.1367 17.4199 64.3633 18.3392 64.3633 19.3965C64.3633 20.459 64.1341 21.373 63.6758 22.1387C63.2174 22.8991 62.5534 23.4824 61.6836 23.8887C60.819 24.2949 59.7721 24.498 58.543 24.498H54.3164V21.7793H57.9961C58.6419 21.7793 59.1784 21.6908 59.6055 21.5137C60.0326 21.3366 60.3503 21.071 60.5586 20.7168C60.7721 20.3626 60.8789 19.9225 60.8789 19.3965C60.8789 18.8652 60.7721 18.4173 60.5586 18.0527C60.3503 17.6882 60.0299 17.4121 59.5977 17.2246C59.1706 17.0319 58.6315 16.9355 57.9805 16.9355H55.6992V30.1699H52.3164ZM60.957 22.8887L64.9336 30.1699H61.1992L57.3086 22.8887H60.957ZM66.6914 30.1699V18.1699H70.0195V30.1699H66.6914ZM68.3633 16.623C67.8685 16.623 67.444 16.459 67.0898 16.1309C66.7409 15.7975 66.5664 15.3991 66.5664 14.9355C66.5664 14.4772 66.7409 14.084 67.0898 13.7559C67.444 13.4225 67.8685 13.2559 68.3633 13.2559C68.8581 13.2559 69.2799 13.4225 69.6289 13.7559C69.9831 14.084 70.1602 14.4772 70.1602 14.9355C70.1602 15.3991 69.9831 15.7975 69.6289 16.1309C69.2799 16.459 68.8581 16.623 68.3633 16.623ZM78.1074 30.4043C76.8783 30.4043 75.821 30.1439 74.9355 29.623C74.0553 29.097 73.3783 28.3678 72.9043 27.4355C72.4355 26.5033 72.2012 25.4303 72.2012 24.2168C72.2012 22.9876 72.4382 21.9095 72.9121 20.9824C73.3913 20.0501 74.071 19.3236 74.9512 18.8027C75.8314 18.2767 76.8783 18.0137 78.0918 18.0137C79.1387 18.0137 80.0553 18.2038 80.8418 18.584C81.6283 18.9642 82.2507 19.498 82.709 20.1855C83.1673 20.873 83.4199 21.6803 83.4668 22.6074H80.3262C80.2376 22.0085 80.0033 21.5267 79.623 21.1621C79.248 20.7923 78.7559 20.6074 78.1465 20.6074C77.6309 20.6074 77.1803 20.748 76.7949 21.0293C76.4147 21.3053 76.1178 21.709 75.9043 22.2402C75.6908 22.7715 75.584 23.4147 75.584 24.1699C75.584 24.9355 75.6882 25.5866 75.8965 26.123C76.11 26.6595 76.4095 27.0684 76.7949 27.3496C77.1803 27.6309 77.6309 27.7715 78.1465 27.7715C78.5267 27.7715 78.8678 27.6934 79.1699 27.5371C79.4772 27.3809 79.7298 27.1543 79.9277 26.8574C80.1309 26.5553 80.2637 26.1934 80.3262 25.7715H83.4668C83.4147 26.6882 83.1647 27.4954 82.7168 28.1934C82.2741 28.8861 81.6621 29.4277 80.8809 29.8184C80.0996 30.209 79.1751 30.4043 78.1074 30.4043ZM88.9258 23.2324V30.1699H85.5977V14.1699H88.832V20.2871H88.9727C89.2435 19.5788 89.681 19.0241 90.2852 18.623C90.8893 18.2168 91.6471 18.0137 92.5586 18.0137C93.3919 18.0137 94.1185 18.196 94.7383 18.5605C95.3633 18.9199 95.8477 19.4382 96.1914 20.1152C96.5404 20.7871 96.7122 21.5918 96.707 22.5293V30.1699H93.3789V23.123C93.3841 22.3835 93.1966 21.8079 92.8164 21.3965C92.4414 20.985 91.9154 20.7793 91.2383 20.7793C90.7852 20.7793 90.3841 20.8757 90.0352 21.0684C89.6914 21.2611 89.4206 21.5423 89.2227 21.9121C89.0299 22.2767 88.931 22.7168 88.9258 23.2324ZM104.48 30.1699V14.1699H110.793C112.001 14.1699 113.033 14.3861 113.887 14.8184C114.746 15.2454 115.4 15.8522 115.848 16.6387C116.301 17.4199 116.527 18.3392 116.527 19.3965C116.527 20.459 116.298 21.373 115.84 22.1387C115.382 22.8991 114.717 23.4824 113.848 23.8887C112.983 24.2949 111.936 24.498 110.707 24.498H106.48V21.7793H110.16C110.806 21.7793 111.342 21.6908 111.77 21.5137C112.197 21.3366 112.514 21.071 112.723 20.7168C112.936 20.3626 113.043 19.9225 113.043 19.3965C113.043 18.8652 112.936 18.4173 112.723 18.0527C112.514 17.6882 112.194 17.4121 111.762 17.2246C111.335 17.0319 110.796 16.9355 110.145 16.9355H107.863V30.1699H104.48ZM113.121 22.8887L117.098 30.1699H113.363L109.473 22.8887H113.121ZM122.184 23.2324V30.1699H118.855V14.1699H122.09V20.2871H122.23C122.501 19.5788 122.939 19.0241 123.543 18.623C124.147 18.2168 124.905 18.0137 125.816 18.0137C126.65 18.0137 127.376 18.196 127.996 18.5605C128.621 18.9199 129.105 19.4382 129.449 20.1152C129.798 20.7871 129.97 21.5918 129.965 22.5293V30.1699H126.637V23.123C126.642 22.3835 126.454 21.8079 126.074 21.3965C125.699 20.985 125.173 20.7793 124.496 20.7793C124.043 20.7793 123.642 20.8757 123.293 21.0684C122.949 21.2611 122.678 21.5423 122.48 21.9121C122.288 22.2767 122.189 22.7168 122.184 23.2324ZM132.584 30.1699V18.1699H135.912V30.1699H132.584ZM134.256 16.623C133.761 16.623 133.337 16.459 132.982 16.1309C132.633 15.7975 132.459 15.3991 132.459 14.9355C132.459 14.4772 132.633 14.084 132.982 13.7559C133.337 13.4225 133.761 13.2559 134.256 13.2559C134.751 13.2559 135.173 13.4225 135.521 13.7559C135.876 14.084 136.053 14.4772 136.053 14.9355C136.053 15.3991 135.876 15.7975 135.521 16.1309C135.173 16.459 134.751 16.623 134.256 16.623ZM141.906 23.2324V30.1699H138.578V18.1699H141.75V20.2871H141.891C142.156 19.5892 142.602 19.0371 143.227 18.6309C143.852 18.2194 144.609 18.0137 145.5 18.0137C146.333 18.0137 147.06 18.196 147.68 18.5605C148.299 18.9251 148.781 19.446 149.125 20.123C149.469 20.7949 149.641 21.597 149.641 22.5293V30.1699H146.313V23.123C146.318 22.3887 146.13 21.8158 145.75 21.4043C145.37 20.9876 144.846 20.7793 144.18 20.7793C143.732 20.7793 143.336 20.8757 142.992 21.0684C142.654 21.2611 142.388 21.5423 142.195 21.9121C142.008 22.2767 141.911 22.7168 141.906 23.2324ZM157.686 30.4043C156.472 30.4043 155.423 30.1465 154.537 29.6309C153.657 29.11 152.977 28.3861 152.498 27.459C152.019 26.5267 151.779 25.446 151.779 24.2168C151.779 22.9772 152.019 21.8939 152.498 20.9668C152.977 20.0345 153.657 19.3105 154.537 18.7949C155.423 18.2741 156.472 18.0137 157.686 18.0137C158.899 18.0137 159.946 18.2741 160.826 18.7949C161.712 19.3105 162.394 20.0345 162.873 20.9668C163.352 21.8939 163.592 22.9772 163.592 24.2168C163.592 25.446 163.352 26.5267 162.873 27.459C162.394 28.3861 161.712 29.11 160.826 29.6309C159.946 30.1465 158.899 30.4043 157.686 30.4043ZM157.701 27.8262C158.253 27.8262 158.714 27.6699 159.084 27.3574C159.454 27.0397 159.732 26.6074 159.92 26.0605C160.113 25.5137 160.209 24.8913 160.209 24.1934C160.209 23.4954 160.113 22.873 159.92 22.3262C159.732 21.7793 159.454 21.347 159.084 21.0293C158.714 20.7116 158.253 20.5527 157.701 20.5527C157.144 20.5527 156.675 20.7116 156.295 21.0293C155.92 21.347 155.636 21.7793 155.443 22.3262C155.256 22.873 155.162 23.4954 155.162 24.1934C155.162 24.8913 155.256 25.5137 155.443 26.0605C155.636 26.6074 155.92 27.0397 156.295 27.3574C156.675 27.6699 157.144 27.8262 157.701 27.8262ZM175.74 21.5918L172.693 21.7793C172.641 21.5189 172.529 21.2845 172.357 21.0762C172.186 20.8626 171.959 20.6934 171.678 20.5684C171.402 20.4382 171.071 20.373 170.686 20.373C170.17 20.373 169.735 20.4824 169.381 20.7012C169.027 20.9147 168.85 21.2012 168.85 21.5605C168.85 21.847 168.964 22.0892 169.193 22.2871C169.423 22.485 169.816 22.6439 170.373 22.7637L172.545 23.2012C173.712 23.4408 174.581 23.8262 175.154 24.3574C175.727 24.8887 176.014 25.5866 176.014 26.4512C176.014 27.2376 175.782 27.9277 175.318 28.5215C174.86 29.1152 174.23 29.5788 173.428 29.9121C172.631 30.2402 171.712 30.4043 170.67 30.4043C169.081 30.4043 167.816 30.0736 166.873 29.4121C165.936 28.7454 165.386 27.8392 165.225 26.6934L168.498 26.5215C168.597 27.0059 168.837 27.3757 169.217 27.6309C169.597 27.8809 170.084 28.0059 170.678 28.0059C171.261 28.0059 171.73 27.8939 172.084 27.6699C172.443 27.4408 172.626 27.1465 172.631 26.7871C172.626 26.485 172.498 26.2376 172.248 26.0449C171.998 25.847 171.613 25.696 171.092 25.5918L169.014 25.1777C167.842 24.9434 166.969 24.5371 166.396 23.959C165.829 23.3809 165.545 22.6439 165.545 21.748C165.545 20.9772 165.753 20.3132 166.17 19.7559C166.592 19.1986 167.183 18.7689 167.943 18.4668C168.709 18.1647 169.605 18.0137 170.631 18.0137C172.146 18.0137 173.339 18.334 174.209 18.9746C175.084 19.6152 175.594 20.4876 175.74 21.5918Z" fill="#949494"/>
</svg>
