<svg width="430" height="324" viewBox="0 0 430 324" fill="none" xmlns="http://www.w3.org/2000/svg">
<g clip-path="url(#clip0_1448_22337)">
<path d="M33.8498 322.502H394.009C396.12 322.502 415.944 324.349 417.051 322.502C422.243 313.827 426.292 304.197 428.023 296.424C430.151 286.882 429.243 276.315 424.285 268.031C423.429 266.595 422.451 265.237 421.36 263.971C413.504 254.862 401 251.6 390.868 245.146C375.034 235.057 365.983 218.01 356.067 202.638C344.576 184.863 328.379 175.467 308.062 169.464C256.146 154.127 187.79 163.322 143.021 194.093C126.823 205.249 112.589 219.702 94.4186 227.214C78.8438 233.651 61.6942 234.475 45.2887 238.145C28.8832 241.815 11.9066 249.509 4.18843 264.483C-2.03285 276.567 -0.527281 290.785 4.56915 302.974C11.1192 318.633 17.1848 322.502 33.8498 322.502Z" fill="url(#paint0_linear_1448_22337)" fill-opacity="0.1"/>
<path d="M57.6623 204.755C57.5066 208.763 60.3706 212.433 63.9528 214.228C67.535 216.024 71.6797 216.25 75.6772 216.041C80.0677 215.813 84.42 215.104 88.6562 213.925C97.1099 211.574 106.161 206.161 106.386 196.306C106.533 189.964 102.561 185.722 96.6513 184.074C84.8317 180.769 58.2247 190.415 57.6623 204.755Z" fill="#F5FCFC"/>
<path d="M394.833 236.34C397.347 238.008 400.204 239.087 403.191 239.498C404.684 239.692 406.201 239.554 407.634 239.096C409.068 238.637 410.384 237.868 411.489 236.844C414.457 233.851 414.656 228.906 413.047 225.002C411.437 221.098 408.365 218.019 405.302 215.121C400.284 210.376 381.516 196.539 377.692 209.829C374.992 219.19 387.988 232.133 394.833 236.34Z" fill="#F5FCFC"/>
<path d="M403.666 266.713C403.666 266.713 379.862 283.196 387.053 322.502H409.653C409.653 322.502 417.164 292.122 403.666 266.713Z" fill="#3772FF" fill-opacity="0.35"/>
<path d="M395.687 317.479C395.596 317.496 395.502 317.496 395.41 317.479C395.309 317.442 395.217 317.386 395.138 317.313C395.059 317.24 394.995 317.153 394.95 317.055C394.905 316.958 394.88 316.852 394.876 316.745C394.871 316.637 394.888 316.53 394.926 316.429C400.42 301.291 400.905 279.716 400.905 279.499C400.922 279.281 401.021 279.078 401.181 278.93C401.342 278.782 401.552 278.7 401.77 278.701C401.88 278.703 401.988 278.728 402.088 278.773C402.189 278.818 402.279 278.883 402.353 278.964C402.427 279.045 402.485 279.141 402.521 279.245C402.558 279.349 402.573 279.459 402.566 279.569C402.566 279.786 402.073 301.629 396.509 317.028C396.435 317.179 396.317 317.303 396.169 317.384C396.022 317.465 395.854 317.498 395.687 317.479Z" fill="#3772FF"/>
<path d="M348.936 240.791C348.936 240.791 347.439 285.485 381.011 322.502H398.317C398.317 322.502 384.741 255.756 348.936 240.791Z" fill="#2F3C97"/>
<path d="M387.112 317.48C386.943 317.48 386.778 317.428 386.639 317.33C386.501 317.232 386.397 317.093 386.342 316.933C376.668 289.173 353.003 252.139 352.76 251.766C352.671 251.585 352.652 251.378 352.706 251.183C352.76 250.989 352.884 250.822 353.054 250.714C353.224 250.606 353.428 250.566 353.626 250.6C353.824 250.633 354.003 250.74 354.128 250.898C354.37 251.271 378.139 288.496 387.873 316.421C387.942 316.625 387.928 316.848 387.834 317.041C387.74 317.234 387.574 317.383 387.371 317.454C387.287 317.478 387.199 317.487 387.112 317.48Z" fill="#6D9D8A"/>
<path d="M22.4016 238.389C18.6377 278.901 33.0184 322.537 33.0184 322.537H56.1211C56.9604 275.466 22.4016 238.389 22.4016 238.389Z" fill="#2F3C97"/>
<path d="M45.5923 316.16C45.404 316.16 45.2217 316.094 45.0765 315.974C44.9313 315.853 44.8323 315.686 44.7962 315.501C39.397 287.463 26.7035 255.643 26.5737 255.287C26.4939 255.087 26.4964 254.863 26.5808 254.665C26.6651 254.467 26.8243 254.31 27.0236 254.229C27.2253 254.159 27.4454 254.167 27.6419 254.25C27.8383 254.333 27.9971 254.486 28.0879 254.68C28.209 255.001 40.9631 287.003 46.3883 315.189C46.4097 315.294 46.4101 315.403 46.3895 315.508C46.3689 315.614 46.3276 315.714 46.2681 315.804C46.2086 315.893 46.132 315.97 46.0427 316.03C45.9535 316.089 45.8533 316.131 45.748 316.152L45.5923 316.16Z" fill="#3772FF"/>
<path d="M40.3398 322.502H52.7478C52.7478 322.502 74.5179 306.236 79.7528 273.869C79.7528 273.869 47.5043 277.062 40.3398 322.502Z" fill="#2F3C97"/>
<path d="M47.8749 317.94C47.7486 317.94 47.624 317.91 47.5115 317.853C47.3188 317.756 47.1724 317.587 47.1042 317.382C47.0361 317.177 47.0519 316.953 47.148 316.76C56.2334 298.421 72.4831 282.372 72.6475 282.215C72.7212 282.131 72.8117 282.062 72.9133 282.014C73.0148 281.966 73.1252 281.939 73.2374 281.936C73.3497 281.933 73.4614 281.953 73.5655 281.995C73.6697 282.037 73.764 282.1 73.8425 282.181C73.921 282.261 73.982 282.357 74.0217 282.463C74.0614 282.568 74.0789 282.68 74.0731 282.793C74.0674 282.905 74.0384 283.015 73.9881 283.116C73.9379 283.217 73.8673 283.306 73.781 283.378C73.6252 283.534 57.5659 299.401 48.6017 317.488C48.5342 317.624 48.4305 317.738 48.3022 317.817C48.1738 317.897 48.0258 317.939 47.8749 317.94Z" fill="#3772FF"/>
<path d="M364.116 304.935C364.116 304.935 364.055 317.471 363.718 317.471C363.38 317.471 357.895 315.406 357.895 315.406V304.076L364.116 304.935Z" fill="#FF9692"/>
<path d="M326.718 298.246C326.718 298.246 322.772 310.14 322.452 310.036C322.132 309.931 317.555 306.262 317.555 306.262L321.068 295.496L326.718 298.246Z" fill="#FF9692"/>
<path d="M299.246 307.72L322.729 315.424C322.729 315.424 324.001 313.689 323.725 312.379C323.448 311.069 324.339 309.212 323.993 308.614C323.647 308.015 323.811 307.529 322.366 307.538C320.921 307.547 320.817 307.677 319.597 306.445C318.377 305.213 318.092 304.996 317.001 305.291C315.911 305.586 314.466 307.165 310.365 306.662C306.263 306.159 301.859 305.499 300.942 305.742C300.025 305.985 299.246 307.72 299.246 307.72Z" fill="#87C2EC"/>
<path d="M299.246 307.72L322.729 315.423C323.09 314.924 323.381 314.379 323.595 313.801L300.276 306.158C299.85 306.619 299.502 307.146 299.246 307.72Z" fill="#699EDC"/>
<path d="M340.941 322.503H365.653C365.653 322.503 366.337 320.499 365.653 319.301C364.97 318.104 365.255 316.1 364.736 315.64C364.217 315.181 364.226 314.669 362.859 315.12C361.492 315.571 361.431 315.736 359.891 314.946C358.351 314.157 358.005 314.036 357.035 314.669C356.066 315.302 355.21 317.271 351.16 318.043C347.111 318.816 342.75 319.57 341.885 320.099C341.019 320.629 340.941 322.503 340.941 322.503Z" fill="#87C2EC"/>
<path d="M340.941 322.502H365.653C365.832 321.919 365.931 321.315 365.948 320.706H341.417C341.164 321.275 341.003 321.882 340.941 322.502Z" fill="#699EDC"/>
<path d="M293.967 139.918C292.548 137.627 291.372 136.656 291.034 136.769C290.808 136.838 290.595 136.943 290.403 137.081C290.403 137.081 285.297 133.047 284.527 132.908C283.757 132.769 283.558 133.281 283.584 133.533C283.61 133.784 287.521 137.402 287.521 137.402C287.521 137.402 286.457 137.87 286.656 138.616C286.542 138.649 286.435 138.704 286.343 138.78C286.251 138.855 286.176 138.948 286.122 139.054C286.067 139.16 286.035 139.276 286.027 139.394C286.019 139.513 286.036 139.632 286.076 139.744C286.133 139.878 286.148 140.026 286.119 140.169C286.087 140.249 286.04 140.323 285.981 140.386C285.855 140.58 285.785 140.804 285.777 141.035C285.77 141.266 285.825 141.495 285.938 141.696C286.167 142.096 286.48 142.443 286.855 142.711C287.525 143.292 288.293 143.75 289.122 144.064C289.78 144.29 290.472 144.368 291.147 144.542C291.969 144.761 292.762 145.079 293.509 145.487C293.894 145.738 294.339 145.882 294.798 145.904L296.2 142.26C296.2 142.26 295.395 142.208 293.967 139.918Z" fill="#FF9692"/>
<path d="M289.846 141.904C289.947 141.844 290.029 141.757 290.082 141.652C290.136 141.548 290.159 141.431 290.149 141.314C290.138 141.207 290.115 141.102 290.08 141.001C290.184 141.018 290.291 141.013 290.392 140.984C290.494 140.956 290.588 140.905 290.668 140.837C290.748 140.755 290.806 140.653 290.837 140.542C290.867 140.432 290.868 140.315 290.841 140.203C290.792 140.005 290.697 139.821 290.564 139.666C289.955 138.935 289.226 138.313 288.41 137.826L287.605 137.289L287.276 137.176L287.519 137.401C287.461 137.425 287.406 137.454 287.354 137.488H287.484L288.263 138.009C289.047 138.47 289.751 139.056 290.348 139.744C290.451 139.872 290.528 140.019 290.573 140.177C290.592 140.244 290.594 140.314 290.577 140.381C290.56 140.448 290.526 140.51 290.478 140.559C290.348 140.689 290.114 140.663 289.872 140.611C289.63 140.559 287.657 139.145 286.714 138.408H286.645C286.64 138.46 286.64 138.512 286.645 138.564L286.506 138.642H286.567C287.493 139.362 289.561 140.733 289.716 140.837C289.8 140.96 289.851 141.104 289.864 141.253C289.872 141.317 289.861 141.382 289.834 141.441C289.806 141.499 289.762 141.548 289.708 141.583C289.592 141.618 289.469 141.618 289.353 141.583C289.215 141.562 289.081 141.521 288.955 141.461L288.782 141.366C287.893 140.939 287.027 140.467 286.186 139.952L286.108 139.891C286.126 139.945 286.126 140.002 286.108 140.056C286.094 140.098 286.07 140.137 286.039 140.169C286.907 140.707 287.802 141.199 288.721 141.643C288.677 141.756 288.599 141.852 288.499 141.919C288.398 141.985 288.28 142.02 288.159 142.016C287.994 141.991 287.838 141.929 287.7 141.834L286.948 141.427C286.916 141.411 286.88 141.407 286.846 141.417C286.813 141.426 286.784 141.448 286.766 141.479C286.757 141.494 286.751 141.511 286.749 141.528C286.746 141.546 286.748 141.564 286.753 141.581C286.757 141.598 286.766 141.614 286.777 141.628C286.788 141.641 286.802 141.653 286.818 141.661L287.562 142.077C287.735 142.186 287.93 142.257 288.133 142.285H288.237C288.404 142.282 288.566 142.23 288.704 142.136C288.842 142.042 288.951 141.91 289.016 141.756L289.344 141.834C289.501 141.907 289.676 141.931 289.846 141.904Z" fill="#C47486"/>
<path d="M368.387 189.296C368.387 189.296 370.334 196.331 369.192 210.585C368.049 224.838 366.682 249.206 366.163 266.712C365.644 284.219 364.796 307.572 364.796 307.572C364.796 307.572 362.053 309.307 356.576 306.366C356.576 306.366 357.095 258.992 356.576 249.553C356.057 240.115 353.98 213.846 353.98 213.846C353.98 213.846 351.09 221.368 345.327 233.799C342.212 240.496 338.518 270.182 326.577 301.595C323.703 301.38 320.96 300.304 318.703 298.507C318.703 298.507 327.096 262.288 330.35 246.326C333.603 230.364 336 213.534 339.253 204.954C341.265 199.585 342.888 194.076 344.107 188.472L368.387 189.296Z" fill="#B5C7F1"/>
<path d="M354.242 197.875C354.242 197.875 347.926 228.09 347.727 228.602C351.906 219.32 354.008 213.855 354.008 213.855L354.052 214.366L354.242 213.334C354.242 213.334 355.125 204.607 354.242 197.875Z" fill="#99B7FD"/>
<path d="M349.266 129.334C349.398 127.846 349.911 126.418 350.755 125.187C351.18 124.576 351.739 124.071 352.388 123.709C353.037 123.346 353.76 123.137 354.501 123.096C354.951 123.096 355.367 123.166 355.842 123.183C357.365 123.235 358.871 122.645 360.394 122.767C361.251 122.845 362.074 123.143 362.783 123.632C363.492 124.121 364.064 124.785 364.443 125.56C364.669 126.153 364.929 126.732 365.222 127.295C365.758 127.98 366.361 128.611 367.022 129.177C368.094 130.444 368.752 132.009 368.908 133.662C369.133 135.293 369.072 136.95 369.15 138.599C369.156 139.123 369.24 139.644 369.401 140.143C369.693 140.761 370.031 141.355 370.414 141.921C370.876 142.878 371.112 143.929 371.104 144.993C371.097 146.056 370.846 147.104 370.37 148.054C370.301 148.24 370.177 148.4 370.016 148.514C369.876 148.573 369.726 148.602 369.574 148.601C367.738 148.664 365.901 148.521 364.097 148.176C362.972 148.003 361.882 147.649 360.87 147.126C359.904 146.554 359.029 145.841 358.274 145.009C357.095 143.84 356.113 142.486 355.367 141.002C354.787 139.752 354.458 138.399 353.878 137.132C353.523 136.266 352.972 135.494 352.269 134.877C351.724 134.426 351.092 134.409 350.538 134.061C349.111 133.194 349.093 130.756 349.266 129.334Z" fill="#544161"/>
<path d="M360.151 143.639C360.151 143.639 369.99 147.282 371.928 148.601C373.866 149.919 376.254 168.007 377.751 170.531C379.248 173.056 398.301 193.781 400.36 195.412L395.904 198.613C395.904 198.613 381.524 186.095 377.292 182.199C374.211 179.2 371.387 175.947 368.847 172.475C368.847 172.475 369.193 178.886 369.652 182.547C370.002 185.127 370.491 187.687 371.114 190.215C367.063 191.277 362.871 191.702 358.689 191.473C351.499 191.126 341.557 190.215 341.557 190.215C341.557 190.215 343.434 180.89 343.088 176.847C342.742 172.804 342.024 164.008 342.595 161.718C342.595 161.718 338.373 167.556 335.517 167.79C332.662 168.024 297.965 149.711 293.984 146.501C293.984 146.501 295.473 143.76 296.381 141.93C296.381 141.93 307.232 147.534 312.025 149.824C316.819 152.114 332.679 157.718 333.138 157.953C333.596 158.187 340.328 147.647 342.846 146.623C345.364 145.599 352.087 143.934 352.087 143.934L360.151 143.639Z" fill="#FFB147"/>
<path d="M370.907 175.156L368.848 172.475C368.757 167.451 368.3 162.441 367.48 157.484C369.068 161.781 369.993 166.294 370.223 170.87L370.907 175.156Z" fill="#F3A335"/>
<path d="M342.596 161.683C342.352 163.488 342.3 165.314 342.44 167.131L344.655 157.449L342.596 161.683Z" fill="#F3A335"/>
<path d="M399.859 195.741C400.385 196.273 401.028 196.674 401.736 196.912C402.669 197.17 403.548 197.593 404.332 198.162C404.332 198.37 403.856 198.778 402.87 198.613C402.87 198.613 408.563 202.36 409.039 202.95C409.515 203.54 409.082 203.818 408.174 203.462C407.265 203.106 403.64 201.016 403.64 201.016C403.64 201.016 408.511 205.006 408.771 205.44C409.03 205.874 408.814 206.377 407.958 205.865C407.101 205.353 403.294 202.69 403.294 202.69C403.294 202.69 406.071 205.735 406.037 206.082C406.002 206.429 405.431 206.429 405.007 206.082C404.583 205.735 401.321 202.777 401.321 202.777C401.321 202.777 402.697 204.668 402.567 204.919C402.437 205.171 401.797 204.963 401.234 204.451C400.47 203.753 399.834 202.924 399.357 202.005C398.76 200.842 399.054 200.972 398.111 200.027C397.534 199.445 397.005 198.819 396.527 198.153L399.859 195.741Z" fill="#FF9692"/>
<path d="M359.78 139.804C359.78 139.804 359.676 143.231 360.152 143.639C360.628 144.046 358.802 148.774 356.812 149.781C356.812 149.781 353.273 148.844 352.07 143.925C352.07 143.925 352.866 143.691 352.936 143.231C353.005 142.771 352.936 139.171 352.936 139.171L359.78 139.804Z" fill="#DE8788"/>
<path d="M350.641 133.22C350.641 133.22 351.385 141.8 355.495 142.546C359.605 143.292 361.941 136.369 362.002 136.135C362.062 135.901 363.481 135.91 363.481 134.305C363.481 132.7 362.616 131.702 362.227 131.85C361.837 131.997 361.768 134.591 361.197 134.539C360.626 134.487 360.401 131.216 360.055 131.164C359.709 131.112 359.189 132.361 357.459 131.902C355.728 131.442 355.728 130.644 354.491 130.592C353.254 130.54 352.761 130.817 352.034 129.846C351.966 130.511 351.812 131.164 351.575 131.789C351.402 132.431 351.316 133.22 350.641 133.22Z" fill="#FF9692"/>
<path d="M256.752 206.317H341.557L321.465 149.781H236.66L256.752 206.317Z" fill="#6E7087"/>
<path d="M254.976 206.317H338.552L319.248 151.984H235.672L254.976 206.317Z" fill="#9BA0BF"/>
<path d="M269.643 197.303H315.07L304.574 167.781H259.156L269.643 197.303Z" fill="#A8ADCF"/>
<path d="M235.672 151.985L236.658 149.781H321.463L319.248 151.985H235.672Z" fill="#8B8FAB"/>
<path d="M280.434 177.229L269.895 231.864V317.366H280.434V231.864L290.973 177.229H280.434Z" fill="#666F9B"/>
<path d="M290.973 177.229L280.434 231.864V317.366H283.86V237.278L295.169 192.011L290.973 177.229Z" fill="#545C80"/>
<path d="M312.975 316.672H255.098V322.51H312.975V316.672Z" fill="#9BA0BF"/>
<path d="M312.985 316.672H289.891V322.51H312.985V316.672Z" fill="#878BA6"/>
<path d="M216.481 209.891C252.164 209.891 281.09 180.889 281.09 145.114C281.09 109.339 252.164 80.3369 216.481 80.3369C180.798 80.3369 151.871 109.339 151.871 145.114C151.871 180.889 180.798 209.891 216.481 209.891Z" fill="#666F9B"/>
<path d="M273.715 154.647C278.958 122.965 257.591 93.021 225.991 87.7647C194.391 82.5084 164.524 103.931 159.282 135.612C154.039 167.294 175.406 197.239 207.006 202.495C238.606 207.751 268.473 186.329 273.715 154.647Z" fill="#868CAF"/>
<path d="M268.913 153.822C273.707 124.79 254.119 97.359 225.162 92.5528C196.205 87.7466 168.845 107.385 164.051 136.417C159.257 165.449 178.845 192.881 207.802 197.687C236.759 202.493 264.12 182.854 268.913 153.822Z" fill="#9BA0BF"/>
<path d="M253.136 122.75C253.136 123.518 252.908 124.27 252.482 124.909C252.056 125.548 251.451 126.046 250.743 126.34C250.034 126.634 249.255 126.711 248.503 126.561C247.751 126.412 247.06 126.041 246.518 125.498C245.976 124.954 245.607 124.262 245.457 123.508C245.308 122.754 245.384 121.973 245.678 121.262C245.971 120.552 246.468 119.945 247.106 119.518C247.743 119.091 248.493 118.863 249.259 118.863C250.287 118.863 251.273 119.273 252 120.002C252.727 120.73 253.136 121.719 253.136 122.75Z" fill="#B4B7D1"/>
<path d="M186.147 173.238C187.074 173.238 187.826 172.485 187.826 171.555C187.826 170.626 187.074 169.872 186.147 169.872C185.22 169.872 184.469 170.626 184.469 171.555C184.469 172.485 185.22 173.238 186.147 173.238Z" fill="#B4B7D1"/>
<path d="M262.549 148.869C262.547 149.202 262.447 149.526 262.262 149.802C262.076 150.078 261.813 150.292 261.506 150.418C261.2 150.544 260.862 150.576 260.537 150.51C260.212 150.444 259.914 150.283 259.68 150.048C259.446 149.812 259.287 149.512 259.223 149.186C259.159 148.86 259.193 148.522 259.32 148.215C259.447 147.908 259.662 147.645 259.938 147.461C260.214 147.276 260.538 147.178 260.87 147.178C261.091 147.178 261.31 147.222 261.514 147.307C261.719 147.392 261.904 147.517 262.06 147.674C262.216 147.831 262.339 148.017 262.423 148.223C262.507 148.428 262.55 148.648 262.549 148.869Z" fill="#B4B7D1"/>
<path d="M234.523 102.944C234.525 103.279 234.427 103.607 234.242 103.887C234.057 104.166 233.794 104.384 233.485 104.514C233.177 104.643 232.837 104.677 232.509 104.612C232.181 104.547 231.879 104.386 231.643 104.149C231.406 103.911 231.245 103.609 231.18 103.28C231.116 102.951 231.15 102.61 231.279 102.301C231.407 101.992 231.625 101.727 231.904 101.542C232.182 101.357 232.51 101.259 232.844 101.261C233.29 101.261 233.716 101.438 234.031 101.754C234.346 102.069 234.523 102.497 234.523 102.944Z" fill="#B4B7D1"/>
<path d="M180.079 125.603C180.08 126.043 179.952 126.473 179.709 126.84C179.466 127.206 179.12 127.492 178.715 127.662C178.31 127.831 177.864 127.875 177.434 127.79C177.003 127.705 176.608 127.493 176.297 127.182C175.987 126.871 175.776 126.474 175.691 126.043C175.605 125.611 175.65 125.164 175.819 124.758C175.987 124.351 176.273 124.005 176.638 123.761C177.004 123.518 177.433 123.389 177.872 123.391C178.457 123.393 179.017 123.627 179.43 124.041C179.843 124.455 180.076 125.017 180.079 125.603Z" fill="#B4B7D1"/>
<path d="M236.659 184.229C237.586 184.229 238.338 183.476 238.338 182.546C238.338 181.617 237.586 180.863 236.659 180.863C235.732 180.863 234.98 181.617 234.98 182.546C234.98 183.476 235.732 184.229 236.659 184.229Z" fill="#B4B7D1"/>
<path d="M257.807 165.405C257.807 166.252 257.556 167.081 257.086 167.786C256.617 168.49 255.949 169.04 255.168 169.364C254.387 169.688 253.527 169.773 252.698 169.608C251.869 169.442 251.108 169.034 250.51 168.435C249.912 167.836 249.505 167.072 249.34 166.241C249.175 165.409 249.26 164.548 249.583 163.765C249.907 162.982 250.455 162.312 251.157 161.841C251.86 161.37 252.687 161.119 253.532 161.119C254.665 161.121 255.751 161.574 256.552 162.377C257.353 163.18 257.804 164.269 257.807 165.405Z" fill="#B4B7D1"/>
<path d="M201.367 184.463C201.369 185.313 201.119 186.145 200.649 186.852C200.179 187.56 199.51 188.111 198.727 188.438C197.944 188.764 197.082 188.849 196.25 188.684C195.419 188.519 194.655 188.109 194.055 187.508C193.456 186.907 193.048 186.141 192.883 185.308C192.718 184.474 192.803 183.61 193.128 182.825C193.454 182.04 194.004 181.369 194.71 180.898C195.415 180.427 196.245 180.176 197.093 180.178C198.226 180.178 199.313 180.629 200.115 181.433C200.917 182.237 201.367 183.327 201.367 184.463Z" fill="#B4B7D1"/>
<path d="M194.857 111.679C194.847 112.525 194.588 113.348 194.112 114.046C193.636 114.744 192.965 115.285 192.183 115.601C191.401 115.918 190.543 115.995 189.717 115.824C188.892 115.653 188.135 115.241 187.542 114.639C186.95 114.038 186.548 113.274 186.387 112.444C186.226 111.615 186.314 110.756 186.639 109.976C186.964 109.195 187.512 108.529 188.213 108.061C188.915 107.592 189.74 107.342 190.583 107.342C191.148 107.342 191.709 107.454 192.231 107.673C192.753 107.892 193.226 108.212 193.624 108.615C194.021 109.019 194.335 109.497 194.547 110.023C194.759 110.549 194.864 111.112 194.857 111.679Z" fill="#B4B7D1"/>
<path d="M216.492 97.9727V166.28L245.833 146.033L216.492 97.9727Z" fill="#D2D6E6"/>
<path d="M216.492 134.66V166.281L245.833 146.033L216.492 134.66Z" fill="#CCCEDE"/>
<path d="M216.491 97.9727V166.28L187.141 146.033L216.491 97.9727Z" fill="#E1E6F0"/>
<path d="M216.491 134.66V166.281L187.141 146.033L216.491 134.66Z" fill="#D2D6E6"/>
<path d="M216.492 192.462L246.941 150.648L216.492 172.336V192.462Z" fill="#D2D6E6"/>
<path d="M216.594 192.462L186.137 150.648L216.594 172.336V192.462Z" fill="#E1E6F0"/>
<path d="M166.021 194.96H79.0352L99.1267 138.425H186.103L166.021 194.96Z" fill="#444B69"/>
<path d="M115.203 188.749H88.4922L104.742 143.031H131.453L115.203 188.749Z" fill="#555F85"/>
<path d="M95.6555 179.51L93.9336 184.229H113.255L114.977 179.51H95.6555Z" fill="#65719E"/>
<path d="M97.3787 174.514L96.375 177.298H115.696L116.709 174.514H97.3787Z" fill="#65719E"/>
<path d="M120.118 164.528L125.509 149.355H106.187L100.797 164.528H120.118Z" fill="#65719E"/>
<path d="M164.532 180.499H151.613L155.87 168.527H168.789L164.532 180.499Z" fill="#747DA1"/>
<path d="M165.96 194.961H79.0352V199.767H165.96V194.961Z" fill="#868CAF"/>
<path d="M186.1 138.425L165.957 194.96V200.07L187.061 140.854L186.1 138.425Z" fill="#777C9C"/>
<path d="M152.425 149.642L154.035 145.122H136.461L134.852 149.642H152.425Z" fill="#87C2EC"/>
<path d="M149.57 157.771L151.179 153.242H133.605L131.996 157.771H149.57Z" fill="#FFD664"/>
<path d="M146.714 165.891L148.324 161.371H130.75L129.141 165.891H146.714Z" fill="#87C2EC"/>
<path d="M163.354 188.749L164.963 184.229H124.105L122.496 188.749H163.354Z" fill="#FF5774"/>
<path d="M129.532 179.511H131.886L133.547 173.967H136.195L133.798 168.424L128.555 173.967H131.194L129.532 179.511Z" fill="#E4E6F5"/>
<path d="M146.959 168.971H144.606L143.195 174.514H140.539L142.936 180.057L148.179 174.514H145.549L146.959 168.971Z" fill="#95DD8A"/>
<path d="M132.376 199.767H118.645V316.985H132.376V199.767Z" fill="#666F9B"/>
<path d="M132.379 316.985H140.538L136.195 199.767H132.379V316.985Z" fill="#545C80"/>
<path d="M160.198 316.672H102.32V322.51H160.198V316.672Z" fill="#878BA6"/>
<path d="M145.168 316.672H102.32V322.51H145.168V316.672Z" fill="#9BA0BF"/>
<path d="M59.9472 301.734L59.3502 317.609H52.3242L52.7569 299.07L59.9472 301.734Z" fill="#FF9692"/>
<path d="M101.271 296.39L105.641 311.658L98.9779 313.853L93.6133 296.112L101.271 296.39Z" fill="#FF9692"/>
<path d="M98.2259 319.249L126.018 310.106C126.018 310.106 126.434 307.304 125.092 307.269C123.751 307.234 112.52 310.071 108.652 309.169C104.785 308.267 104.439 307.599 102.223 309.568C100.008 311.537 98.5028 309.793 97.4212 310.557C96.3396 311.32 96.703 312.144 97.0145 313.376C97.326 314.608 96.7895 316.013 98.2259 319.249Z" fill="#87C2EC"/>
<path d="M97.5938 317.531C97.7656 318.123 97.9767 318.702 98.2254 319.266L126.018 310.122C126.105 309.485 126.09 308.838 125.975 308.205L97.5938 317.531Z" fill="#699EDC"/>
<path d="M50.6168 194.961C50.6168 194.961 48.8862 199.767 50.6168 216.25C52.3473 232.733 53.8702 239.768 53.2126 245.745C52.555 251.723 50.911 294.725 51.6378 304.511C51.6378 304.511 55.2719 307.113 61.2596 304.511C61.2596 304.511 62.1249 277.843 64.7207 261.881C67.3165 245.919 67.801 236.645 67.4636 232.013C67.1261 227.38 66.7281 221.056 66.7281 221.056C66.7281 221.056 74.7751 234.442 76.9988 240.28C79.2226 246.118 94.806 303.452 94.806 303.452C94.806 303.452 99.5996 304.485 103.19 301.223C103.19 301.223 91.2065 239.768 89.3462 234.424C87.4859 229.081 73.382 191.873 73.382 191.873L50.6168 194.961Z" fill="#B5C7F1"/>
<path d="M43.2031 172.302C43.2031 172.302 44.0251 183.206 44.5356 184.403C45.0461 185.6 48.2217 187.709 48.2217 187.709C48.2217 187.709 49.5023 171.998 49.1562 171.92L44.3626 170.801L43.2031 172.302Z" fill="#FF9692"/>
<path d="M79.7798 164.528L84.1754 171.668C88.1653 167.987 92.4936 164.693 97.1025 161.83C105.755 156.252 107.036 154.89 107.486 153.676C107.868 152.66 108.558 151.789 109.459 151.186C109.822 151.092 110.203 151.092 110.566 151.186C110.566 151.186 114.892 146.12 115.619 146.094C116.346 146.068 116.303 146.58 116.277 146.84C116.251 147.1 112.651 151.073 112.651 151.073C112.651 151.073 113.62 150.9 113.733 151.273C113.845 151.646 113.733 151.871 114.166 151.993C114.598 152.114 115.074 152.392 114.936 152.765C114.797 153.138 115.308 153.277 115.446 153.702C115.585 154.127 115.308 154.847 114.018 155.74C111.75 157.123 109.628 158.734 107.685 160.546C105.348 162.889 85.0839 180.17 83.1457 180.855C81.2075 181.54 78.8194 179.823 78.1791 178.912C77.5388 178.001 72.1914 167.469 72.1914 167.469L79.7798 164.528Z" fill="#FF9692"/>
<path d="M79.7784 164.528L72.1641 167.469C72.1641 167.469 73.4187 169.968 74.7599 172.674C77.1448 170.907 79.1736 168.702 80.7389 166.177L79.7784 164.528Z" fill="#DE8788"/>
<path d="M82.0353 162.95C79.2924 160.625 76.212 155.48 75.442 154.11C74.3627 152.307 72.7159 150.915 70.7609 150.154C68.6755 149.315 66.4965 148.732 64.2713 148.419H57.0377C57.0377 148.419 50.1848 148.419 45.2181 152.279C42.4666 154.422 41.5234 171.876 41.5234 171.876C43.6693 172.744 47.788 172.275 47.788 172.275C47.788 172.275 47.4765 181.601 47.7015 188.238C47.8312 192.081 47.4765 196.366 47.4765 196.366C49.378 196.774 51.3328 196.871 53.2651 196.653C56.7262 196.306 61.8313 197.078 68.3381 195.967C74.8449 194.857 75.9525 191.933 75.9525 191.933C75.9525 191.933 73.8153 183.518 73.8153 178.452C73.834 175.622 73.6722 172.794 73.3307 169.985C76.9666 168.738 80.0483 166.247 82.0353 162.95Z" fill="#FFB147"/>
<path d="M70.1293 130.731C70.3281 131.81 70.3632 132.912 70.2331 134.001C70.0423 134.899 70.0014 135.823 70.112 136.734C70.2071 137.133 70.3802 137.515 70.4408 137.923C70.4892 138.124 70.4861 138.335 70.4316 138.535C70.3772 138.735 70.2732 138.919 70.1293 139.068C69.9562 139.224 69.7139 139.302 69.5495 139.467C69.311 139.784 69.2055 140.183 69.2553 140.577C69.2924 141.272 69.2194 141.969 69.039 142.642C68.9462 142.979 68.7768 143.29 68.5441 143.55C68.3115 143.81 68.0218 144.013 67.6979 144.143C67.4156 144.221 67.1253 144.268 66.8326 144.281C66.2929 144.318 65.7556 144.385 65.2232 144.481C64.9155 144.515 64.6195 144.619 64.3579 144.785C64.2278 144.87 64.126 144.992 64.0659 145.136C64.0058 145.28 63.9899 145.438 64.0205 145.591L64.306 148.445C64.306 148.445 62.7658 150.285 56.683 148.957C56.683 148.957 56.9858 143.804 56.3455 142.52C55.7052 141.236 59.123 131.616 59.123 131.616L66.9105 128.311L70.1293 130.731Z" fill="#FF9692"/>
<path d="M59.1743 123.512C61.0346 123.66 61.9172 121.777 64.5476 122.87C65.1235 123.197 65.6531 123.6 66.1224 124.067C67.1954 124.935 68.4933 125.421 69.4277 126.392C70.0189 127.021 70.4329 127.795 70.6275 128.637C70.8221 129.478 70.7903 130.356 70.5353 131.181C70.4827 131.415 70.3513 131.623 70.1632 131.771C69.8684 131.897 69.5487 131.953 69.2287 131.936C68.1471 132.075 67.3771 133.385 66.3041 133.228C65.9494 133.176 65.6379 132.968 65.2918 132.907C64.5217 132.76 63.8814 133.463 63.6218 134.2C63.1978 135.388 64.6428 137.288 65.2052 137.835C65.2052 137.835 65.6379 138.945 65.3783 139.292C65.1187 139.639 65.1533 139.292 64.963 140.325C64.7726 141.357 65.2485 142.641 64.1842 143.153C63.1199 143.665 62.6008 143.153 61.7442 143.673C60.8875 144.194 59.6416 143.673 58.2831 143.673C57.138 143.646 56.0128 143.367 54.9864 142.858C54.1731 142.467 53.1001 141.435 53.0569 140.533C53.0136 139.631 52.4598 139.249 52.1916 138.008C51.9001 136.844 51.7978 135.64 51.8888 134.443C52.0185 133.844 51.2485 130.062 52.1916 128.561C52.7791 127.804 53.1607 126.908 53.2991 125.959C53.5674 124.796 55.6181 123.183 59.1743 123.512Z" fill="#544161"/>
<path d="M66.7301 221.055C66.7301 221.055 65.1034 217.108 60.1367 212.042C60.1367 212.042 64.7486 222.452 67.2319 229.514C66.9464 225.393 66.7301 221.055 66.7301 221.055Z" fill="#99B7FD"/>
<path d="M49.9346 322.502H79.1893C79.1893 322.502 80.4526 319.969 79.1893 319.518C77.926 319.067 66.366 318.251 62.9396 316.169C59.5131 314.087 59.4179 313.367 56.7096 314.538C54.0013 315.71 53.1015 313.593 51.8382 313.974C50.5749 314.356 50.6614 315.267 50.5662 316.534C50.471 317.8 49.5798 318.971 49.9346 322.502Z" fill="#87C2EC"/>
<path d="M49.8667 320.672C49.8539 321.283 49.877 321.894 49.936 322.502H79.1907C79.4706 321.925 79.6575 321.308 79.7445 320.672H49.8667Z" fill="#699EDC"/>
<path d="M73.3317 170.012C73.8202 169.853 74.2996 169.667 74.768 169.456C74.1364 166.403 72.8125 160.781 72.8125 160.781C73.1586 164.347 73.3317 170.012 73.3317 170.012Z" fill="#F3A335"/>
<path d="M46.828 166.125C46.5251 166.992 46.179 170.159 45.7031 172.423C46.8799 172.423 47.7711 172.301 47.7711 172.301C47.6757 170.472 47.6757 168.639 47.7711 166.81C47.8812 165.61 47.8812 164.402 47.7711 163.201C47.7711 163.201 47.2779 164.919 46.828 166.125Z" fill="#F3A335"/>
<path d="M179.293 308.188H158.977V322.501H179.293V308.188Z" fill="#414763"/>
<path d="M187.67 260.935H182.141V322.502H187.67V260.935Z" fill="#414763"/>
<path d="M182.139 260.935H155.203V322.502H182.139V260.935Z" fill="#545C80"/>
<path d="M167.769 264.258H158.52V300.424H167.769V264.258Z" fill="#373C54"/>
<path d="M179.862 264.258H169.816V267.693H179.862V264.258Z" fill="#9BA0BF"/>
<path d="M179.862 270.434H169.816V273.869H179.862V270.434Z" fill="#9BA0BF"/>
<path d="M179.862 276.611H169.816V280.047H179.862V276.611Z" fill="#9BA0BF"/>
<path d="M179.862 282.796H169.816V286.231H179.862V282.796Z" fill="#9BA0BF"/>
<path d="M166.626 266.713H159.66V267.398H166.626V266.713Z" fill="#545C80"/>
<path d="M166.626 271.467H159.66V272.152H166.626V271.467Z" fill="#545C80"/>
<path d="M166.626 276.212H159.66V276.897H166.626V276.212Z" fill="#545C80"/>
<path d="M166.626 280.966H159.66V281.651H166.626V280.966Z" fill="#545C80"/>
<path d="M166.626 285.711H159.66V286.396H166.626V285.711Z" fill="#545C80"/>
<path d="M166.626 290.465H159.66V291.15H166.626V290.465Z" fill="#545C80"/>
<path d="M166.626 295.21H159.66V295.895H166.626V295.21Z" fill="#545C80"/>
<path d="M177.353 313.575H169.133V320.671H177.353V313.575Z" fill="#373C54"/>
<path d="M222.737 319.587H186.664V322.502H222.737V319.587Z" fill="#878BA6"/>
<path d="M191.001 316.672H172.969V319.587H191.001V316.672Z" fill="#9BA0BF"/>
<path d="M217.32 288.73H214.75V322.503H217.32V288.73Z" fill="#9BA0BF"/>
<path d="M220.462 288.73H212.121V291.029H220.462V288.73Z" fill="#545C80"/>
<path d="M259.608 264.613H234.281V322.502H259.608V264.613Z" fill="#545C80"/>
<path d="M257.574 309.047H238.469V322.502H257.574V309.047Z" fill="#414763"/>
<path d="M264.797 264.613H259.605V322.502H264.797V264.613Z" fill="#414763"/>
<path d="M246.09 267.736H237.395V301.743H246.09V267.736Z" fill="#373C54"/>
<path d="M257.468 267.736H248.02V270.963H257.468V267.736Z" fill="#9BA0BF"/>
<path d="M257.468 273.54H248.02V276.767H257.468V273.54Z" fill="#9BA0BF"/>
<path d="M257.468 279.352H248.02V282.579H257.468V279.352Z" fill="#9BA0BF"/>
<path d="M257.468 285.164H248.02V288.391H257.468V285.164Z" fill="#9BA0BF"/>
<path d="M245.019 270.044H238.469V270.686H245.019V270.044Z" fill="#545C80"/>
<path d="M245.019 274.512H238.469V275.154H245.019V274.512Z" fill="#545C80"/>
<path d="M245.019 278.979H238.469V279.62H245.019V278.979Z" fill="#545C80"/>
<path d="M245.019 283.447H238.469V284.089H245.019V283.447Z" fill="#545C80"/>
<path d="M245.019 287.906H238.469V288.548H245.019V287.906Z" fill="#545C80"/>
<path d="M245.019 292.373H238.469V293.015H245.019V292.373Z" fill="#545C80"/>
<path d="M245.019 296.841H238.469V297.483H245.019V296.841Z" fill="#545C80"/>
<path d="M254.621 314.104H246.895V320.776H254.621V314.104Z" fill="#373C54"/>
<path d="M236.78 226.564H191.812V237.747H236.78V226.564Z" fill="#666F9B"/>
<path d="M240.926 226.564H236.781V237.747H240.926V226.564Z" fill="#545C80"/>
<path d="M227.028 229.8H194.277V230.954H227.028V229.8Z" fill="#484F6E"/>
<path d="M227.028 233.348H194.277V234.501H227.028V233.348Z" fill="white"/>
<path d="M231.91 233.93C232.89 233.93 233.684 233.134 233.684 232.151C233.684 231.169 232.89 230.373 231.91 230.373C230.931 230.373 230.137 231.169 230.137 232.151C230.137 233.134 230.931 233.93 231.91 233.93Z" fill="#FF6290"/>
<path d="M236.78 243.559H191.812V254.741H236.78V243.559Z" fill="#666F9B"/>
<path d="M240.926 243.559H236.781V254.741H240.926V243.559Z" fill="#545C80"/>
<path d="M227.028 246.795H194.277V247.949H227.028V246.795Z" fill="#484F6E"/>
<path d="M227.028 250.352H194.277V251.505H227.028V250.352Z" fill="white"/>
<path d="M231.91 250.924C232.89 250.924 233.684 250.128 233.684 249.146C233.684 248.163 232.89 247.367 231.91 247.367C230.931 247.367 230.137 248.163 230.137 249.146C230.137 250.128 230.931 250.924 231.91 250.924Z" fill="#FFD664"/>
<path d="M236.78 260.553H191.812V271.735H236.78V260.553Z" fill="#666F9B"/>
<path d="M240.926 260.553H236.781V271.735H240.926V260.553Z" fill="#545C80"/>
<path d="M227.028 263.789H194.277V264.943H227.028V263.789Z" fill="#484F6E"/>
<path d="M227.028 267.346H194.277V268.499H227.028V267.346Z" fill="white"/>
<path d="M233.726 266.148C233.718 266.487 233.61 266.817 233.417 267.095C233.223 267.374 232.953 267.589 232.638 267.715C232.324 267.841 231.979 267.872 231.648 267.804C231.316 267.735 231.012 267.571 230.772 267.331C230.533 267.091 230.369 266.786 230.301 266.453C230.233 266.121 230.264 265.776 230.389 265.461C230.515 265.145 230.73 264.874 231.008 264.68C231.285 264.486 231.614 264.378 231.952 264.37C232.187 264.364 232.42 264.406 232.638 264.493C232.856 264.58 233.054 264.711 233.22 264.877C233.386 265.044 233.516 265.242 233.603 265.461C233.69 265.679 233.732 265.913 233.726 266.148Z" fill="#FF6290"/>
<path d="M236.78 277.548H191.812V288.73H236.78V277.548Z" fill="#666F9B"/>
<path d="M240.926 277.548H236.781V288.73H240.926V277.548Z" fill="#545C80"/>
<path d="M227.028 280.783H194.277V281.937H227.028V280.783Z" fill="#484F6E"/>
<path d="M227.028 284.34H194.277V285.494H227.028V284.34Z" fill="white"/>
<path d="M231.91 284.922C232.89 284.922 233.684 284.126 233.684 283.144C233.684 282.161 232.89 281.365 231.91 281.365C230.931 281.365 230.137 282.161 230.137 283.144C230.137 284.126 230.931 284.922 231.91 284.922Z" fill="#FFD664"/>
<path d="M244.143 319.587H218.289V322.502H244.143V319.587Z" fill="#878BA6"/>
<path d="M253.196 316.672H235.164V319.587H253.196V316.672Z" fill="#9BA0BF"/>
<path d="M254.233 5.10645H181.455C178.401 5.10645 175.926 7.5883 175.926 10.6498V52.7761C175.926 55.8376 178.401 58.3195 181.455 58.3195H254.233C257.286 58.3195 259.762 55.8376 259.762 52.7761V10.6498C259.762 7.5883 257.286 5.10645 254.233 5.10645Z" fill="#71AAEC"/>
<path d="M253.422 0.326172H176.82C174.822 0.326172 173.203 1.94967 173.203 3.95236V49.913C173.203 51.9157 174.822 53.5392 176.82 53.5392H253.422C255.42 53.5392 257.039 51.9157 257.039 49.913V3.95236C257.039 1.94967 255.42 0.326172 253.422 0.326172Z" fill="#87C2EC"/>
<path d="M216.885 21.0765V25.4347H225.63V29.7646H216.885V36.5566H211.282V16.7466H226.818V21.0765H216.885ZM215.498 55.1897H209.414V50.7466H227.158V55.1897H221.102V70.5566H215.498V55.1897Z" fill="white"/>
<path d="M187 46.5297C186.695 46.5284 186.397 46.4416 186.138 46.2791C185.88 46.1166 185.672 45.8848 185.538 45.6101L178.244 30.5067C177.705 29.3926 177.426 28.1706 177.426 26.9326C177.426 25.6946 177.705 24.4726 178.244 23.3585L185.538 8.25511C185.726 7.86513 186.061 7.56607 186.469 7.42371C186.877 7.28136 187.325 7.30738 187.714 7.49604C188.103 7.6847 188.401 8.02056 188.543 8.42973C188.685 8.83889 188.659 9.28785 188.471 9.67783L181.177 24.7812C180.843 25.4549 180.668 26.1973 180.668 26.95C180.668 27.7026 180.843 28.445 181.177 29.1187L188.471 44.2221C188.564 44.4152 188.618 44.6247 188.63 44.8386C188.642 45.0526 188.611 45.2668 188.541 45.469C188.47 45.6712 188.36 45.8575 188.218 46.0171C188.075 46.1768 187.903 46.3068 187.71 46.3995C187.486 46.4971 187.244 46.5416 187 46.5297Z" fill="white"/>
<path d="M242.457 46.5297C242.214 46.53 241.974 46.4736 241.756 46.3648C241.563 46.272 241.391 46.1421 241.248 45.9824C241.106 45.8228 240.996 45.6365 240.925 45.4343C240.855 45.2321 240.824 45.0179 240.836 44.8039C240.848 44.59 240.902 44.3805 240.995 44.1874L248.289 29.084C248.619 28.4089 248.791 27.6671 248.791 26.9153C248.791 26.1634 248.619 25.4216 248.289 24.7465L240.995 9.67783C240.806 9.28785 240.781 8.83889 240.923 8.42973C241.064 8.02056 241.363 7.6847 241.752 7.49604C242.141 7.30738 242.589 7.28136 242.997 7.42371C243.405 7.56607 243.74 7.86513 243.928 8.25511L251.222 23.3671C251.762 24.4793 252.043 25.7 252.043 26.9369C252.043 28.1739 251.762 29.3946 251.222 30.5067L243.928 45.6101C243.793 45.8862 243.584 46.1188 243.324 46.2814C243.064 46.4439 242.763 46.53 242.457 46.5297Z" fill="white"/>
<path d="M166.738 91.597H120.619C120.476 91.5947 120.339 91.5362 120.239 91.4339C120.139 91.3317 120.082 91.1939 120.082 91.0505V53.1143C120.073 53.0373 120.079 52.9592 120.102 52.885C120.125 52.8109 120.163 52.7424 120.214 52.6842C120.265 52.626 120.328 52.5794 120.399 52.5475C120.469 52.5155 120.546 52.499 120.623 52.499C120.701 52.499 120.777 52.5155 120.848 52.5475C120.918 52.5794 120.981 52.626 121.032 52.6842C121.083 52.7424 121.122 52.8109 121.144 52.885C121.167 52.9592 121.174 53.0373 121.164 53.1143V90.5473H166.738C166.881 90.5496 167.017 90.6082 167.118 90.7104C167.218 90.8127 167.274 90.9504 167.274 91.0939C167.263 91.2297 167.202 91.3566 167.103 91.4496C167.004 91.5427 166.874 91.5953 166.738 91.597Z" fill="#545C80"/>
<path d="M154.381 113.97H71.3151C71.1705 113.97 71.0318 113.913 70.9296 113.81C70.8274 113.708 70.77 113.569 70.77 113.424V94.5986C70.7602 94.5217 70.7669 94.4435 70.7897 94.3694C70.8124 94.2952 70.8506 94.2268 70.9018 94.1686C70.9529 94.1104 71.0159 94.0638 71.0864 94.0318C71.1569 93.9999 71.2334 93.9834 71.3107 93.9834C71.3881 93.9834 71.4646 93.9999 71.5351 94.0318C71.6056 94.0638 71.6686 94.1104 71.7197 94.1686C71.7709 94.2268 71.8091 94.2952 71.8318 94.3694C71.8545 94.4435 71.8613 94.5217 71.8515 94.5986V112.877H154.381C154.525 112.877 154.664 112.935 154.766 113.037C154.869 113.14 154.926 113.279 154.926 113.424C154.926 113.569 154.869 113.708 154.766 113.81C154.664 113.913 154.525 113.97 154.381 113.97Z" fill="#545C80"/>
<path d="M312.347 91.597H266.237C266.092 91.597 265.953 91.5394 265.851 91.4369C265.749 91.3344 265.691 91.1954 265.691 91.0505C265.691 90.9055 265.749 90.7665 265.851 90.664C265.953 90.5615 266.092 90.504 266.237 90.504H311.81V53.1143C311.8 53.0373 311.807 52.9592 311.83 52.885C311.853 52.8109 311.891 52.7424 311.942 52.6842C311.993 52.626 312.056 52.5794 312.127 52.5475C312.197 52.5155 312.274 52.499 312.351 52.499C312.428 52.499 312.505 52.5155 312.575 52.5475C312.646 52.5794 312.709 52.626 312.76 52.6842C312.811 52.7424 312.849 52.8109 312.872 52.885C312.895 52.9592 312.902 53.0373 312.892 53.1143V91.0505C312.892 91.1954 312.834 91.3344 312.732 91.4369C312.63 91.5394 312.491 91.597 312.347 91.597Z" fill="#545C80"/>
<path d="M361.658 113.97H278.592C278.447 113.97 278.309 113.912 278.207 113.81C278.104 113.707 278.047 113.568 278.047 113.423C278.047 113.278 278.104 113.139 278.207 113.037C278.309 112.934 278.447 112.877 278.592 112.877H361.113V94.5983C361.113 94.5265 361.127 94.4554 361.154 94.3891C361.182 94.3228 361.222 94.2626 361.272 94.2118C361.323 94.1611 361.383 94.1208 361.449 94.0934C361.515 94.0659 361.586 94.0518 361.658 94.0518C361.729 94.0518 361.8 94.0659 361.866 94.0934C361.933 94.1208 361.993 94.1611 362.043 94.2118C362.094 94.2626 362.134 94.3228 362.161 94.3891C362.189 94.4554 362.203 94.5265 362.203 94.5983V113.423C362.203 113.568 362.145 113.707 362.043 113.81C361.941 113.912 361.802 113.97 361.658 113.97Z" fill="#545C80"/>
<path d="M136.02 23.0547H105.234C103.126 23.0547 101.418 24.7675 101.418 26.8804V42.27C101.418 44.3829 103.126 46.0957 105.234 46.0957H136.02C138.127 46.0957 139.836 44.3829 139.836 42.27V26.8804C139.836 24.7675 138.127 23.0547 136.02 23.0547Z" fill="white"/>
<path d="M102.43 44.8555C102.786 45.2453 103.219 45.5568 103.702 45.7703C104.184 45.9838 104.706 46.0947 105.233 46.096H129.296L117.373 32.4674C117.07 32.1211 116.696 31.845 116.276 31.6583C115.856 31.4716 115.4 31.3787 114.941 31.3862C114.481 31.3936 114.029 31.5011 113.615 31.7013C113.202 31.9015 112.836 32.1896 112.545 32.5455L102.43 44.8555Z" fill="#9BA0BF"/>
<path d="M125.629 41.8974L129.298 46.0962H136.012C136.514 46.0962 137.011 45.9969 137.474 45.8041C137.938 45.6113 138.359 45.3287 138.713 44.9726C139.068 44.6164 139.349 44.1936 139.54 43.7285C139.731 43.2633 139.829 42.7649 139.828 42.2618V38.9219L135.424 35.66C134.802 35.2017 134.036 34.9851 133.267 35.0505C132.499 35.1159 131.78 35.4589 131.244 36.0157L125.629 41.8974Z" fill="#6E7087"/>
<path d="M87.3392 60.2969H55.2897C53.5311 60.2969 52.1055 61.7262 52.1055 63.4893V83.8237C52.1055 85.5869 53.5311 87.0162 55.2897 87.0162H87.3392C89.0978 87.0162 90.5234 85.5869 90.5234 83.8237V63.4893C90.5234 61.7262 89.0978 60.2969 87.3392 60.2969Z" fill="white"/>
<path d="M64.6198 67.9225C64.4783 67.9395 64.3481 68.0082 64.2539 68.1154C64.1598 68.2226 64.1083 68.3608 64.1093 68.5037V80.0763C63.4067 79.7208 62.6293 79.5393 61.8423 79.5471C59.8089 79.5471 58.1562 80.6228 58.1562 81.9501C58.1562 83.2774 59.8089 84.3531 61.8423 84.3531C63.8757 84.3531 65.5197 83.2774 65.5197 81.9501V69.883C65.5188 69.7971 65.5489 69.7137 65.6046 69.6483C65.6603 69.5829 65.7377 69.5399 65.8225 69.5274L78.1959 67.7923C78.246 67.7862 78.2968 67.7908 78.345 67.8059C78.3931 67.821 78.4375 67.8462 78.4752 67.8798C78.5129 67.9135 78.5429 67.9548 78.5634 68.0011C78.5839 68.0473 78.5943 68.0974 78.5939 68.148V76.9966C77.8894 76.6472 77.1128 76.4689 76.3269 76.4761C74.2935 76.4761 72.6495 77.5518 72.6495 78.8791C72.6495 80.2064 74.2935 81.2821 76.3269 81.2821C78.3603 81.2821 80.0043 80.2064 80.0043 78.8791V66.4911C80.0052 66.4069 79.9879 66.3235 79.9535 66.2466C79.9191 66.1698 79.8685 66.1014 79.8051 66.0461C79.7418 65.9908 79.6672 65.95 79.5865 65.9265C79.5059 65.9029 79.4211 65.8973 79.338 65.9098L64.6198 67.9225Z" fill="#666F9B"/>
<path d="M327.739 23.0547H296.953C294.845 23.0547 293.137 24.7675 293.137 26.8804V42.27C293.137 44.3829 294.845 46.0957 296.953 46.0957H327.739C329.846 46.0957 331.555 44.3829 331.555 42.27V26.8804C331.555 24.7675 329.846 23.0547 327.739 23.0547Z" fill="white"/>
<path d="M324.389 26.4465H307.438C307.234 26.4465 307.038 26.3652 306.894 26.2204C306.749 26.0756 306.668 25.8792 306.668 25.6744C306.668 25.4697 306.749 25.2733 306.894 25.1285C307.038 24.9837 307.234 24.9023 307.438 24.9023H324.389C324.593 24.9023 324.789 24.9837 324.933 25.1285C325.078 25.2733 325.159 25.4697 325.159 25.6744C325.159 25.8792 325.078 26.0756 324.933 26.2204C324.789 26.3652 324.593 26.4465 324.389 26.4465Z" fill="#9BA0BF"/>
<path d="M324.391 30.6887H299.047C298.843 30.6887 298.647 30.6074 298.503 30.4626C298.358 30.3178 298.277 30.1214 298.277 29.9166C298.277 29.7118 298.358 29.5155 298.503 29.3707C298.647 29.2259 298.843 29.1445 299.047 29.1445H324.391C324.595 29.1445 324.791 29.2259 324.936 29.3707C325.08 29.5155 325.161 29.7118 325.161 29.9166C325.161 30.018 325.141 30.1184 325.103 30.2121C325.064 30.3058 325.007 30.3909 324.936 30.4626C324.864 30.5343 324.779 30.5911 324.686 30.6299C324.592 30.6687 324.492 30.6887 324.391 30.6887Z" fill="#8082A6"/>
<path d="M324.391 34.8616H299.047C298.843 34.8616 298.647 34.7802 298.503 34.6354C298.358 34.4906 298.277 34.2942 298.277 34.0895C298.277 33.9881 298.297 33.8877 298.336 33.794C298.375 33.7003 298.431 33.6152 298.503 33.5435C298.574 33.4718 298.659 33.415 298.753 33.3762C298.846 33.3374 298.946 33.3174 299.047 33.3174H324.391C324.492 33.3174 324.592 33.3374 324.686 33.3762C324.779 33.415 324.864 33.4718 324.936 33.5435C325.007 33.6152 325.064 33.7003 325.103 33.794C325.141 33.8877 325.161 33.9881 325.161 34.0895C325.161 34.1909 325.141 34.2913 325.103 34.3849C325.064 34.4786 325.007 34.5637 324.936 34.6354C324.864 34.7071 324.779 34.764 324.686 34.8028C324.592 34.8416 324.492 34.8616 324.391 34.8616Z" fill="#9BA0BF"/>
<path d="M324.391 39.0694H299.047C298.946 39.0694 298.845 39.0492 298.751 39.0099C298.657 38.9705 298.571 38.9129 298.5 38.8402C298.428 38.7676 298.372 38.6815 298.334 38.5868C298.295 38.4921 298.276 38.3908 298.277 38.2887C298.277 38.0839 298.359 37.8875 298.503 37.7427C298.647 37.5979 298.843 37.5166 299.047 37.5166H324.391C324.595 37.5166 324.791 37.5979 324.936 37.7427C325.08 37.8875 325.161 38.0839 325.161 38.2887C325.162 38.3908 325.143 38.4921 325.105 38.5868C325.067 38.6815 325.01 38.7676 324.939 38.8402C324.867 38.9129 324.782 38.9705 324.688 39.0099C324.594 39.0492 324.493 39.0694 324.391 39.0694Z" fill="#8082A6"/>
<path d="M319.987 43.2678H299.047C298.946 43.2678 298.846 43.2478 298.753 43.209C298.659 43.1702 298.574 43.1134 298.503 43.0417C298.431 42.97 298.375 42.8848 298.336 42.7912C298.297 42.6975 298.277 42.5971 298.277 42.4957C298.277 42.2909 298.358 42.0946 298.503 41.9498C298.647 41.805 298.843 41.7236 299.047 41.7236H319.987C320.191 41.7236 320.387 41.805 320.531 41.9498C320.676 42.0946 320.757 42.2909 320.757 42.4957C320.757 42.5971 320.737 42.6975 320.698 42.7912C320.66 42.8848 320.603 42.97 320.531 43.0417C320.46 43.1134 320.375 43.1702 320.282 43.209C320.188 43.2478 320.088 43.2678 319.987 43.2678Z" fill="#9BA0BF"/>
<path d="M377.683 60.2969H345.633C343.875 60.2969 342.449 61.7262 342.449 63.4893V83.8237C342.449 85.5869 343.875 87.0162 345.633 87.0162H377.683C379.441 87.0162 380.867 85.5869 380.867 83.8237V63.4893C380.867 61.7262 379.441 60.2969 377.683 60.2969Z" fill="white"/>
<path d="M361.655 84.4137C367.581 84.4137 372.384 79.5975 372.384 73.6565C372.384 67.7155 367.581 62.8994 361.655 62.8994C355.729 62.8994 350.926 67.7155 350.926 73.6565C350.926 79.5975 355.729 84.4137 361.655 84.4137Z" fill="#8B8FAB"/>
<path d="M368.485 73.6565L358.18 80.319V66.9854L368.485 73.6565Z" fill="#C7CEF5"/>
<path d="M273.633 69.5104V54.0254L278.677 56.1681V57.2872L277.552 58.788L278.677 59.3172V60.2107L277.483 61.3211L278.677 62.0152L277.708 63.6634V71.6792L273.633 69.5104Z" fill="#878AA6"/>
<path d="M275.468 70.5599H274.707V56.0898L275.468 56.4629V70.5599Z" fill="#74778F"/>
<path d="M281.422 74.3075C281.422 75.4128 281.095 76.4933 280.482 77.4122C279.87 78.3311 278.999 79.0472 277.98 79.4698C276.961 79.8924 275.841 80.0025 274.759 79.7863C273.678 79.57 272.685 79.037 271.906 78.2548C271.127 77.4727 270.597 76.4764 270.383 75.3921C270.169 74.3078 270.281 73.1842 270.704 72.1635C271.127 71.1428 271.843 70.2709 272.76 69.658C273.678 69.0452 274.756 68.719 275.858 68.7207C277.335 68.723 278.75 69.3126 279.793 70.3601C280.836 71.4076 281.422 72.8273 281.422 74.3075Z" fill="#9BA0BF"/>
<path d="M278.469 74.3076C278.469 74.8223 278.317 75.3255 278.031 75.7535C277.746 76.1815 277.341 76.5151 276.867 76.712C276.392 76.909 275.87 76.9606 275.367 76.8601C274.863 76.7597 274.401 76.5118 274.038 76.1479C273.675 75.7839 273.427 75.3202 273.327 74.8153C273.227 74.3105 273.278 73.7872 273.475 73.3117C273.671 72.8361 274.004 72.4297 274.431 72.1437C274.858 71.8577 275.36 71.7051 275.873 71.7051C276.562 71.7051 277.222 71.9793 277.709 72.4673C278.195 72.9554 278.469 73.6174 278.469 74.3076Z" fill="#E1E6F0"/>
<path d="M159.009 77.7596H150.832C150.128 77.7596 149.452 77.479 148.954 76.9795C148.456 76.4801 148.176 75.8026 148.176 75.0963V65.7012H161.674V75.0963C161.672 75.8034 161.39 76.4808 160.89 76.98C160.391 77.4792 159.714 77.7596 159.009 77.7596Z" fill="#9BA0BF"/>
<path d="M157.715 71.7308C157.715 72.2853 157.55 72.8274 157.243 73.2884C156.936 73.7494 156.499 74.1085 155.987 74.3204C155.476 74.5322 154.914 74.5872 154.371 74.4783C153.829 74.3695 153.331 74.1018 152.941 73.709C152.55 73.3163 152.285 72.8162 152.178 72.2721C152.071 71.728 152.127 71.1643 152.34 70.6525C152.553 70.1406 152.913 69.7036 153.373 69.3967C153.834 69.0899 154.375 68.927 154.928 68.9287C155.668 68.931 156.377 69.2272 156.899 69.7525C157.421 70.2777 157.715 70.9891 157.715 71.7308Z" fill="#E1E6F0"/>
<path d="M159.003 61.6937V63.1425H160.404V61.5809C160.402 60.1583 159.837 58.7946 158.833 57.7895C157.828 56.7843 156.467 56.2197 155.048 56.2197H154.797C153.378 56.2197 152.017 56.7843 151.013 57.7895C150.009 58.7946 149.444 60.1583 149.441 61.5809V65.7016H150.843V61.6937C150.818 61.1407 150.904 60.5883 151.098 60.0699C151.292 59.5514 151.588 59.0777 151.969 58.6773C152.351 58.277 152.809 57.9583 153.317 57.7406C153.824 57.5229 154.371 57.4106 154.923 57.4106C155.475 57.4106 156.021 57.5229 156.529 57.7406C157.037 57.9583 157.495 58.277 157.876 58.6773C158.258 59.0777 158.554 59.5514 158.748 60.0699C158.941 60.5883 159.028 61.1407 159.003 61.6937Z" fill="#666F9B"/>
<path d="M166.289 164.58C165.483 164.58 164.682 164.448 163.918 164.19C159.531 162.68 157.403 157.25 159.176 152.045C159.963 149.647 161.561 147.6 163.693 146.258C164.667 145.625 165.771 145.219 166.922 145.069C168.073 144.919 169.243 145.029 170.347 145.391C174.734 146.9 176.854 152.331 175.089 157.536C174.302 159.936 172.704 161.985 170.572 163.331C169.286 164.133 167.804 164.566 166.289 164.58ZM167.967 147.178C166.848 147.194 165.755 147.522 164.809 148.123C163.11 149.205 161.841 150.846 161.218 152.765C159.834 156.807 161.357 161.006 164.61 162.125C165.412 162.383 166.261 162.458 167.095 162.344C167.929 162.23 168.727 161.93 169.43 161.466C171.132 160.386 172.405 158.744 173.029 156.824C174.414 152.782 172.891 148.574 169.629 147.455C169.094 147.273 168.533 147.179 167.967 147.178Z" fill="#E4E6F5"/>
<path d="M166.289 164.58C165.483 164.58 164.682 164.448 163.918 164.19C159.531 162.68 157.403 157.25 159.176 152.045C159.963 149.647 161.561 147.6 163.693 146.258C164.667 145.625 165.771 145.219 166.922 145.069C168.073 144.919 169.243 145.029 170.347 145.391C171.445 145.774 172.437 146.41 173.246 147.247L171.688 148.765C171.119 148.169 170.416 147.717 169.637 147.447C168.835 147.19 167.986 147.117 167.152 147.233C166.318 147.349 165.521 147.65 164.818 148.115C163.119 149.196 161.849 150.837 161.227 152.756C159.843 156.798 161.365 160.997 164.619 162.116C165.42 162.374 166.269 162.449 167.103 162.335C167.937 162.221 168.735 161.921 169.438 161.457C171.14 160.377 172.413 158.736 173.038 156.816C173.292 156.063 173.454 155.283 173.522 154.491L175.677 154.656C175.605 155.631 175.407 156.594 175.089 157.518C174.302 159.918 172.704 161.968 170.572 163.313C169.287 164.122 167.805 164.56 166.289 164.58Z" fill="#FFD664"/>
<path d="M137.534 120.384C141.369 116.058 140.98 109.435 136.665 105.59C132.35 101.745 125.744 102.135 121.909 106.461C118.074 110.787 118.463 117.411 122.778 121.256C127.092 125.101 133.699 124.71 137.534 120.384Z" fill="white"/>
<path d="M135.459 119.178C138.629 116 138.629 110.848 135.459 107.67C132.29 104.492 127.151 104.492 123.981 107.67C120.812 110.848 120.812 116 123.981 119.178C127.151 122.356 132.29 122.356 135.459 119.178Z" fill="#B4B7D1"/>
<path d="M128.908 117.441C128.769 117.443 128.633 117.4 128.519 117.319L125.439 115.176C125.365 115.126 125.302 115.061 125.254 114.986C125.205 114.912 125.172 114.828 125.156 114.74C125.14 114.652 125.141 114.562 125.16 114.474C125.179 114.387 125.215 114.304 125.266 114.231C125.369 114.084 125.525 113.983 125.702 113.95C125.878 113.918 126.06 113.956 126.209 114.057L128.744 115.792L133.07 109.72C133.182 109.594 133.337 109.514 133.504 109.495C133.671 109.476 133.84 109.519 133.977 109.617C134.114 109.715 134.211 109.86 134.248 110.025C134.285 110.189 134.26 110.362 134.178 110.509L129.462 117.12C129.405 117.216 129.324 117.296 129.227 117.352C129.13 117.408 129.02 117.439 128.908 117.441Z" fill="white"/>
<path d="M313.412 115.812C314.731 110.177 311.245 104.538 305.625 103.215C300.005 101.892 294.38 105.388 293.06 111.022C291.741 116.657 295.228 122.297 300.848 123.619C306.468 124.942 312.093 121.446 313.412 115.812Z" fill="white"/>
<path d="M308.736 119.423C312.042 116.389 312.269 111.242 309.243 107.927C306.216 104.612 301.082 104.384 297.776 107.419C294.469 110.453 294.243 115.6 297.269 118.915C300.296 122.23 305.43 122.458 308.736 119.423Z" fill="#B4B7D1"/>
<path d="M306.676 117.536C306.495 117.534 306.322 117.462 306.192 117.336L299.347 110.5C299.284 110.437 299.234 110.362 299.2 110.279C299.166 110.197 299.148 110.108 299.148 110.019C299.148 109.929 299.166 109.841 299.2 109.758C299.234 109.676 299.284 109.601 299.347 109.537C299.41 109.474 299.485 109.424 299.568 109.39C299.65 109.356 299.738 109.338 299.828 109.338C299.917 109.338 300.005 109.356 300.087 109.39C300.17 109.424 300.245 109.474 300.308 109.537L307.152 116.399C307.245 116.495 307.308 116.616 307.333 116.747C307.358 116.878 307.344 117.013 307.294 117.137C307.243 117.26 307.158 117.366 307.048 117.442C306.939 117.517 306.809 117.559 306.676 117.562V117.536Z" fill="white"/>
<path d="M299.825 117.535C299.692 117.533 299.563 117.491 299.453 117.415C299.343 117.34 299.258 117.234 299.207 117.11C299.157 116.987 299.143 116.852 299.169 116.721C299.194 116.589 299.257 116.469 299.349 116.373L306.194 109.511C306.321 109.383 306.494 109.312 306.674 109.312C306.854 109.312 307.027 109.383 307.154 109.511C307.281 109.639 307.353 109.812 307.353 109.992C307.353 110.173 307.281 110.346 307.154 110.474L300.353 117.336C300.283 117.404 300.201 117.456 300.11 117.491C300.019 117.525 299.922 117.54 299.825 117.535Z" fill="white"/>
</g>
<defs>
<linearGradient id="paint0_linear_1448_22337" x1="0.105469" y1="162.18" x2="229.522" y2="471.396" gradientUnits="userSpaceOnUse">
<stop offset="0" stop-color="#FC466B"/>
<stop offset="1" stop-color="#3F5EFB"/>
</linearGradient>
<clipPath id="clip0_1448_22337">
<rect width="429" height="323" fill="white" transform="translate(0.105469 0.326172)"/>
</clipPath>
</defs>
</svg>
