<svg width="391" height="276" viewBox="0 0 391 276" fill="none" xmlns="http://www.w3.org/2000/svg">
<path d="M190.704 179.868H167.578C166.679 179.868 165.938 179.126 165.938 178.227V170.811C165.938 169.912 166.679 169.17 167.578 169.17H190.704C191.603 169.17 192.344 169.912 192.344 170.811V178.227C192.367 179.148 191.625 179.868 190.704 179.868Z" fill="#E0E0FF"/>
<path d="M221.2 179.868H198.074C197.175 179.868 196.434 179.126 196.434 178.227V170.811C196.434 169.912 197.175 169.17 198.074 169.17H221.2C222.099 169.17 222.841 169.912 222.841 170.811V178.227C222.841 179.148 222.099 179.868 221.2 179.868Z" fill="#E0E0FF"/>
<path d="M235.001 193.734H211.875C210.976 193.734 210.234 192.992 210.234 192.093V184.677C210.234 183.778 210.976 183.036 211.875 183.036H235.001C235.9 183.036 236.641 183.778 236.641 184.677V192.093C236.641 192.992 235.922 193.734 235.001 193.734Z" fill="#E0E0FF"/>
<path d="M204.481 193.554H181.355C180.456 193.554 179.715 192.812 179.715 191.913V184.497C179.715 183.598 180.456 182.856 181.355 182.856H204.481C205.38 182.856 206.122 183.598 206.122 184.497V191.913C206.122 192.812 205.38 193.554 204.481 193.554Z" fill="#E0E0FF"/>
<path d="M190.817 207.218H167.691C166.792 207.218 166.051 206.476 166.051 205.578V198.161C166.051 197.262 166.792 196.521 167.691 196.521H190.817C191.716 196.521 192.458 197.262 192.458 198.161V205.578C192.458 206.476 191.716 207.218 190.817 207.218Z" fill="#E0E0FF"/>
<path d="M252.867 7.05664H59.0742V147.879H252.867V7.05664Z" fill="white"/>
<path d="M253.136 148.149H58.7812V6.78711H253.136V148.149ZM59.3431 147.587H252.575V7.34896H59.3431V147.587Z" fill="#A1B5E6"/>
<path opacity="0.6" d="M252.601 7.05664H59.3242V13.3718H252.601V7.05664Z" fill="#E0E0FF"/>
<path d="M261.319 0.269531H50.625V7.86574H261.319V0.269531Z" fill="white"/>
<path d="M261.588 8.15807H50.332V0H261.588V8.15807ZM50.8939 7.59622H261.026V0.56185H50.8939V7.59622Z" fill="#A1B5E6"/>
<path d="M167.463 83.356H145.596V75.8721C142.09 72.7483 140.09 68.2984 140.09 63.6013C140.09 54.5443 147.461 47.1729 156.518 47.1729C165.575 47.1729 172.947 54.5443 172.947 63.6013C172.947 68.2759 170.947 72.7483 167.441 75.8721V83.356H167.463ZM146.158 82.7941H166.901V75.6249L166.991 75.535C170.43 72.5235 172.385 68.1636 172.385 63.6013C172.385 54.859 165.261 47.7347 156.518 47.7347C147.776 47.7347 140.652 54.859 140.652 63.6013C140.652 68.1636 142.629 72.501 146.045 75.535L146.135 75.6249V82.7941H146.158Z" fill="#A1B5E6"/>
<path d="M167.465 90.0753H145.598V86.502H167.465V90.0753ZM146.16 89.5135H166.903V87.0638H146.16V89.5135Z" fill="#A1B5E6"/>
<path d="M167.465 95.2902H145.598V91.7168H167.465V95.2902ZM146.16 94.7283H166.903V92.2786H146.16V94.7283Z" fill="#A1B5E6"/>
<path d="M158.206 83.3561H154.857L153.711 60.5H159.352L158.206 83.3561ZM155.396 82.7942H157.666L158.768 61.0619H154.295L155.396 82.7942Z" fill="#A1B5E6"/>
<path d="M156.886 42.5437C157.506 42.5437 158.01 42.0405 158.01 41.4198C158.01 40.7991 157.506 40.2959 156.886 40.2959C156.265 40.2959 155.762 40.7991 155.762 41.4198C155.762 42.0405 156.265 42.5437 156.886 42.5437Z" fill="#CBCBFF"/>
<path d="M130.745 69.3777C131.366 69.3777 131.869 68.8745 131.869 68.2538C131.869 67.6331 131.366 67.1299 130.745 67.1299C130.124 67.1299 129.621 67.6331 129.621 68.2538C129.621 68.8745 130.124 69.3777 130.745 69.3777Z" fill="#CBCBFF"/>
<path d="M182.167 69.3777C182.788 69.3777 183.291 68.8745 183.291 68.2538C183.291 67.6331 182.788 67.1299 182.167 67.1299C181.546 67.1299 181.043 67.6331 181.043 68.2538C181.043 68.8745 181.546 69.3777 182.167 69.3777Z" fill="#CBCBFF"/>
<path d="M156.749 107.021C157.37 107.021 157.873 106.518 157.873 105.897C157.873 105.277 157.37 104.773 156.749 104.773C156.128 104.773 155.625 105.277 155.625 105.897C155.625 106.518 156.128 107.021 156.749 107.021Z" fill="#CBCBFF"/>
<path d="M134.546 50.5671C135.166 50.5671 135.67 50.0639 135.67 49.4432C135.67 48.8225 135.166 48.3193 134.546 48.3193C133.925 48.3193 133.422 48.8225 133.422 49.4432C133.422 50.0639 133.925 50.5671 134.546 50.5671Z" fill="#CBCBFF"/>
<path d="M134.299 49.5552L129.175 39.1722H108.477V38.6104H129.535L134.794 49.308L134.299 49.5552Z" fill="#CBCBFF"/>
<path d="M76.7652 39.0371H72.4727V47.4649H76.7652V39.0371Z" fill="#CBCBFF"/>
<path d="M83.8003 34.9248H79.5078V47.4653H83.8003V34.9248Z" fill="#CBCBFF"/>
<path d="M90.8355 37.3965H86.543V47.4648H90.8355V37.3965Z" fill="#CBCBFF"/>
<path d="M97.8707 32.0029H93.5781V47.465H97.8707V32.0029Z" fill="#CBCBFF"/>
<path d="M104.902 24.9688H100.609V47.4652H104.902V24.9688Z" fill="#CBCBFF"/>
<path d="M178.37 49.2868C178.991 49.2868 179.494 48.7837 179.494 48.163C179.494 47.5422 178.991 47.0391 178.37 47.0391C177.749 47.0391 177.246 47.5422 177.246 48.163C177.246 48.7837 177.749 49.2868 178.37 49.2868Z" fill="#CBCBFF"/>
<path d="M178.638 48.2975L178.121 48.0502L184.099 35.5322H203.09V36.0941H184.459L178.638 48.2975Z" fill="#CBCBFF"/>
<path d="M234.735 43.937H208.508C206.889 43.937 205.586 42.6111 205.586 41.0154V25.8005C205.586 24.1824 206.889 22.8789 208.508 22.8789H234.735C236.353 22.8789 237.656 24.2049 237.656 25.8005V41.0154C237.679 42.6111 236.353 43.937 234.735 43.937ZM208.53 23.4183C207.227 23.4183 206.17 24.4746 206.17 25.7781V40.993C206.17 42.2964 207.227 43.3527 208.53 43.3527H234.757C236.061 43.3527 237.117 42.2964 237.117 40.993V25.7781C237.117 24.4746 236.061 23.4183 234.757 23.4183H208.53Z" fill="#CBCBFF"/>
<path d="M232.869 27.3516H210.395V27.9134H232.869V27.3516Z" fill="#CBCBFF"/>
<path d="M226.598 31.1943H210.395V31.7562H226.598V31.1943Z" fill="#CBCBFF"/>
<path d="M230.149 35.0381H210.395V35.5999H230.149V35.0381Z" fill="#CBCBFF"/>
<path d="M232.869 38.8584H210.395V39.4202H232.869V38.8584Z" fill="#CBCBFF"/>
<path d="M178.015 98.3699C178.635 98.3699 179.138 97.8667 179.138 97.246C179.138 96.6253 178.635 96.1221 178.015 96.1221C177.394 96.1221 176.891 96.6253 176.891 97.246C176.891 97.8667 177.394 98.3699 178.015 98.3699Z" fill="#CBCBFF"/>
<path d="M202.737 109.877H183.724L177.746 97.3585L178.263 97.1113L184.084 109.315H202.737V109.877Z" fill="#CBCBFF"/>
<path d="M225.341 120.327C223.184 120.327 221.026 119.9 218.959 119.023C210.688 115.517 206.823 105.921 210.329 97.6502C213.835 89.3798 223.431 85.5143 231.702 89.0202C236.017 90.8406 239.343 94.4589 240.804 98.9088C242.04 102.662 241.882 106.73 240.332 110.371C239.478 112.371 238.286 114.124 236.758 115.652C233.634 118.708 229.522 120.327 225.341 120.327ZM225.364 88.3011C219.229 88.3011 213.408 91.8969 210.868 97.875C207.475 105.853 211.228 115.113 219.206 118.506C225.072 121.001 231.814 119.72 236.376 115.247C237.859 113.787 239.028 112.079 239.837 110.168C241.343 106.662 241.5 102.729 240.287 99.0886C238.871 94.7736 235.657 91.3126 231.499 89.5371C229.477 88.7056 227.409 88.3011 225.364 88.3011Z" fill="#CBCBFF"/>
<path d="M240.085 110.281C239.231 112.281 238.017 114.034 236.556 115.472L225.477 104.191L240.557 99.0215C241.725 102.572 241.658 106.55 240.085 110.281Z" fill="#CBCBFF"/>
<path d="M134.327 98.2117C134.948 98.2117 135.451 97.7085 135.451 97.0878C135.451 96.4671 134.948 95.9639 134.327 95.9639C133.706 95.9639 133.203 96.4671 133.203 97.0878C133.203 97.7085 133.706 98.2117 134.327 98.2117Z" fill="#CBCBFF"/>
<path d="M128.592 109.741H109.602V109.179H128.233L134.076 96.9756L134.57 97.2228L128.592 109.741Z" fill="#CBCBFF"/>
<path d="M103.78 96.2562H75.3281V78.8389H103.803V96.2562H103.78ZM75.89 95.6944H103.241V79.4007H75.89V95.6944Z" fill="#CBCBFF"/>
<path d="M100.679 83.2891H78.4297V83.8509H100.679V83.2891Z" fill="#F5F5FF"/>
<path d="M100.679 87.2666H78.4297V87.8285H100.679V87.2666Z" fill="#F5F5FF"/>
<path d="M100.679 91.2451H78.4297V91.807H100.679V91.2451Z" fill="#F5F5FF"/>
<path d="M80.9035 93.02L78.9258 89.1994L77.7122 92.7054L77.1953 92.5256L78.8134 87.7611L80.9035 91.8064L85.286 83.5135L88.0727 90.6153L90.2977 85.3789L94.5452 89.9186L99.0625 82.0977L99.5345 82.3673L94.6576 90.84L90.4774 86.3902L88.0503 92.0986L85.2185 84.862L80.9035 93.02Z" fill="#CBCBFF"/>
<path d="M103.78 120.978H75.3281V103.561H103.803V120.978H103.78ZM75.89 120.416H103.241V104.122H75.89V120.416Z" fill="#CBCBFF"/>
<path d="M100.679 108.011H78.4297V108.573H100.679V108.011Z" fill="#F5F5FF"/>
<path d="M100.679 111.988H78.4297V112.55H100.679V111.988Z" fill="#F5F5FF"/>
<path d="M100.679 115.967H78.4297V116.529H100.679V115.967Z" fill="#F5F5FF"/>
<path d="M94.7929 116.55L91.0173 113.426L87.354 116.528L85.0617 112.145L83.039 116.393L78.1172 107.943L78.6116 107.651L82.9716 115.202L85.0392 110.887L87.5113 115.651L91.0173 112.685L94.5232 115.606L97.1976 107.381L100.052 116.056L99.5349 116.236L97.1976 109.179L94.7929 116.55Z" fill="#CBCBFF"/>
<path d="M20.3175 117.004C20.3175 117.004 15.5817 108.311 53.0903 110.267L73.9457 177.814L38.6382 177.258L20.3175 117.004Z" fill="#E0E0FF"/>
<path d="M32.904 270.641H27.5234L40.3079 178.748H47.3561L32.904 270.641Z" fill="#E0E0FF"/>
<path d="M95.5145 270.641H100.895L88.1107 178.748H81.0625L95.5145 270.641Z" fill="#E0E0FF"/>
<path d="M95.1387 174.835H41.4883V180.393H95.1387V174.835Z" fill="#CBCBFF"/>
<path d="M41.4859 174.835L25.5219 115.648C25.0995 114.114 23.4319 113.269 21.9423 113.847C20.6749 114.336 19.9857 115.692 20.297 117.004L34.8157 175.101C35.5717 178.17 38.3064 180.326 41.4637 180.393V174.835H41.4859Z" fill="#CBCBFF"/>
<path d="M344.653 270.617H349.733L337.664 177.732H331.012L344.653 270.617Z" fill="#E0E0FF"/>
<path d="M285.481 270.617H280.402L292.493 177.732H299.146L285.481 270.617Z" fill="#E0E0FF"/>
<path d="M277.33 179.384H352.82V173.765H277.33V179.384Z" fill="#CBCBFF"/>
<path d="M352.813 173.777H277.301C285.054 159.057 288.875 139.235 290.65 117.143C291.055 112.086 295.302 108.176 300.382 108.176H329.733C334.834 108.176 339.082 112.109 339.464 117.188C341.172 139.932 345.06 159.709 352.813 173.777Z" fill="#E0E0FF"/>
<path d="M68.8616 64.1987C68.8616 64.1987 47.7172 76.6275 60.5017 84.9652L71.7965 89.2341L75.5096 71.6249C74.3534 67.0669 72.508 63.8875 68.8616 64.1987Z" fill="#5F5F6C"/>
<path d="M68.3482 65.622C67.2587 66 66.2137 66.4669 65.191 66.9782C64.1682 67.4896 63.1455 68.0232 62.1894 68.6458C60.255 69.8687 58.4319 71.2916 57.0534 73.0926C56.3641 73.9819 55.786 74.9825 55.4303 76.0275C55.0523 77.0947 54.9189 78.2286 54.9856 79.3403C55.0523 80.452 55.2969 81.5859 55.7416 82.6309C55.9194 83.1646 56.2085 83.6759 56.453 84.1873C56.7199 84.6987 57.0311 85.1656 57.3202 85.677L57.1423 85.8104C55.8083 83.9427 54.6743 81.7638 54.5187 79.3848C54.4298 78.2064 54.5632 77.0057 54.9411 75.8718C55.3191 74.7379 55.9194 73.6929 56.6309 72.7591C58.0761 70.8914 59.966 69.424 61.9671 68.2456C63.9681 67.0672 66.1026 66.1111 68.326 65.4219L68.3482 65.622Z" fill="#5F5F6C"/>
<path d="M144.135 257.011C142.823 255.9 141.556 254.788 140.333 253.565C139.288 252.52 138.266 251.453 137.287 250.363C136.976 250.03 136.242 249.474 136.087 249.029L124.48 252.92L128.527 270.618L130.75 270.641L130.951 262.347C134.508 264.104 138.221 265.727 142.156 266.461C144.58 266.905 147.715 267.105 150.027 266.105C155.786 263.637 145.692 258.323 144.135 257.011Z" fill="#5F5F6C"/>
<path d="M133.554 241.825L122.859 245.85L124.482 252.92L136.089 249.029L133.554 241.825Z" fill="#FFBC96"/>
<path d="M86.9954 140.817L113.743 149.666C118.167 151.133 121.88 154.201 124.148 158.27C125.304 160.338 126.06 162.606 126.349 164.963L136.733 244.782L120.613 247.562L98.6459 166.408L68.9414 152.778L74.2331 138.06L86.9954 140.817Z" fill="#B5C7F1"/>
<path d="M79.6859 266.149C75.6171 264.504 72.5043 253.609 72.5043 253.609L60.6759 250.341L53.8945 266.95L55.7177 268.239L60.6536 261.569L72.6822 270.64H82.1983C82.1761 270.64 83.7547 267.772 79.6859 266.149Z" fill="#5F5F6C"/>
<path d="M74.572 246.25L63.4995 243.404L60.6758 250.319L72.5042 253.61L74.572 246.25Z" fill="#FFBC96"/>
<path d="M103.006 175.657L77.1922 248.762L74.1239 247.851L63.0292 244.538L61.6062 244.115L75.5024 175.39C59.7608 179.281 51.0229 175.035 47.8879 167.964C46.9986 165.985 46.5983 163.673 46.5316 161.25C46.2426 151.511 51.223 139.972 51.223 139.972L66.142 141.083L93.5786 153.534C96.2912 154.779 98.6035 156.647 100.36 158.937C102.116 161.227 103.295 163.962 103.784 166.919C104.273 169.854 103.984 172.856 103.006 175.657Z" fill="#A1B5E6"/>
<path opacity="0.6" d="M75.502 175.391C59.7604 179.282 51.0225 175.035 47.8875 167.965C46.9982 165.986 46.598 163.673 46.5312 161.25C54.7356 175.68 75.502 175.391 75.502 175.391Z" fill="#A8BCEE"/>
<path d="M65.4364 80.4961L48.6497 119.294L53.0965 126.387C53.0965 126.387 48.583 136.615 46.0039 143.752C46.0039 143.752 75.6862 152.134 101.255 145.753L97.0085 123.874L95.2076 90.3902L84.5575 80.7407L65.4364 80.4961Z" fill="#FFB147"/>
<path d="M91.0731 130.167L88.6273 130.5L83.6914 111.446L85.648 110.912L91.0731 130.167Z" fill="#5F5F6C"/>
<path d="M117.972 121.206C113.681 120.561 109.79 119.16 109.79 119.16L103.387 93.7471C102.164 88.9223 98.5843 85.0758 93.8485 83.5195L85.6886 81.1849C85.2884 81.0737 84.9104 80.9181 84.5547 80.7402L92.092 131.456C92.092 131.456 104.988 132.745 114.259 132.99C114.015 128.543 115.704 123.452 117.972 121.206Z" fill="#FFB147"/>
<path d="M131.846 120.361C127.332 119.805 123.975 121.384 123.975 121.384C122.13 121.65 120.017 121.517 117.972 121.206C116.26 123.74 113.125 128.899 113.347 133.323C115.282 133.368 120.262 133.19 121.485 133.123C128.511 132.634 134.959 125.408 134.959 125.408C134.959 125.408 140.095 130.477 140.517 128.12C140.939 125.764 136.359 120.917 131.846 120.361Z" fill="#FFBC96"/>
<path d="M109.197 129.944H78.8477V132.501H109.197V129.944Z" fill="white"/>
<path d="M68.9482 132.345C68.9482 132.345 81.9328 134.146 84.5786 131.723C84.5786 131.723 87.7136 131.79 88.4696 129.989C88.4696 129.989 89.648 129.233 90.2038 127.699C90.2038 127.699 91.3155 125.898 90.9598 124.719L86.5797 122.496C86.5797 122.496 86.5574 122.34 86.513 122.118C86.3351 121.117 85.4902 120.406 84.4897 120.384L76.9302 120.272C76.2409 120.272 75.5517 120.384 74.9069 120.628L67.125 123.519L68.9482 132.345Z" fill="#FFBC96"/>
<path d="M59.2116 100.952L51.4298 118.316L75.8871 120.273C68.6611 123.741 68.9501 132.368 68.9501 132.368L46.7606 132.946C43.8925 133.013 41.1355 131.879 39.1789 129.789C37.3779 127.877 36.4219 125.387 36.4219 122.852C36.4219 121.785 36.5997 120.717 36.9333 119.695L46.0269 92.2136C47.4944 87.789 51.0963 84.4095 55.6097 83.2533L64.5033 80.9632C64.8368 80.8298 65.1703 80.6742 65.4594 80.5186L59.2116 100.952Z" fill="#FFB147"/>
<path d="M90.1438 127.787C89.0766 127.342 88.0538 126.809 87.0533 126.275C86.0528 125.719 85.0744 125.141 84.1406 124.452L84.2518 124.252C85.319 124.697 86.3418 125.208 87.3423 125.764C88.3428 126.32 89.3211 126.92 90.255 127.587L90.1438 127.787Z" fill="#D28572"/>
<path d="M88.4341 130.099C87.4336 129.833 86.4775 129.477 85.5214 129.099C84.5654 128.721 83.6315 128.298 82.7422 127.787L82.8311 127.587C83.8317 127.831 84.7877 128.187 85.7438 128.587C86.6998 128.988 87.6337 129.388 88.523 129.899L88.4341 130.099Z" fill="#D28572"/>
<path d="M84.5219 131.834C84.0104 131.723 83.5212 131.523 83.0542 131.3C82.5872 131.078 82.1425 130.833 81.7422 130.477L81.8311 130.277C82.3648 130.389 82.8318 130.566 83.2988 130.811C83.7658 131.056 84.2106 131.3 84.6109 131.634L84.5219 131.834Z" fill="#D28572"/>
<path d="M50.4973 132.946C50.3416 132.946 50.2305 132.835 50.2305 132.679C50.2305 132.524 50.3416 132.39 50.4973 132.39L68.6624 132.079C68.6402 125.12 72.998 121.673 74.8879 120.495L74.9101 120.162L74.8879 120.428L53.4099 118.272L58.8572 97.9498C58.9017 97.7942 59.0573 97.7053 59.1907 97.7497C59.3464 97.7942 59.4353 97.9498 59.3908 98.0832L54.0992 117.782L74.9324 119.872C75.1769 119.895 75.3993 120.073 75.4437 120.317C75.5104 120.562 75.3993 120.806 75.1769 120.94C73.3315 122.074 69.0848 125.453 69.2182 132.323V132.613L50.4973 132.946Z" fill="#5F5F6C"/>
<path d="M98.5485 129.988C98.4151 129.988 98.2817 129.877 98.2817 129.744L95.5024 97.0823C95.4802 96.9266 95.6136 96.7932 95.747 96.771C95.9026 96.7488 96.0361 96.8822 96.0583 97.0156L98.8375 129.677C98.8598 129.833 98.7264 129.966 98.5929 129.988C98.5485 129.988 98.5485 129.988 98.5485 129.988Z" fill="#5F5F6C"/>
<path d="M114.236 134.013C114.103 134.013 113.991 133.924 113.969 133.791C112.88 127.877 117.549 121.318 117.749 121.051C117.838 120.917 118.016 120.895 118.127 120.984C118.26 121.073 118.283 121.251 118.194 121.362C118.149 121.429 113.48 128.01 114.503 133.68C114.525 133.835 114.436 133.969 114.281 134.013C114.258 134.013 114.258 134.013 114.236 134.013Z" fill="#5F5F6C"/>
<path d="M79.6477 96.3715C80.4951 96.3715 81.1821 95.6846 81.1821 94.8371C81.1821 93.9897 80.4951 93.3027 79.6477 93.3027C78.8003 93.3027 78.1133 93.9897 78.1133 94.8371C78.1133 95.6846 78.8003 96.3715 79.6477 96.3715Z" fill="#5F5F6C"/>
<path d="M84.556 80.7406C83.889 84.7871 81.1542 90.1233 76.9075 88.0333C73.7948 86.4991 68.592 82.4748 65.457 80.496C74.0838 75.9825 69.8371 64.1985 69.7037 63.8428L80.2426 67.7337C80.2426 67.7337 80.2426 67.8004 80.2426 67.9116C80.2648 68.7565 80.3982 72.2472 80.9985 75.4044C81.0875 75.8046 81.1542 76.1826 81.2431 76.5606C81.71 78.3838 82.9107 79.8957 84.556 80.7406Z" fill="#FFBC96"/>
<path d="M81.0015 75.4046C74.8205 73.9816 73.3086 67.5783 73.3086 67.4004L80.2456 67.934C80.2678 68.7567 80.4012 72.2474 81.0015 75.4046Z" fill="#D28572"/>
<path d="M85.5348 57.3057C85.5348 57.3057 86.6465 69.8901 80.8879 70.9129C75.2183 71.9357 68.8594 64.176 68.8594 64.176L69.8377 52.5699L76.3077 48.3232C80.8879 50.2131 83.8673 52.7923 85.5348 57.3057Z" fill="#FFBC96"/>
<path d="M69.1481 61.6859C72.2164 60.6409 73.328 57.9951 74.084 54.3932C75.2624 48.8347 83.2444 53.2815 85.5567 57.3058C85.5567 57.3058 86.8018 46.0555 75.2846 46.2556C75.2846 46.2556 61.8776 46.7447 65.9019 60.9077L69.1481 61.6859Z" fill="#5F5F6C"/>
<path d="M70.6332 65.8086C72.016 64.8722 72.1434 62.646 70.9179 60.8362C69.6923 59.0264 67.5779 58.3184 66.1951 59.2547C64.8124 60.1911 64.6849 62.4173 65.9105 64.2271C67.136 66.0369 69.2505 66.745 70.6332 65.8086Z" fill="#FFBC96"/>
<path d="M83.332 59.9965C83.332 60.3968 83.6656 60.7304 84.0659 60.7304C84.4662 60.7304 84.7997 60.3968 84.7997 59.9965C84.7997 59.5963 84.4662 59.2627 84.0659 59.2627C83.6656 59.2627 83.332 59.5963 83.332 59.9965Z" fill="#5F5F6C"/>
<path d="M77.5117 60.1518C77.5117 60.5521 77.8453 60.8857 78.2456 60.8857C78.6458 60.8857 78.9794 60.5521 78.9794 60.1518C78.9794 59.7515 78.6458 59.418 78.2456 59.418C77.8453 59.418 77.5117 59.7515 77.5117 60.1518Z" fill="#5F5F6C"/>
<path d="M81.531 64.7321C81.3976 64.7321 81.2642 64.6209 81.2642 64.4653C81.2419 64.3096 81.3753 64.1762 81.5088 64.1762C81.7311 64.1539 82.376 64.065 82.7318 63.7981C82.8653 63.7092 82.9097 63.598 82.9097 63.4646C82.9097 62.9976 82.3316 62.286 81.5755 61.7745C81.4421 61.6855 81.4198 61.5076 81.5088 61.3964C81.5977 61.263 81.7756 61.2408 81.8868 61.3297C82.6651 61.8412 83.4435 62.7085 83.4657 63.4646C83.4657 63.7981 83.3323 64.065 83.0654 64.2651C82.4872 64.6654 81.5755 64.7321 81.531 64.7321Z" fill="#D28572"/>
<path d="M85.4249 58.3731C85.1803 58.3064 84.9579 58.2619 84.7355 58.2175C84.5131 58.1952 84.313 58.173 84.0906 58.1952C83.8905 58.2175 83.6681 58.2619 83.4457 58.3287C83.2233 58.3954 83.0009 58.4621 82.7341 58.5288H82.7119C82.6229 58.551 82.534 58.4843 82.5117 58.3954C82.5117 58.3509 82.5117 58.3064 82.534 58.2619C82.6896 58.0173 82.8898 57.7949 83.1566 57.6393C83.4012 57.4836 83.7126 57.3947 84.0239 57.3502C84.3352 57.3279 84.6688 57.3724 84.9356 57.5059C85.2247 57.6393 85.4693 57.8172 85.625 58.084C85.6695 58.173 85.6472 58.2619 85.5805 58.3064C85.536 58.3286 85.4916 58.3287 85.4471 58.3287L85.4249 58.3731Z" fill="#5F5F6C"/>
<path d="M76.3487 58.3507C76.5488 58.0616 76.8157 57.8837 77.127 57.728C77.4384 57.5723 77.7719 57.4834 78.1277 57.4834C78.4835 57.4834 78.8616 57.5723 79.1507 57.7725C79.462 57.9504 79.6844 58.2172 79.84 58.5286C79.8845 58.6175 79.84 58.7065 79.7733 58.7509C79.7288 58.7732 79.6844 58.7732 79.6399 58.7509H79.6177C79.3286 58.6398 79.1062 58.5063 78.8616 58.4396C78.617 58.3729 78.3946 58.3284 78.15 58.3284C77.6607 58.3062 77.127 58.4619 76.5711 58.6175H76.5488C76.4599 58.6398 76.3709 58.5953 76.3487 58.5063C76.3265 58.4396 76.3265 58.3951 76.3487 58.3507Z" fill="#5F5F6C"/>
<path opacity="0.4" d="M76.0407 65.0883C77.0233 65.0883 77.8198 64.2918 77.8198 63.3093C77.8198 62.3268 77.0233 61.5303 76.0407 61.5303C75.0582 61.5303 74.2617 62.3268 74.2617 63.3093C74.2617 64.2918 75.0582 65.0883 76.0407 65.0883Z" fill="#FE5B52"/>
<path d="M80.6022 66.9106C79.5125 66.9106 78.8899 66.3546 78.8677 66.3324C78.7565 66.2212 78.7565 66.0433 78.8454 65.9321C78.9566 65.8209 79.1345 65.8209 79.2457 65.9099C79.2902 65.9543 80.0907 66.6437 81.5584 66.199C81.7141 66.1545 81.8697 66.2434 81.9142 66.3769C81.9587 66.5325 81.8697 66.6882 81.7363 66.7327C81.2916 66.8661 80.9358 66.9106 80.6022 66.9106Z" fill="#5F5F6C"/>
<path d="M70.1908 63.5761C70.0796 63.5761 69.9906 63.5093 69.9462 63.4204C69.9017 63.3092 68.7898 60.8186 66.9441 61.5747C66.8106 61.6414 66.6327 61.5747 66.5883 61.419C66.5215 61.2856 66.5883 61.1077 66.7439 61.0632C68.6119 60.2849 69.9906 62.1306 70.4576 63.198C70.5243 63.3314 70.4576 63.5093 70.3242 63.5538C70.2575 63.5538 70.213 63.5761 70.1908 63.5761Z" fill="#5F5F6C"/>
<path d="M78.7547 88.7669C78.1099 88.7669 77.4429 88.6113 76.7759 88.2778C74.7971 87.2995 72.0623 85.3874 69.4387 83.542C67.9045 82.4747 66.4593 81.452 65.3032 80.7183C65.1698 80.6293 65.1253 80.4737 65.2142 80.3403C65.3032 80.2069 65.4588 80.1624 65.5922 80.2513C66.7706 80.9851 68.2158 82.0078 69.75 83.0751C72.3736 84.9205 75.0861 86.8103 77.0205 87.7664C78.1544 88.3223 79.2661 88.3445 80.2666 87.8331C82.4011 86.7437 83.8018 83.453 84.2687 80.6738C84.2909 80.5182 84.4243 80.407 84.58 80.4515C84.7356 80.4737 84.8246 80.6293 84.8023 80.7627C84.3132 83.6754 82.8013 87.1216 80.5112 88.3223C79.9553 88.6335 79.3773 88.7669 78.7547 88.7669Z" fill="#5F5F6C"/>
<path d="M285.963 158.456C285.674 161.509 285.324 164.623 284.932 167.779C281.797 193.932 276.104 223.406 269.463 254.097C259.789 258.449 254.633 256.551 254.633 256.551C261.604 221.735 264.43 160.89 264.43 160.89L285.963 158.456Z" fill="#FFBC96"/>
<path d="M254.651 256.572C254.651 256.572 240.213 264.946 240.46 270.494H259.663L263.911 267.276L264.943 270.618H270.615C270.615 270.618 271.894 265.461 269.46 254.117C259.807 258.449 254.651 256.572 254.651 256.572Z" fill="#5F5F6C"/>
<path d="M285.963 158.456C285.674 161.509 285.323 164.623 284.932 167.779C273.773 167.016 264.43 160.89 264.43 160.89L285.963 158.456Z" fill="#D28572"/>
<path d="M320.816 254.118L312.648 260.306L307.017 256.572C307.017 256.572 298.561 187.559 292.414 163.922C291.919 162.066 291.465 160.478 291.012 159.24L310.854 162.334C311.349 164.562 311.823 166.81 312.256 169.058C317.825 197.212 319.867 225.613 320.816 254.118Z" fill="#FFBC96"/>
<path d="M307.016 256.572C307.016 256.572 293.568 264.946 293.816 270.494H311.698L315.658 267.276L316.628 270.618H321.908C321.908 270.618 323.104 265.461 320.835 254.117C311.801 258.449 307.016 256.572 307.016 256.572Z" fill="#5F5F6C"/>
<path d="M312.237 169.058C302.439 168.914 292.539 164.025 292.539 164.025L292.395 163.943C291.9 162.086 291.446 160.498 290.992 159.261L310.834 162.355C311.329 164.562 311.803 166.81 312.237 169.058Z" fill="#D28572"/>
<path d="M261.784 201.13C263.971 201.481 266.157 201.811 268.364 202.161C268.694 202.203 268.838 201.708 268.508 201.666C266.322 201.316 264.136 200.986 261.929 200.635C261.599 200.573 261.454 201.089 261.784 201.13Z" fill="#D28572"/>
<path d="M300.521 204.637C302.542 204.678 304.564 204.719 306.585 204.76C306.915 204.76 306.915 204.245 306.585 204.245C304.564 204.204 302.542 204.162 300.521 204.121C300.191 204.121 300.191 204.637 300.521 204.637Z" fill="#D28572"/>
<path d="M234.145 64.7545C234.145 64.7545 235.774 56.628 248.376 53.5342L242.147 65.002L234.145 64.7545Z" fill="#5F5F6C"/>
<path d="M243.244 46.0882C243.058 47.6351 242.522 49.3058 241.656 49.3058C240.79 49.3058 240.522 47.9238 240.604 46.0263C240.728 42.8912 241.223 42.3549 242.089 42.3549C242.935 42.3343 243.636 43.015 243.244 46.0882Z" fill="#FFBC96"/>
<path d="M234.188 38.5396L235.92 40.5403L253.679 47.6974C254.297 47.9449 255.019 47.6561 255.267 47.0167C255.514 46.398 255.226 45.6761 254.586 45.4286L236.828 38.2715L234.188 38.5396Z" fill="#5F5F6C"/>
<path d="M248.353 53.5349L245.775 59.475L238.474 63.5589C237.711 61.6407 237.195 59.7432 236.803 58.0106C235.751 53.2874 235.854 49.6779 235.854 49.6779L243.115 46.7491L243.28 42.9746C243.671 37.7563 245.775 39.8601 246.312 43.5521C247.302 50.441 248.353 53.5349 248.353 53.5349Z" fill="#FFBC96"/>
<path d="M248.355 53.5342L245.777 59.4743L238.475 63.5582C237.712 61.64 237.197 59.7425 236.805 58.0099L248.355 53.5342Z" fill="#D28572"/>
<path d="M240.969 46.7694C240.742 48.3163 240.144 49.987 239.154 49.987C238.185 49.987 237.876 48.605 237.958 46.7075C238.082 43.5724 238.659 43.0361 239.649 43.0361C240.619 43.0361 241.403 43.6962 240.969 46.7694Z" fill="#FFBC96"/>
<path d="M238.64 48.2547C238.393 49.8016 237.733 51.4723 236.66 51.4723C235.588 51.4723 235.258 50.0904 235.34 48.1928C235.485 45.0577 236.124 44.5215 237.196 44.5215C238.269 44.5215 239.135 45.1815 238.64 48.2547Z" fill="#FFBC96"/>
<path d="M240.974 50.1521C240.624 50.1108 240.232 49.6983 240.046 48.1927C240.026 48.0483 240.108 47.9245 240.211 47.8833C240.335 47.8626 240.417 47.9452 240.438 48.0895C240.562 49.1002 240.789 49.6777 241.077 49.6158C241.717 49.4714 242.707 46.8726 242.521 44.7894C242.501 44.6451 242.583 44.5213 242.707 44.5007C242.831 44.4801 242.913 44.5832 242.934 44.7069C243.119 46.8726 242.129 49.9046 241.139 50.1108C241.077 50.1521 241.036 50.1521 240.974 50.1521Z" fill="#D28572"/>
<path d="M238.558 50.8741C238.434 50.8535 238.145 50.7916 237.898 50.4822C237.444 49.9047 237.382 48.8115 237.712 47.244C237.733 47.0996 237.877 47.0171 238.001 47.0377C238.125 47.0584 238.207 47.2027 238.187 47.3471C237.815 49.1622 238.084 49.8841 238.269 50.1316C238.434 50.3584 238.62 50.3584 238.62 50.3584C238.929 50.3584 239.177 50.2347 239.383 50.0078C240.291 48.9765 240.167 46.1921 240.167 46.1715C240.167 46.0271 240.27 45.9033 240.394 45.9033C240.517 45.9033 240.641 46.0065 240.641 46.1508C240.641 46.2746 240.786 49.1828 239.734 50.3791C239.424 50.7297 239.053 50.8947 238.62 50.8947C238.599 50.8741 238.579 50.8741 238.558 50.8741Z" fill="#D28572"/>
<path d="M235.877 51.205C235.836 51.205 235.795 51.205 235.774 51.1844C235.547 51.1431 235.362 51.0194 235.217 50.8131C234.681 49.9879 235.011 48.0075 235.052 47.8012C235.073 47.6568 235.217 47.5743 235.341 47.5949C235.465 47.6156 235.547 47.76 235.527 47.9044C235.424 48.4407 235.238 49.9879 235.609 50.5243C235.671 50.6274 235.754 50.6687 235.836 50.6893C236.579 50.8131 237.095 50.318 237.528 49.1215C237.569 48.9977 237.713 48.9152 237.837 48.9771C237.961 49.039 238.023 49.1834 237.982 49.3071C237.796 49.8022 237.239 51.3288 235.877 51.205Z" fill="#D28572"/>
<path d="M314.467 76.7378L297.059 59.2061L284.291 59.4536L270.699 108.295L315.003 110.461C315.56 97.8171 315.498 86.4318 314.467 76.7378Z" fill="white"/>
<path d="M270.696 108.315L267.272 120.567C267.272 136.036 264.426 160.787 264.426 160.787C282.205 167.222 310.833 162.334 310.833 162.334C312.69 143.668 314.298 126.115 314.979 110.481L270.696 108.315Z" fill="#FFB147"/>
<path d="M291.179 68.9209C288.993 68.9209 286.827 68.2815 284.703 67.0027C284.558 66.9202 284.393 66.8171 284.352 66.7965C284.208 66.7965 284.125 66.6934 284.125 66.549C284.125 66.4046 284.269 66.3015 284.414 66.3015C284.538 66.3015 284.641 66.3634 284.971 66.5696C289.158 69.1066 293.51 69.024 297.944 66.3427C298.068 66.2602 298.233 66.3015 298.295 66.4252C298.377 66.549 298.336 66.714 298.212 66.7759C295.861 68.199 293.51 68.9209 291.179 68.9209Z" fill="#5F5F6C"/>
<path d="M290.313 164.314C274.287 164.314 264.49 161.097 264.346 161.035C264.201 160.994 264.139 160.849 264.181 160.705C264.222 160.561 264.366 160.499 264.511 160.54C264.696 160.602 283.094 166.645 310.794 162.087C310.939 162.066 311.062 162.149 311.083 162.293C311.104 162.437 311.021 162.561 310.877 162.582C303.266 163.84 296.356 164.314 290.313 164.314Z" fill="#5F5F6C"/>
<path d="M284.285 59.4537L277.252 59.5156C275.334 59.5362 273.416 59.99 271.704 60.8356L253.883 69.684L248.376 53.5342L234.145 64.7545L242.684 82.4512C244.107 85.3801 246.974 87.3189 250.232 87.5457C251.862 87.6489 253.471 87.3189 254.935 86.5763L268.445 79.708C268.445 79.708 269.352 109.491 262.773 126.899C262.773 126.899 276.427 131.024 285.977 126.776C285.956 126.755 292.412 77.7692 284.285 59.4537Z" fill="#A1B5E6"/>
<path d="M333.436 115.411C331.621 97.8791 325.763 80.2442 322.938 72.5303C321.989 69.9315 320.359 67.6214 318.214 65.8476C316.337 64.3007 314.151 63.2075 311.779 62.6506L297.011 59.1855C294.99 79.4399 297.341 103.077 300.229 127.126C300.229 127.126 322.401 126.095 329.496 121.722L333.436 115.411Z" fill="#A1B5E6"/>
<path d="M317.638 92.9914C317.514 92.9914 317.411 92.9089 317.39 92.7645L314.647 75.2328C314.627 75.0884 314.73 74.9647 314.853 74.944C314.998 74.9234 315.122 75.0265 315.142 75.1503L317.885 92.682C317.906 92.8264 317.803 92.9502 317.679 92.9708C317.659 92.9708 317.638 92.9914 317.638 92.9914Z" fill="#5F5F6C"/>
<path d="M326.412 121.289L305.621 114.194L314.676 88.082L335.466 95.1979L326.412 121.289Z" fill="white"/>
<path d="M326.575 121.598L305.289 114.338L305.372 114.091L314.509 87.752L335.794 95.0121L335.712 95.2597L326.575 121.598ZM305.949 114.029L326.265 120.959L335.155 95.3422L314.839 88.412L305.949 114.029Z" fill="#5F5F6C"/>
<path d="M328.986 100.808C328.966 100.808 328.925 100.808 328.904 100.787L318.158 97.2605C318.014 97.2192 317.952 97.0749 317.993 96.9305C318.034 96.7861 318.179 96.7242 318.323 96.7655L329.069 100.292C329.213 100.334 329.275 100.478 329.234 100.622C329.193 100.726 329.09 100.808 328.986 100.808Z" fill="#5F5F6C"/>
<path d="M325.74 103.304C325.719 103.304 325.678 103.304 325.657 103.283L318.603 101.055C318.459 101.014 318.397 100.87 318.438 100.725C318.48 100.581 318.624 100.519 318.768 100.56L325.822 102.788C325.967 102.829 326.029 102.974 325.987 103.118C325.967 103.221 325.864 103.304 325.74 103.304Z" fill="#5F5F6C"/>
<path d="M329.693 91.1546L323.43 89.0088L322.246 92.4624L328.51 94.6082L329.693 91.1546Z" fill="#5F5F6C"/>
<path d="M262.357 82.9261C262.274 82.9261 262.171 82.8849 262.13 82.8024C262.068 82.6786 262.109 82.5136 262.233 82.4517L274.093 75.8722C274.217 75.8103 274.382 75.8516 274.443 75.9753C274.505 76.0991 274.464 76.2641 274.34 76.3259L262.481 82.9055C262.46 82.9261 262.419 82.9261 262.357 82.9261Z" fill="#5F5F6C"/>
<path d="M334.216 121.165C334.216 121.165 337.31 113.163 326.316 107.161C326.316 107.161 323.656 106.129 325.636 110.172C325.636 110.172 321.428 105.366 322.459 110.956C322.459 110.956 319.118 107.614 320.83 113.967C320.83 113.967 317.489 112.152 319.551 119.722C321.573 127.271 329.823 130.282 334.216 121.165Z" fill="#FFBC96"/>
<path d="M329.493 115.142C329.411 115.142 329.328 115.101 329.287 115.019C327.946 112.997 325.471 110.357 325.451 110.316C325.347 110.213 325.368 110.048 325.471 109.945C325.574 109.842 325.739 109.862 325.843 109.965C325.863 109.986 328.359 112.667 329.741 114.73C329.823 114.854 329.782 115.019 329.679 115.081C329.576 115.142 329.534 115.142 329.493 115.142Z" fill="#D28572"/>
<path d="M325.61 116.174C325.507 116.174 325.404 116.112 325.363 116.009C324.352 113.43 322.331 111.223 322.31 111.182C322.207 111.079 322.227 110.914 322.331 110.811C322.434 110.708 322.599 110.728 322.702 110.832C322.784 110.935 324.806 113.142 325.837 115.802C325.899 115.926 325.816 116.091 325.693 116.132C325.672 116.174 325.651 116.174 325.61 116.174Z" fill="#D28572"/>
<path d="M322.355 117.825C322.211 117.825 322.107 117.722 322.107 117.577C322.025 116.278 320.622 114.112 320.602 114.091C320.519 113.967 320.56 113.802 320.684 113.74C320.808 113.658 320.952 113.699 321.035 113.823C321.097 113.926 322.541 116.133 322.623 117.557C322.623 117.68 322.499 117.804 322.355 117.825Z" fill="#D28572"/>
<path d="M302.414 94.3526C302.291 94.3526 302.167 94.2495 302.167 94.1257C302.002 92.6613 301.816 91.0938 301.61 89.485C300.929 83.9573 300.228 78.2441 300.434 74.0571L300.455 73.9952L302.559 67.5806L298.578 60.9805C298.496 60.8567 298.537 60.6917 298.661 60.6298C298.784 60.5473 298.949 60.5886 299.011 60.7123L303.116 67.5188L300.95 74.1396C300.744 78.2853 301.445 83.9573 302.126 89.4437C302.332 91.0525 302.518 92.6201 302.683 94.0845C302.703 94.2289 302.6 94.3526 302.456 94.3733C302.435 94.3526 302.435 94.3526 302.414 94.3526Z" fill="#5F5F6C"/>
<path d="M282.823 94.6203C282.802 94.6203 282.781 94.6203 282.761 94.6203C282.616 94.5997 282.534 94.4553 282.554 94.3109C283.998 87.7314 284.246 81.0487 283.256 75.4592L279.172 68.9415L283.194 60.815C283.256 60.6913 283.421 60.6294 283.545 60.6913C283.668 60.7531 283.73 60.9182 283.668 61.0419L279.77 68.9002L283.771 75.3148C284.782 80.9662 284.535 87.752 283.091 94.4141C283.049 94.5378 282.946 94.6203 282.823 94.6203Z" fill="#5F5F6C"/>
<path d="M297.048 59.2058C294.738 63.8465 288.798 65.9091 284.281 59.4533C284.611 58.1951 284.983 56.9163 285.374 55.5963C286.076 53.08 286.756 50.4605 286.798 47.6967C286.818 47.2223 286.798 46.7273 286.777 46.2529L296.409 47.1604L297.048 59.2058Z" fill="#FFBC96"/>
<path d="M294.244 48.7697C294.244 48.7697 292.016 53.7404 285.375 55.6174C286.076 53.101 286.757 50.4816 286.798 47.7178L294.244 48.7697Z" fill="#D28572"/>
<path d="M299.23 37.1989L295.971 48.0273C295.971 48.0273 290.464 53.1218 285.06 50.523C283.595 49.8217 283.018 47.7179 282.894 45.2635C282.853 44.5829 282.853 43.8816 282.894 43.1597C283.059 38.9108 284.111 34.4557 284.111 34.4557L292.176 30.4131L299.23 37.1989Z" fill="#FFBC96"/>
<path d="M298.452 43.6545C298.452 43.6545 290.284 38.7456 289.521 33.9399C289.521 33.9399 287.788 34.3524 283.828 35.8168C283.828 35.8168 284.406 28.6391 292.326 27.8141C299.71 27.0715 308.599 33.0323 310.559 49.0171L296.802 56.3598L296.121 44.3351L298.452 43.6545Z" fill="#5F5F6C"/>
<path d="M298.73 44.8494C299.575 42.8937 299.072 40.7956 297.608 40.1633C296.144 39.531 294.272 40.6038 293.428 42.5595C292.583 44.5152 293.085 46.6132 294.55 47.2455C296.014 47.8778 297.885 46.805 298.73 44.8494Z" fill="#FFBC96"/>
<path d="M294.905 44.2529C294.864 44.2529 294.823 44.2322 294.782 44.2116C294.658 44.1291 294.617 43.9847 294.699 43.8609C294.72 43.8403 295.978 41.798 297.979 42.355C298.124 42.3963 298.186 42.5407 298.165 42.6644C298.124 42.8088 297.979 42.8914 297.855 42.8501C296.226 42.3963 295.153 44.1085 295.153 44.1291C295.091 44.2116 295.009 44.2529 294.905 44.2529Z" fill="#5F5F6C"/>
<path d="M284.998 41.1378C284.998 41.5091 284.689 41.8186 284.317 41.8186C283.946 41.8186 283.637 41.5091 283.637 41.1378C283.637 40.7665 283.946 40.457 284.317 40.457C284.689 40.457 284.998 40.7665 284.998 41.1378Z" fill="#5F5F6C"/>
<path d="M289.951 41.2413C289.951 41.6126 289.642 41.9221 289.271 41.9221C288.899 41.9221 288.59 41.6126 288.59 41.2413C288.59 40.87 288.899 40.5605 289.271 40.5605C289.642 40.5605 289.951 40.87 289.951 41.2413Z" fill="#5F5F6C"/>
<path d="M286.568 45.594H286.548C286.506 45.594 285.66 45.5115 285.145 45.0989C284.897 44.8926 284.773 44.6244 284.773 44.2944C284.794 43.5311 285.537 42.6028 286.238 42.087C286.341 42.0045 286.506 42.0252 286.609 42.1283C286.692 42.2521 286.671 42.3965 286.568 42.4996C285.867 43.036 285.33 43.7993 285.31 44.2944C285.31 44.4594 285.351 44.6038 285.475 44.7069C285.867 45.0164 286.589 45.0989 286.589 45.0989C286.733 45.1195 286.836 45.2433 286.816 45.3877C286.816 45.4909 286.713 45.594 286.568 45.594Z" fill="#D28572"/>
<path d="M286.375 47.718C286.251 47.718 286.128 47.6148 286.128 47.491C286.107 47.3466 286.21 47.2229 286.355 47.2022C286.375 47.2022 287.819 47.0166 288.727 45.9232C288.809 45.8201 288.974 45.7995 289.098 45.882C289.201 45.9645 289.222 46.1295 289.139 46.2533C288.087 47.5323 286.499 47.718 286.437 47.718C286.396 47.718 286.396 47.718 286.375 47.718Z" fill="#5F5F6C"/>
<path d="M283.14 39.2405C283.305 38.993 283.532 38.8073 283.78 38.7041C284.048 38.5804 284.337 38.5391 284.625 38.5598C284.914 38.5804 285.203 38.6629 285.43 38.8279C285.677 38.9723 285.863 39.158 286.007 39.4055C286.049 39.4881 286.028 39.5706 285.946 39.6325C285.904 39.6531 285.863 39.6531 285.822 39.6531H285.801C285.554 39.5912 285.347 39.5087 285.141 39.4674C284.935 39.4055 284.749 39.3849 284.543 39.3437C284.357 39.323 284.151 39.323 283.945 39.3643C283.738 39.3849 283.532 39.4468 283.305 39.5087H283.264C283.181 39.5293 283.099 39.4881 283.078 39.4055C283.119 39.323 283.119 39.2818 283.14 39.2405Z" fill="#5F5F6C"/>
<path d="M291.04 39.7559C290.525 39.5702 290.05 39.3846 289.596 39.3639C289.369 39.3433 289.143 39.3639 288.916 39.4052C288.689 39.4465 288.462 39.5496 288.173 39.6321H288.152C288.07 39.6527 287.987 39.6115 287.946 39.529C287.925 39.4877 287.946 39.4258 287.967 39.4052C288.132 39.137 288.359 38.9101 288.668 38.7657C288.957 38.6213 289.308 38.5594 289.638 38.58C289.968 38.6213 290.277 38.7244 290.545 38.8895C290.813 39.0545 291.04 39.2608 291.205 39.529C291.247 39.6115 291.226 39.694 291.164 39.7353C291.164 39.7765 291.102 39.7972 291.04 39.7559Z" fill="#5F5F6C"/>
<path opacity="0.4" d="M292.364 43.7787C292.364 44.3563 291.89 44.8307 291.291 44.8307C290.714 44.8307 290.219 44.3563 290.219 43.7787C290.219 43.201 290.693 42.7266 291.291 42.7266C291.89 42.7266 292.364 43.201 292.364 43.7787Z" fill="#FE5B52"/>
<path opacity="0.4" d="M283.946 44.2113C283.946 44.7889 283.472 45.2634 282.894 45.2634C282.853 44.5826 282.853 43.8812 282.894 43.1592C283.472 43.1592 283.946 43.613 283.946 44.2113Z" fill="#FE5B52"/>
<path d="M289.495 32.3721C289.515 33.3208 289.598 34.2696 289.742 35.2184C289.907 36.1465 290.072 37.0747 290.443 37.941C290.794 38.8072 291.268 39.6116 292.011 40.1273C292.733 40.6842 293.682 40.8285 294.61 40.7666C294.672 40.7666 294.713 40.8079 294.713 40.8698C294.713 40.911 294.672 40.9729 294.63 40.9729C294.156 41.076 293.661 41.0967 293.145 41.0348C292.65 40.9523 292.155 40.7667 291.722 40.4985C290.856 39.9416 290.299 39.0341 289.928 38.1266C289.577 37.1984 289.371 36.229 289.268 35.2803C289.165 34.3109 289.165 33.3415 289.247 32.3721C289.247 32.3102 289.309 32.2689 289.35 32.2895C289.453 32.2689 289.495 32.3102 289.495 32.3721Z" fill="#5F5F6C"/>
<path d="M295.955 28.0414C298.244 28.4952 300.369 29.5471 302.287 30.8258C304.226 32.1253 305.917 33.734 307.422 35.5078L308.495 36.8897C308.846 37.3435 309.134 37.8591 309.464 38.3335C310.124 39.2823 310.64 40.3136 311.197 41.3449C311.486 41.8399 311.692 42.3968 311.919 42.9124L312.6 44.5006C312.991 45.5937 313.342 46.6869 313.693 47.78C313.713 47.8419 313.672 47.8832 313.631 47.9038C313.59 47.9244 313.528 47.9038 313.507 47.8419C313.095 46.7694 312.682 45.6969 312.27 44.645L311.548 43.0981C311.3 42.5824 311.094 42.0461 310.784 41.5511C310.207 40.5611 309.712 39.5298 309.052 38.6017C308.722 38.1273 308.433 37.6323 308.083 37.1991L307.031 35.8585C305.566 34.1053 303.916 32.5378 302.06 31.2177C301.585 30.8877 301.132 30.5577 300.637 30.2896C300.389 30.1452 300.142 30.0008 299.894 29.8564L299.131 29.4645C298.12 28.9695 297.048 28.5158 295.934 28.2683C295.872 28.2476 295.852 28.2064 295.852 28.1445C295.852 28.062 295.913 28.0208 295.955 28.0414Z" fill="#5F5F6C"/>
<path d="M119.661 130.998H141.012V126.234H119.661V130.998Z" fill="#1B1B43"/>
<path d="M172.814 102.894L169.578 110.872L162.072 129.323C161.645 130.357 160.723 131.031 159.734 131.031H129.664L140.834 103.501C142.002 100.602 144.587 98.7363 147.396 98.7363H170.432C172.342 98.7363 173.578 100.961 172.814 102.894Z" fill="#CBCBFF"/>
<path opacity="0.1" d="M169.556 110.872L162.05 129.323C161.623 130.357 160.701 131.031 159.713 131.031H140.07C154.858 126.132 164.028 117.974 169.556 110.872Z" fill="#1B1B43"/>
<path d="M252.819 126.222H231.469V130.986H252.819V126.222Z" fill="#1B1B43"/>
<path d="M242.796 131.031H212.749C211.737 131.031 210.816 130.357 210.411 129.323L203.557 112.445L199.691 102.894C198.905 100.939 200.163 98.7363 202.051 98.7363H225.087C227.896 98.7363 230.481 100.602 231.649 103.501L242.796 131.031Z" fill="#CBCBFF"/>
<path opacity="0.1" d="M228.1 131.031H212.75C211.739 131.031 210.818 130.357 210.413 129.323L203.559 112.445C208.862 118.671 217.582 127.211 228.1 131.031Z" fill="#1B1B43"/>
<path d="M105.615 134.852H99.1875V270.617H105.615V134.852Z" fill="white"/>
<path d="M105.911 270.887H98.9219V134.56H105.911V270.887ZM99.4837 270.347H105.349V135.144H99.4837V270.347Z" fill="#1B1B43"/>
<path d="M252.08 134.852H245.652V270.617H252.08V134.852Z" fill="white"/>
<path d="M252.372 270.887H245.383V134.56H252.372V270.887ZM245.922 270.347H251.788V135.144H245.922V270.347Z" fill="#1B1B43"/>
<path d="M290.694 130.941H60.6055V136.29H290.694V130.941Z" fill="white"/>
<path d="M290.963 136.56H60.3125V130.672H290.941V136.56H290.963ZM60.8968 135.998H290.401V131.234H60.8968V135.998Z" fill="#1B1B43"/>
<path d="M374.68 270.348H0.488281V270.91H374.68V270.348Z" fill="#1B1B43"/>
</svg>
