<svg width="304" height="55" viewBox="0 0 304 55" fill="none" xmlns="http://www.w3.org/2000/svg">
<path d="M89.5094 22.294C87.0039 19.7885 87.0039 15.7262 89.5094 13.2207C92.0149 10.7152 96.0771 10.7152 98.5826 13.2207C101.088 15.7262 101.088 19.7885 98.5826 22.294C96.0771 24.7995 92.0149 24.7995 89.5094 22.294ZM67.9604 43.843C66.0812 41.9639 66.0812 38.9172 67.9604 37.0381C69.8395 35.1589 72.8862 35.1589 74.7653 37.0381C76.6444 38.9172 76.6444 41.9639 74.7653 43.843C72.8862 45.7221 69.8395 45.7221 67.9604 43.843ZM101.985 32.5014C100.106 30.6223 100.106 27.5756 101.985 25.6965C103.864 23.8173 106.911 23.8173 108.79 25.6965C110.669 27.5756 110.669 30.6223 108.79 32.5014C106.911 34.3806 103.864 34.3806 101.985 32.5014ZM90.6435 43.843C88.7644 41.9639 88.7644 38.9172 90.6435 37.0381C92.5227 35.1589 95.5693 35.1589 97.4485 37.0381C99.3276 38.9172 99.3276 41.9639 97.4485 43.843C95.5693 45.7221 92.5227 45.7221 90.6435 43.843ZM114.461 42.7088C113.208 41.4561 113.208 39.425 114.461 38.1722C115.714 36.9195 117.745 36.9195 118.998 38.1722C120.25 39.425 120.25 41.4561 118.998 42.7088C117.745 43.9616 115.714 43.9616 114.461 42.7088ZM103.119 54.0504C101.867 52.7977 101.867 50.7666 103.119 49.5138C104.372 48.261 106.403 48.261 107.656 49.5138C108.909 50.7666 108.909 52.7977 107.656 54.0504C106.403 55.3032 104.372 55.3032 103.119 54.0504ZM78.1678 33.6356C75.6623 31.1301 75.6623 27.0678 78.1678 24.5623C80.6733 22.0568 84.7355 22.0568 87.2411 24.5623C89.7466 27.0678 89.7466 31.1301 87.2411 33.6356C84.7355 36.1411 80.6733 36.1411 78.1678 33.6356ZM78.1678 10.9524C75.6623 8.44689 75.6623 4.38465 78.1678 1.87914C80.6733 -0.626379 84.7355 -0.626379 87.2411 1.87914C89.7466 4.38465 89.7466 8.44689 87.2411 10.9524C84.7355 13.4579 80.6733 13.4579 78.1678 10.9524ZM66.8262 22.294C64.3207 19.7885 64.3207 15.7262 66.8262 13.2207C69.3317 10.7152 73.394 10.7152 75.8995 13.2207C78.405 15.7262 78.405 19.7885 75.8995 22.294C73.394 24.7995 69.3317 24.7995 66.8262 22.294ZM44.0376 22.294C41.5321 19.7885 41.5321 15.7262 44.0376 13.2207C46.5431 10.7152 50.6054 10.7152 53.1109 13.2207C55.6164 15.7262 55.6164 19.7885 53.1109 22.294C50.6054 24.7995 46.5431 24.7995 44.0376 22.294ZM22.4886 43.843C20.6094 41.9639 20.6094 38.9172 22.4886 37.0381C24.3677 35.1589 27.4144 35.1589 29.2935 37.0381C31.1727 38.9172 31.1727 41.9639 29.2935 43.843C27.4144 45.7221 24.3677 45.7221 22.4886 43.843ZM56.5133 32.5014C54.6342 30.6223 54.6342 27.5756 56.5133 25.6965C58.3925 23.8173 61.4392 23.8173 63.3183 25.6965C65.1974 27.5756 65.1974 30.6223 63.3183 32.5014C61.4392 34.3806 58.3925 34.3806 56.5133 32.5014ZM45.1718 43.843C43.2926 41.9639 43.2926 38.9172 45.1718 37.0381C47.0509 35.1589 50.0976 35.1589 51.9767 37.0381C53.8558 38.9172 53.8558 41.9639 51.9767 43.843C50.0976 45.7221 47.0509 45.7221 45.1718 43.843ZM0.939568 42.7088C-0.313189 41.4561 -0.313189 39.425 0.939568 38.1722C2.19232 36.9195 4.22344 36.9195 5.4762 38.1722C6.72896 39.425 6.72896 41.4561 5.4762 42.7088C4.22344 43.9616 2.19232 43.9616 0.939568 42.7088ZM12.2812 54.0504C11.0284 52.7977 11.0284 50.7666 12.2812 49.5138C13.5339 48.261 15.565 48.261 16.8178 49.5138C18.0705 50.7666 18.0705 52.7977 16.8178 54.0504C15.565 55.3032 13.5339 55.3032 12.2812 54.0504ZM57.6475 54.0504C56.3947 52.7977 56.3947 50.7666 57.6475 49.5138C58.9003 48.261 60.9314 48.261 62.1841 49.5138C63.4369 50.7666 63.4369 52.7977 62.1841 54.0504C60.9314 55.3032 58.9003 55.3032 57.6475 54.0504ZM11.147 32.5014C9.26786 30.6223 9.26786 27.5756 11.147 25.6965C13.0261 23.8173 16.0728 23.8173 17.952 25.6965C19.8311 27.5756 19.8311 30.6223 17.952 32.5014C16.0728 34.3806 13.0261 34.3806 11.147 32.5014ZM32.696 33.6356C30.1905 31.1301 30.1905 27.0678 32.696 24.5623C35.2015 22.0568 39.2638 22.0568 41.7693 24.5623C44.2748 27.0678 44.2748 31.1301 41.7693 33.6356C39.2638 36.1411 35.2015 36.1411 32.696 33.6356ZM32.696 10.9524C30.1905 8.44689 30.1905 4.38465 32.696 1.87914C35.2015 -0.626379 39.2638 -0.626379 41.7693 1.87914C44.2748 4.38465 44.2748 8.44689 41.7693 10.9524C39.2638 13.4579 35.2015 13.4579 32.696 10.9524ZM21.3544 22.294C18.8489 19.7885 18.8489 15.7262 21.3544 13.2207C23.8599 10.7152 27.9222 10.7152 30.4277 13.2207C32.9332 15.7262 32.9332 19.7885 30.4277 22.294C27.9222 24.7995 23.8599 24.7995 21.3544 22.294Z" fill="#737A99"/>
<path d="M141.212 38.4951V18.7551H144.376L151.628 35.0791H150.76L158.012 18.7551H161.148V38.4951H157.872V23.8511H158.88L152.244 38.4951H150.088L143.452 23.8511H144.488V38.4951H141.212ZM170.727 38.7751C169.495 38.7751 168.413 38.4858 167.479 37.9071C166.546 37.3098 165.818 36.4605 165.295 35.3591C164.773 34.2578 164.511 32.9418 164.511 31.4111C164.511 29.8805 164.773 28.5738 165.295 27.4911C165.818 26.3898 166.546 25.5498 167.479 24.9711C168.413 24.3738 169.495 24.0751 170.727 24.0751C171.922 24.0751 172.967 24.3738 173.863 24.9711C174.778 25.5498 175.385 26.3338 175.683 27.3231H175.375L175.683 24.3551H179.043C178.987 24.9338 178.931 25.5218 178.875 26.1191C178.838 26.7164 178.819 27.3044 178.819 27.8831V38.4951H175.347L175.319 35.5831H175.655C175.357 36.5538 174.75 37.3285 173.835 37.9071C172.921 38.4858 171.885 38.7751 170.727 38.7751ZM171.707 36.0871C172.809 36.0871 173.695 35.7045 174.367 34.9391C175.039 34.1551 175.375 32.9791 175.375 31.4111C175.375 29.8431 175.039 28.6765 174.367 27.9111C173.695 27.1458 172.809 26.7631 171.707 26.7631C170.606 26.7631 169.719 27.1458 169.047 27.9111C168.375 28.6765 168.039 29.8431 168.039 31.4111C168.039 32.9791 168.366 34.1551 169.019 34.9391C169.691 35.7045 170.587 36.0871 171.707 36.0871ZM188.679 38.7751C186.999 38.7751 185.729 38.3365 184.871 37.4591C184.012 36.5818 183.583 35.2658 183.583 33.5111V26.9871H180.867V24.3551H183.583V20.7431L187.083 19.8471V24.3551H190.863V26.9871H187.083V33.2871C187.083 34.2578 187.269 34.9391 187.643 35.3311C188.016 35.7231 188.529 35.9191 189.183 35.9191C189.537 35.9191 189.836 35.8911 190.079 35.8351C190.34 35.7791 190.592 35.7045 190.835 35.6111V38.3831C190.517 38.5138 190.163 38.6071 189.771 38.6631C189.397 38.7378 189.033 38.7751 188.679 38.7751ZM193.24 38.4951V17.8871H196.74V27.1831H196.348C196.777 26.1751 197.44 25.4098 198.336 24.8871C199.232 24.3458 200.259 24.0751 201.416 24.0751C203.096 24.0751 204.347 24.5511 205.168 25.5031C205.989 26.4364 206.4 27.8644 206.4 29.7871V38.4951H202.9V29.9551C202.9 28.8538 202.685 28.0604 202.256 27.5751C201.845 27.0711 201.183 26.8191 200.268 26.8191C199.204 26.8191 198.345 27.1551 197.692 27.8271C197.057 28.4805 196.74 29.3578 196.74 30.4591V38.4951H193.24ZM223.563 38.4951L216.591 18.7551H220.343L225.719 34.9391H224.599L230.395 18.7551H233.083L238.459 34.9391H237.423L243.051 18.7551H246.579L239.551 38.4951H236.555L231.347 23.3191H231.963L226.559 38.4951H223.563ZM252.977 38.7751C251.745 38.7751 250.663 38.4858 249.729 37.9071C248.796 37.3098 248.068 36.4605 247.545 35.3591C247.023 34.2578 246.761 32.9418 246.761 31.4111C246.761 29.8805 247.023 28.5738 247.545 27.4911C248.068 26.3898 248.796 25.5498 249.729 24.9711C250.663 24.3738 251.745 24.0751 252.977 24.0751C254.172 24.0751 255.217 24.3738 256.113 24.9711C257.028 25.5498 257.635 26.3338 257.933 27.3231H257.625L257.933 24.3551H261.293C261.237 24.9338 261.181 25.5218 261.125 26.1191C261.088 26.7164 261.069 27.3044 261.069 27.8831V38.4951H257.597L257.569 35.5831H257.905C257.607 36.5538 257 37.3285 256.085 37.9071C255.171 38.4858 254.135 38.7751 252.977 38.7751ZM253.957 36.0871C255.059 36.0871 255.945 35.7045 256.617 34.9391C257.289 34.1551 257.625 32.9791 257.625 31.4111C257.625 29.8431 257.289 28.6765 256.617 27.9111C255.945 27.1458 255.059 26.7631 253.957 26.7631C252.856 26.7631 251.969 27.1458 251.297 27.9111C250.625 28.6765 250.289 29.8431 250.289 31.4111C250.289 32.9791 250.616 34.1551 251.269 34.9391C251.941 35.7045 252.837 36.0871 253.957 36.0871ZM264.881 38.4951V17.8871H268.381V38.4951H264.881ZM272.181 38.4951V17.8871H275.681V38.4951H272.181ZM286.314 38.7751C283.943 38.7751 282.086 38.1218 280.742 36.8151C279.398 35.5085 278.726 33.7165 278.726 31.4391C278.726 29.9644 279.015 28.6764 279.594 27.5751C280.173 26.4738 280.975 25.6151 282.002 24.9991C283.047 24.3831 284.261 24.0751 285.642 24.0751C287.005 24.0751 288.143 24.3644 289.058 24.9431C289.973 25.5218 290.663 26.3338 291.13 27.3791C291.615 28.4245 291.858 29.6471 291.858 31.0471V31.9711H281.554V30.1231H289.366L288.89 30.5151C288.89 29.2084 288.61 28.2098 288.05 27.5191C287.509 26.8284 286.715 26.4831 285.67 26.4831C284.513 26.4831 283.617 26.8938 282.982 27.7151C282.366 28.5364 282.058 29.6844 282.058 31.1591V31.5231C282.058 33.0538 282.431 34.2018 283.178 34.9671C283.943 35.7138 285.017 36.0871 286.398 36.0871C287.201 36.0871 287.947 35.9845 288.638 35.7791C289.347 35.5551 290.019 35.2005 290.654 34.7151L291.69 37.0671C291.018 37.6085 290.215 38.0285 289.282 38.3271C288.349 38.6258 287.359 38.7751 286.314 38.7751ZM300.815 38.7751C299.135 38.7751 297.866 38.3365 297.007 37.4591C296.149 36.5818 295.719 35.2658 295.719 33.5111V26.9871H293.003V24.3551H295.719V20.7431L299.219 19.8471V24.3551H302.999V26.9871H299.219V33.2871C299.219 34.2578 299.406 34.9391 299.779 35.3311C300.153 35.7231 300.666 35.9191 301.319 35.9191C301.674 35.9191 301.973 35.8911 302.215 35.8351C302.477 35.7791 302.729 35.7045 302.971 35.6111V38.3831C302.654 38.5138 302.299 38.6071 301.907 38.6631C301.534 38.7378 301.17 38.7751 300.815 38.7751Z" fill="#737A99"/>
</svg>
