<svg width="302" height="56" viewBox="0 0 302 56" fill="none" xmlns="http://www.w3.org/2000/svg">
<g clip-path="url(#clip0_1353_5567)">
<path d="M28.3769 55.7783C43.5658 55.7783 55.8789 43.4653 55.8789 28.2764C55.8789 13.0875 43.5658 0.774414 28.3769 0.774414C13.188 0.774414 0.875 13.0875 0.875 28.2764C0.875 43.4653 13.188 55.7783 28.3769 55.7783Z" fill="#7866D5"/>
<path d="M39.5265 14.8877C40.4656 15.0002 41.4163 15.0623 42.3438 15.2408C44.1832 15.5978 44.7925 16.5137 44.4781 18.3725C44.3928 19.071 43.8456 19.6259 43.1471 19.7152C42.7086 19.785 42.2662 19.8161 41.8238 19.8083C35.7855 19.8277 29.7512 19.8432 23.7091 19.8549C22.801 19.8626 21.8968 19.9441 21.0043 20.0955C18.0162 20.5844 16.8792 21.8224 16.6425 24.8376C16.5299 26.2501 16.5299 26.2501 17.9463 26.2501H42.0101C42.2429 26.2501 42.4757 26.2501 42.7086 26.2501C43.0927 26.2501 43.4653 26.3549 43.7951 26.549C44.8895 27.2475 44.6178 28.3573 44.5557 29.3624C44.5053 30.1773 44.0125 30.6236 43.1742 30.7866C42.8211 30.8448 42.4641 30.8681 42.1071 30.8603C33.8763 30.8603 25.6455 30.8603 17.4186 30.8603C16.5066 30.8603 16.5222 30.8603 16.5881 31.7645C16.6192 32.5872 16.7239 33.406 16.8986 34.2132C17.2711 35.6994 18.1908 36.6308 19.6732 37.0421C21.3147 37.5039 23.0028 37.6048 24.687 37.6165C30.5739 37.6553 36.4608 37.6398 42.3515 37.6398C43.0966 37.6398 43.799 37.7329 44.2414 38.4275C44.9632 39.5917 44.6062 41.1207 43.442 41.8463C43.2829 41.9434 43.1121 42.0249 42.9375 42.0869C41.6569 42.4983 40.3259 42.5953 38.9987 42.6186C33.4688 42.7195 27.9428 42.7195 22.4129 42.6186C20.7055 42.5759 19.0019 42.378 17.3332 42.0249C13.3983 41.2099 11.4308 39.2114 10.7594 35.2493C10.6042 34.3373 10.5266 33.4138 10.4141 32.4941V25.2722C10.4878 24.5621 10.5576 23.8519 10.6391 23.1495C11.1514 18.6752 13.1615 16.4593 17.5622 15.4814C19.1299 15.1322 20.7249 15.0546 22.3082 14.8877H39.5265Z" fill="white"/>
<path d="M30.6973 43.3834C27.9227 43.3834 25.148 43.3601 22.3928 43.3097C20.6426 43.267 18.8886 43.0652 17.1811 42.7043C12.9707 41.8311 10.7742 39.5687 10.0641 35.3622C9.95542 34.7141 9.88168 34.0544 9.81183 33.4218C9.78079 33.1386 9.74974 32.8592 9.71482 32.5759L9.71094 32.4905L9.71482 25.2027L9.78467 24.5197C9.83512 24.0346 9.88557 23.5534 9.93989 23.0761C10.4948 18.3224 12.7301 15.8465 17.4101 14.8065C18.6364 14.5349 19.8743 14.4223 21.0734 14.3137C21.4615 14.2788 21.8495 14.2438 22.2376 14.2011L22.3113 14.1973H39.5723L39.615 14.2011C39.9022 14.2361 40.1932 14.2671 40.4842 14.2943C41.1362 14.3603 41.8114 14.4301 42.4828 14.562C44.6986 14.9928 45.5523 16.2424 45.172 18.4931C45.0556 19.4788 44.2601 20.2821 43.2434 20.414C42.7893 20.4877 42.3004 20.5227 41.8192 20.511C35.7965 20.5304 29.7582 20.546 23.72 20.5576C22.8585 20.5654 21.9853 20.643 21.1316 20.7904C18.4462 21.2328 17.5614 22.1913 17.348 24.9C17.3286 25.1406 17.3092 25.3812 17.3053 25.5481C17.4722 25.5597 17.7167 25.5597 17.9573 25.5597H42.7156C43.224 25.5597 43.7207 25.6955 44.1592 25.9555C45.4864 26.8054 45.3738 28.0899 45.2923 29.029C45.2807 29.157 45.269 29.2812 45.2613 29.4093C45.1953 30.5114 44.5046 31.2487 43.3171 31.4777C42.9019 31.5436 42.4983 31.5708 42.0986 31.563H17.4295C17.3829 31.563 17.3325 31.563 17.2859 31.563C17.2898 31.598 17.2898 31.6368 17.2937 31.6717L17.2975 31.7183C17.3286 32.5254 17.4295 33.3093 17.5925 34.0699C17.899 35.2884 18.6247 36.0257 19.8704 36.375C21.5352 36.8407 23.2465 36.9144 24.7018 36.9222C29.2887 36.9532 33.957 36.9493 38.4702 36.9454H42.3625C42.9368 36.9454 44.132 36.9454 44.8383 38.0553C45.2923 38.7849 45.432 39.6386 45.238 40.4652C45.044 41.2917 44.5395 41.9941 43.8177 42.4404C43.6159 42.5646 43.3986 42.6694 43.1696 42.747C41.7338 43.2088 40.2669 43.2941 39.0174 43.3174C36.2466 43.3601 33.472 43.3834 30.6973 43.3834ZM11.1041 32.4478C11.139 32.7195 11.1662 32.995 11.1972 33.2666C11.2671 33.8836 11.3369 34.5201 11.4378 35.1293C12.0548 38.781 13.8011 40.5777 17.4644 41.3383C19.0943 41.6837 20.7591 41.8777 22.42 41.9165C27.911 42.0135 33.4836 42.0135 38.9747 41.9165C40.1195 41.8971 41.4622 41.8195 42.7117 41.4198C42.8281 41.381 42.9484 41.3228 43.061 41.2529C43.4646 41.0007 43.7478 40.6087 43.8565 40.1431C43.9652 39.6774 43.8875 39.2001 43.6353 38.7965C43.418 38.455 43.0881 38.3386 42.3392 38.3386H38.4508C33.9376 38.3425 29.2654 38.3425 24.6746 38.3153C23.1262 38.3037 21.2985 38.2261 19.4785 37.7138C17.7477 37.2326 16.6495 36.1111 16.2149 34.3842C16.0286 33.5189 15.9199 32.6535 15.885 31.7959L15.8811 31.7726C15.8384 31.2254 15.8113 30.8296 16.1178 30.4959C16.4283 30.1621 16.8396 30.1621 17.4101 30.1621H42.0986C42.4284 30.1699 42.7466 30.1505 43.0571 30.1C43.6858 29.9797 43.8293 29.712 43.8526 29.3239C43.8604 29.1842 43.872 29.0484 43.8837 28.9087C43.969 27.923 43.9496 27.4884 43.4102 27.143C43.2084 27.0227 42.9562 26.9529 42.7001 26.9529H17.9417C17.088 26.9529 16.5719 26.9529 16.1993 26.5532C15.8307 26.1534 15.8695 25.6373 15.9393 24.7875C16.2032 21.4618 17.5925 19.9561 20.8871 19.4167C21.8107 19.2576 22.7576 19.1722 23.7006 19.1645C29.7427 19.1528 35.7809 19.1373 41.8192 19.1179C42.2344 19.1256 42.638 19.0985 43.0338 19.0325C43.4374 18.9782 43.7362 18.6755 43.7828 18.2952C44.0428 16.7624 43.6741 16.2191 42.2111 15.9319C41.6019 15.8155 40.9887 15.7495 40.3368 15.6835C40.0535 15.6525 39.7702 15.6253 39.4869 15.5904H22.3501C21.9698 15.6292 21.5856 15.6641 21.2053 15.6991C19.9985 15.8077 18.8576 15.9125 17.7205 16.1647C13.611 17.0806 11.8181 19.0636 11.333 23.2352C11.2787 23.7087 11.2283 24.1821 11.1817 24.6594L11.1157 25.3114V32.4478H11.1041Z" fill="white"/>
<path d="M86.9124 19.0947C87.5488 19.1723 88.1969 19.215 88.8255 19.3353C90.0751 19.5798 90.4864 20.1968 90.273 21.458C90.2148 21.9315 89.8422 22.3079 89.3688 22.37C89.0739 22.4165 88.7712 22.4398 88.4724 22.4321C84.3745 22.4437 80.2765 22.4553 76.1747 22.4631C75.5577 22.467 74.9446 22.5213 74.3392 22.6261C72.3135 22.9598 71.5412 23.798 71.3783 25.8431C71.3006 26.8016 71.3006 26.8016 72.263 26.8016H88.5966C88.7557 26.8016 88.9109 26.8016 89.07 26.8016C89.33 26.8016 89.5861 26.8715 89.8073 27.0034C90.5524 27.4769 90.3661 28.2297 90.3234 28.9127C90.2885 29.4676 89.9548 29.7703 89.3882 29.879C89.1476 29.9178 88.907 29.9333 88.6625 29.9294C83.0744 29.9294 77.4902 29.9294 71.9021 29.9294C71.2812 29.9294 71.2929 29.9294 71.3395 30.5425C71.3627 31.1014 71.4326 31.6563 71.549 32.2035C71.8012 33.2124 72.426 33.845 73.4311 34.1244C74.5448 34.4348 75.6935 34.5047 76.8344 34.5124C80.8314 34.5396 84.8285 34.5279 88.8255 34.5279C89.33 34.5279 89.8073 34.5939 90.1061 35.0635C90.5951 35.8551 90.3545 36.8912 89.5628 37.3841C89.4542 37.45 89.3416 37.5044 89.2213 37.5471C88.3521 37.8265 87.4479 37.8924 86.5476 37.908C82.795 37.9739 79.0425 37.9739 75.2899 37.908C74.1296 37.8808 72.9771 37.745 71.8401 37.5044C69.1663 36.9494 67.8353 35.5951 67.3773 32.9058C67.2726 32.2849 67.2182 31.6602 67.1406 31.0354V26.1458C67.1911 25.6646 67.2376 25.1834 67.292 24.7061C67.6451 21.6676 69.0111 20.1658 71.9953 19.4983C73.0586 19.2616 74.1413 19.2073 75.2162 19.0947H86.9124Z" fill="#7866D5"/>
<path d="M80.9225 38.2842C79.0404 38.2842 77.1583 38.2687 75.2879 38.2338C74.112 38.2066 72.9323 38.0669 71.7759 37.8263C68.9508 37.2403 67.5421 35.789 67.0648 32.9678C66.9911 32.5331 66.9406 32.0985 66.8941 31.66C66.8747 31.466 66.8514 31.2758 66.8281 31.0818L66.8242 26.1456L66.8747 25.6412C66.9096 25.3152 66.9406 24.9892 66.9794 24.6671C67.3481 21.5161 68.8266 19.8746 71.9311 19.1838C72.7538 19.0014 73.5881 18.9238 74.3992 18.8501C74.6631 18.8268 74.927 18.8035 75.1908 18.7763L86.9297 18.7725L86.9491 18.7763C87.147 18.7996 87.3449 18.819 87.5429 18.8423C87.9814 18.8889 88.4354 18.9354 88.8855 19.0208C90.3097 19.2963 90.8336 20.0647 90.5891 21.5161C90.5154 22.1214 90.0303 22.6143 89.4094 22.6919C89.1029 22.7423 88.7808 22.7656 88.4664 22.7579C84.3763 22.7695 80.2783 22.7811 76.1765 22.7889C75.5828 22.7928 74.9813 22.8471 74.3953 22.948C72.5055 23.2585 71.8496 23.9686 71.6983 25.874C71.675 26.1418 71.6556 26.4212 71.6789 26.491C71.7099 26.4871 71.9932 26.4871 72.261 26.4871H89.0679C89.0679 26.4871 89.0679 26.4871 89.0718 26.4871C89.3861 26.4871 89.7005 26.5725 89.9721 26.7355C90.7909 27.2594 90.7211 28.0471 90.6667 28.6797C90.659 28.7689 90.6512 28.8543 90.6473 28.9397C90.6202 29.417 90.3873 30.0224 89.4521 30.2009C89.1844 30.2436 88.9205 30.263 88.6566 30.2552H71.9039C71.8108 30.2552 71.7138 30.2552 71.6439 30.2591C71.6478 30.3251 71.6517 30.4143 71.6595 30.4958C71.6828 31.0779 71.7526 31.6173 71.8651 32.1451C72.0863 33.0221 72.6296 33.577 73.5222 33.8254C74.667 34.1475 75.8428 34.1979 76.8401 34.2018C79.9679 34.2212 83.0995 34.2173 86.2273 34.2173H88.8273C89.3784 34.2173 89.9954 34.2988 90.3796 34.9003C90.9656 35.8433 90.6745 37.0812 89.7354 37.6672C89.6073 37.7487 89.4715 37.8108 89.3279 37.8612C88.3772 38.1678 87.3915 38.2221 86.5572 38.2376C84.6906 38.2687 82.8046 38.2842 80.9225 38.2842ZM86.8948 19.4166H75.2258C74.9929 19.4438 74.7252 19.4671 74.4613 19.4904C73.6735 19.5641 72.8547 19.6378 72.0747 19.8086C69.2069 20.445 67.9574 21.8304 67.6197 24.737C67.5809 25.0552 67.5499 25.3773 67.515 25.6994L67.4645 26.1728V31.0391C67.4878 31.1943 67.5072 31.3884 67.5305 31.5863C67.5771 32.0092 67.6236 32.4361 67.6974 32.8552C68.1281 35.4048 69.3505 36.6621 71.9078 37.1938C73.0216 37.4305 74.1625 37.5624 75.2995 37.5896C79.0288 37.6556 82.8124 37.6556 86.5455 37.5896C87.3333 37.5741 88.2608 37.5236 89.1261 37.2442C89.2154 37.2132 89.3124 37.1705 89.3978 37.1161C90.0381 36.7203 90.2321 35.8782 89.8363 35.2379C89.6306 34.9197 89.3124 34.8537 88.8273 34.8537H86.2273C83.0957 34.8537 79.964 34.8576 76.8362 34.8382C75.7962 34.8305 74.5661 34.7761 73.3475 34.4346C72.2299 34.1242 71.5198 33.3985 71.2404 32.2848C71.1162 31.7104 71.0425 31.1322 71.0192 30.5579C70.9881 30.1815 70.9726 29.9642 71.1356 29.7857C71.3025 29.6071 71.5275 29.6071 71.9001 29.6071H88.6605C88.8894 29.611 89.1145 29.5994 89.3357 29.5645C89.8945 29.4558 89.9876 29.1648 90.0032 28.897C90.007 28.8039 90.0187 28.7107 90.0265 28.6176C90.0808 27.9773 90.0924 27.5698 89.6345 27.2788C89.4715 27.1818 89.2736 27.1274 89.0718 27.1274H72.2649C71.706 27.1274 71.3995 27.1274 71.1938 26.9024C70.9881 26.6773 71.0114 26.3746 71.058 25.8197C71.2326 23.6194 72.1096 22.6686 74.2866 22.3116C74.9075 22.2068 75.5401 22.1486 76.1726 22.1447C80.2744 22.137 84.3724 22.1253 88.4703 22.1137C88.7575 22.1176 89.0408 22.0982 89.3163 22.0555C89.6539 22.0128 89.9139 21.7528 89.9527 21.4229C90.139 20.3169 89.8285 19.859 88.7614 19.6534C88.3423 19.5719 87.9037 19.5253 87.4769 19.4826C87.2867 19.4593 87.0927 19.4399 86.8948 19.4166Z" fill="#7866D5"/>
<path d="M117.261 28.3351C117.261 30.8109 117.261 33.2906 117.261 35.7664C117.261 37.0587 116.722 37.7068 115.426 37.8581C114.207 38.0017 112.965 37.9396 111.735 37.8891C111.037 37.862 110.501 37.4778 110.051 36.9617C106.368 32.7046 102.686 28.4476 99.0028 24.1944C98.8049 23.9655 98.607 23.7404 98.4013 23.5192C98.2616 23.3756 98.1064 23.2204 97.8813 23.3019C97.6524 23.3834 97.6485 23.6046 97.6446 23.8064C97.6446 24.3497 97.6446 24.8968 97.6446 25.4401C97.6446 29.0374 97.6446 32.6309 97.6446 36.2244C97.6446 37.5166 97.241 37.9202 95.9527 37.9202C95.5801 37.9202 95.2076 37.9318 94.835 37.9124C94.0512 37.8775 93.6243 37.47 93.5506 36.6939C93.5273 36.4533 93.5156 36.2088 93.5156 35.9644C93.5156 31.1951 93.5156 26.4258 93.5156 21.6565C93.5156 21.4974 93.5156 21.3422 93.5234 21.1831C93.5971 20.1198 94.1094 19.4989 95.1649 19.3437C96.4882 19.1458 97.8231 19.2234 99.1542 19.2932C99.8488 19.3281 100.361 19.7589 100.807 20.275C104.618 24.6834 108.433 29.0918 112.251 33.4963C112.333 33.5972 112.422 33.6903 112.519 33.7757C112.639 33.8805 112.775 33.9775 112.946 33.8921C113.093 33.8184 113.179 33.6631 113.167 33.5002C113.167 33.3566 113.167 33.213 113.167 33.0694C113.167 29.0025 113.167 24.9356 113.167 20.8649C113.167 19.658 113.582 19.2466 114.801 19.2466C115.146 19.2466 115.488 19.2466 115.833 19.2466C116.792 19.2583 117.261 19.7201 117.265 20.6786C117.265 23.2359 117.261 25.7855 117.261 28.3351Z" fill="#7866D5"/>
<path d="M113.708 38.2691C113.087 38.2691 112.47 38.2419 111.861 38.2187L111.721 38.2109C111.015 38.1799 110.39 37.8422 109.808 37.1709C106.126 32.9139 102.443 28.6568 98.7601 24.4037C98.5661 24.1786 98.3721 23.9535 98.1703 23.7401C98.0383 23.6043 98.0112 23.5965 97.9918 23.6043C97.9685 23.6314 97.9685 23.7517 97.9685 23.806V36.224C97.9685 37.6948 97.4213 38.2381 95.9544 38.2381H95.6401C95.3685 38.2419 95.0929 38.2419 94.8213 38.2303C93.8899 38.1876 93.3234 37.6521 93.2302 36.7207C93.207 36.4685 93.1953 36.2124 93.1953 35.9601V21.6601C93.1953 21.4971 93.1953 21.3302 93.207 21.1711C93.2923 19.9254 93.9365 19.2075 95.1201 19.0329C96.4589 18.835 97.8171 18.9048 99.1288 18.9747C100.041 19.0212 100.634 19.5878 101.054 20.0729C104.864 24.4813 108.679 28.8897 112.498 33.2942C112.575 33.3873 112.649 33.4688 112.734 33.5425C112.792 33.593 112.82 33.6085 112.831 33.6124C112.835 33.6007 112.851 33.5658 112.851 33.5309V20.8762C112.851 19.4986 113.417 18.9359 114.806 18.9359H115.839C116.984 18.9514 117.585 19.5568 117.589 20.6899V23.4219C117.589 25.0595 117.585 26.6971 117.585 28.3386V35.77C117.585 37.2446 116.914 38.0091 115.466 38.1799C114.88 38.2458 114.294 38.2691 113.708 38.2691ZM98.0073 22.9562C98.31 22.9562 98.5234 23.1774 98.6359 23.2977C98.8455 23.5189 99.0473 23.7517 99.2452 23.9846C102.928 28.2377 106.611 32.4947 110.293 36.7518C110.755 37.2873 111.221 37.5473 111.745 37.5706L111.884 37.5784C113.041 37.6249 114.236 37.6754 115.381 37.5434C116.498 37.4115 116.933 36.9148 116.933 35.77V28.3347C116.933 26.6971 116.933 25.0556 116.937 23.418V20.686C116.933 19.9099 116.611 19.5878 115.823 19.5762H114.795C113.751 19.5762 113.483 19.8439 113.483 20.8762V33.5076C113.503 33.7792 113.347 34.0509 113.083 34.1867C112.707 34.3691 112.412 34.1207 112.303 34.0276C112.191 33.9267 112.09 33.8219 111.997 33.7094C108.182 29.3126 104.368 24.9043 100.557 20.4959C100.052 19.9099 99.6255 19.6499 99.1288 19.6227C97.8055 19.5529 96.4822 19.483 95.2055 19.6693C94.3246 19.8012 93.9055 20.2747 93.8395 21.2138C93.8317 21.3613 93.8317 21.5126 93.8317 21.6639V35.9718C93.8317 36.2046 93.8395 36.4375 93.8628 36.6703C93.9249 37.2834 94.2276 37.5706 94.8446 37.5978C95.1046 37.6094 95.3685 37.6094 95.6285 37.6055H95.9467C97.0604 37.6055 97.3165 37.3494 97.3165 36.2318V23.8138C97.3165 23.6043 97.3204 23.1657 97.7628 23.0066C97.8559 22.9717 97.9374 22.9562 98.0073 22.9562Z" fill="#7866D5"/>
<path d="M150.367 28.831V21.5665C150.367 20.0298 150.926 19.3701 152.455 19.2769C153.569 19.211 154.69 19.2381 155.804 19.2692C156.514 19.2886 157.081 19.6495 157.542 20.185C161.272 24.4964 165.001 28.8039 168.73 33.1152C168.909 33.3209 169.087 33.5266 169.277 33.7206C169.405 33.8525 169.553 33.9961 169.766 33.8952C169.949 33.8099 169.972 33.6352 169.972 33.4528C169.972 33.3093 169.972 33.1657 169.972 33.0221C169.972 28.9824 169.972 24.9426 169.972 20.9029C169.972 19.6611 170.383 19.2498 171.614 19.242C171.955 19.242 172.3 19.242 172.646 19.242C173.6 19.2537 174.066 19.7155 174.07 20.6817C174.07 23.0179 174.07 25.3501 174.07 27.6862C174.07 30.3949 174.07 33.0997 174.07 35.8084C174.07 37.0269 173.527 37.6905 172.32 37.8418C171.066 38.0009 169.801 37.935 168.544 37.8806C167.834 37.8496 167.294 37.4499 166.837 36.9182C163.037 32.5176 159.234 28.1209 155.428 23.728C155.369 23.662 155.315 23.5961 155.257 23.534C155.105 23.3826 154.942 23.2119 154.702 23.2973C154.461 23.3865 154.465 23.631 154.465 23.8444C154.465 27.2671 154.465 30.6937 154.465 34.1126C154.465 34.8887 154.465 35.6648 154.465 36.437C154.453 37.4538 153.999 37.9078 152.99 37.9156C152.575 37.9156 152.16 37.9233 151.745 37.9156C150.833 37.8923 150.375 37.4305 150.375 36.5185C150.371 33.9612 150.367 31.3961 150.367 28.831Z" fill="#7866D5"/>
<path d="M170.537 38.2614C169.916 38.2614 169.299 38.2342 168.689 38.207L168.53 38.1993C167.812 38.1682 167.195 37.8267 166.59 37.1243C162.791 32.7237 158.988 28.327 155.181 23.9341L155.123 23.8682C155.088 23.8293 155.057 23.7905 155.022 23.7556C154.87 23.6043 154.836 23.5887 154.808 23.5965C154.785 23.6276 154.785 23.7595 154.785 23.8255V36.4375C154.773 37.6211 154.168 38.2264 152.992 38.2381H152.577C152.298 38.2381 152.018 38.242 151.739 38.2381C150.652 38.2109 150.055 37.6017 150.055 36.5228C150.051 33.9616 150.047 31.3966 150.047 28.8276V21.5669C150.047 19.8401 150.761 19.0562 152.437 18.9553C153.602 18.8854 154.777 18.9165 155.817 18.9475C156.555 18.9669 157.218 19.3123 157.789 19.972L168.977 32.9022C169.151 33.104 169.322 33.3058 169.508 33.4921C169.539 33.5231 169.609 33.593 169.64 33.6046C169.64 33.593 169.652 33.5658 169.656 33.4455V20.9034C169.656 19.4831 170.207 18.9281 171.619 18.9204H172.651C173.788 18.932 174.39 19.5413 174.394 20.6822V35.8088C174.394 37.202 173.711 37.9936 172.36 38.1605C171.751 38.2381 171.142 38.2614 170.537 38.2614ZM154.832 22.9523C155.13 22.9523 155.344 23.1658 155.472 23.2938C155.534 23.3559 155.577 23.4064 155.619 23.4568L155.67 23.515C159.477 27.9118 163.28 32.3085 167.079 36.7091C167.56 37.2679 168.03 37.5396 168.561 37.5629L168.72 37.5706C169.896 37.6211 171.111 37.6754 172.283 37.5279C173.315 37.3999 173.754 36.8876 173.754 35.8127V20.6822C173.754 19.8944 173.431 19.5723 172.648 19.5645H171.619C170.568 19.5684 170.296 19.8439 170.296 20.9034V33.4494C170.296 33.6007 170.292 33.9966 169.908 34.1828C169.481 34.3846 169.182 34.0742 169.054 33.9461C168.86 33.7482 168.674 33.5348 168.495 33.3252L157.308 20.395C156.853 19.8711 156.361 19.6072 155.806 19.5917C154.781 19.5645 153.621 19.5296 152.484 19.5995C151.149 19.681 150.699 20.1777 150.699 21.5708V28.8315C150.699 31.3966 150.703 33.9616 150.707 36.5228C150.707 37.2602 151.025 37.5784 151.762 37.5978C152.034 37.6017 152.309 37.6017 152.585 37.5978H153C153.83 37.59 154.145 37.2757 154.153 36.4375V23.8449C154.153 23.612 154.153 23.158 154.599 22.995C154.676 22.964 154.754 22.9523 154.832 22.9523Z" fill="#7866D5"/>
<path d="M134.046 25.8386C134.046 24.1195 134.046 22.4043 134.046 20.6852C134.046 19.7034 134.481 19.2649 135.455 19.2532C135.928 19.2532 136.401 19.2416 136.871 19.2532C137.616 19.2765 138.039 19.6452 138.155 20.3786C138.187 20.592 138.202 20.8055 138.198 21.0189C138.198 23.8673 138.21 26.7157 138.198 29.5679C138.202 30.7127 138.121 31.8575 137.954 32.9867C137.523 35.7303 136.149 37.1041 133.281 37.6745C132.187 37.888 131.073 38.0005 129.96 38.0083C127.523 38.0315 125.093 38.113 122.66 37.9423C121.989 37.8957 121.317 37.8297 120.685 37.5736C119.924 37.2709 119.641 36.6306 119.808 35.6488C119.92 35.0008 120.394 34.6515 121.201 34.6438C123.708 34.6321 126.211 34.6438 128.718 34.6244C129.548 34.6321 130.379 34.5545 131.194 34.3954C133.177 33.9763 133.898 33.1148 133.972 31.0736C134.003 30.2005 134.034 29.3273 134.046 28.4542C134.058 27.581 134.046 26.7118 134.046 25.8386Z" fill="#7866D5"/>
<path d="M126.183 38.3692C125.004 38.3692 123.816 38.3459 122.64 38.2644C121.934 38.214 121.243 38.148 120.568 37.8725C119.943 37.6202 119.249 37.0226 119.497 35.5946C119.578 35.125 119.904 34.3372 121.201 34.3217C122.221 34.3178 123.242 34.3178 124.262 34.314C125.749 34.314 127.231 34.3101 128.717 34.2984C129.532 34.3062 130.343 34.2286 131.135 34.0734C132.97 33.6853 133.584 32.9519 133.653 31.0542C133.685 30.185 133.716 29.3118 133.727 28.4426C133.735 27.876 133.731 27.3133 133.727 26.7467L133.723 20.6736C133.723 19.5249 134.305 18.9351 135.45 18.9234L135.924 18.9195C136.242 18.9157 136.56 18.9157 136.878 18.9234C137.779 18.9506 138.33 19.4318 138.473 20.3204C138.508 20.5533 138.524 20.7861 138.524 21.0151L138.528 23.8596C138.528 25.7611 138.531 27.6587 138.524 29.5602C138.528 30.7166 138.446 31.8808 138.275 33.0256C137.825 35.9011 136.35 37.3835 133.347 37.9811C132.233 38.1985 131.096 38.311 129.963 38.3188L128.605 38.3343C127.805 38.3576 126.994 38.3692 126.183 38.3692ZM128.717 34.9465C127.235 34.9581 125.749 34.962 124.262 34.962C123.242 34.962 122.225 34.962 121.204 34.9698C120.254 34.9814 120.161 35.5286 120.13 35.7071C119.943 36.782 120.393 37.1119 120.809 37.2787C121.398 37.5193 122.031 37.5776 122.687 37.6241C124.65 37.7599 126.657 37.7328 128.597 37.7056L129.959 37.6901C131.053 37.6823 132.152 37.5737 133.223 37.3641C135.951 36.8208 137.231 35.5402 137.639 32.9402C137.806 31.8304 137.887 30.6972 137.879 29.5718C137.887 27.6703 137.883 25.7727 137.883 23.8712L137.879 21.0228C137.883 20.8249 137.868 20.6231 137.837 20.4291C137.744 19.8509 137.449 19.5948 136.859 19.5754C136.548 19.5676 136.238 19.5715 135.928 19.5715L135.45 19.5754C134.659 19.5831 134.364 19.8858 134.364 20.6852L134.368 26.7506C134.371 27.3211 134.375 27.8915 134.368 28.4581C134.356 29.3312 134.325 30.2083 134.294 31.0814C134.212 33.2739 133.393 34.2596 131.263 34.7059C130.421 34.8766 129.563 34.9543 128.717 34.9465Z" fill="#7866D5"/>
<path d="M146.31 28.5945C146.31 31.1713 146.31 33.748 146.31 36.3247C146.31 37.5161 145.902 37.9158 144.703 37.9197C144.303 37.9197 143.9 37.9313 143.5 37.9197C142.646 37.8847 142.188 37.4229 142.146 36.5692C142.134 36.3402 142.146 36.1113 142.146 35.8823V20.9303C142.146 19.6575 142.549 19.2539 143.807 19.25C144.164 19.25 144.525 19.25 144.882 19.25C145.828 19.2616 146.306 19.7312 146.31 20.6897C146.314 23.3246 146.31 25.9596 146.31 28.5945Z" fill="#7866D5"/>
<path d="M143.901 38.2455C143.765 38.2455 143.63 38.2455 143.494 38.2416C142.469 38.1989 141.879 37.6129 141.825 36.5885C141.817 36.4294 141.821 36.2703 141.821 36.1111L141.825 35.8861V20.9302C141.825 19.4749 142.361 18.9316 143.808 18.9316H144.883C146.008 18.9472 146.629 19.5719 146.633 20.6934C146.633 22.3582 146.633 24.0191 146.633 25.6839V36.3285C146.633 37.6867 146.074 38.2416 144.708 38.2455L144.309 38.2494C144.169 38.2455 144.033 38.2455 143.901 38.2455ZM144.875 19.5719H143.804C142.725 19.5719 142.465 19.8397 142.465 20.9302L142.462 36.1189C142.458 36.2664 142.458 36.41 142.462 36.5535C142.497 37.2482 142.819 37.5703 143.509 37.5974C143.765 37.6052 144.029 37.6013 144.293 37.6013L144.697 37.5974C145.717 37.5974 145.981 37.3335 145.981 36.3246V25.68C145.981 24.0153 145.981 22.3543 145.981 20.6896C145.985 19.9173 145.655 19.5836 144.875 19.5719Z" fill="#7866D5"/>
</g>
<defs>
<clipPath id="clip0_1353_5567">
<rect width="173.518" height="55" fill="white" transform="translate(0.875 0.774414)"/>
</clipPath>
</defs>
</svg>
