<svg width="277" height="56" viewBox="0 0 277 56" fill="none" xmlns="http://www.w3.org/2000/svg">
<path d="M57.6 26.4562C57.6 29.4948 55.1139 31.9809 52.0754 31.9809C49.0369 31.9809 46.5508 29.4948 46.5508 26.4562C46.5508 23.4177 49.0369 20.9316 52.0754 20.9316C55.16 20.9316 57.6 23.4177 57.6 26.4562Z" fill="#FFE000"/>
<path d="M62.6177 23.7402C62.5717 23.8323 62.4796 23.9243 62.4336 24.0624C62.5256 23.9243 62.5717 23.8323 62.6177 23.7402Z" fill="#7CC042"/>
<path d="M62.6177 23.7402C62.5717 23.8323 62.4796 23.9243 62.4336 24.0624C62.5256 23.9243 62.5717 23.8323 62.6177 23.7402Z" fill="#737A99"/>
<path d="M75.7876 3.02275C75.0049 4.26578 64.7384 20.4252 63.7255 21.9905C63.4953 22.3589 63.2652 22.6811 63.035 23.0494C62.8969 23.2796 62.7587 23.5098 62.6206 23.74C61.5617 19.5966 58.0628 16.3739 53.7812 15.7293C53.9654 15.4071 59.9964 5.87712 61.5157 3.43709C61.6999 3.16086 61.838 2.93066 62.2523 2.93066C66.672 2.93066 71.1377 2.93066 75.5574 2.93066C75.6034 2.9767 75.6495 2.97671 75.7876 3.02275Z" fill="#6BBD44"/>
<path d="M78.3619 49.9361C76.152 52.5603 73.6199 54.4479 70.4433 55.1845C66.0696 56.1973 61.9262 55.737 58.1971 53.0667C55.4808 51.0871 53.8234 48.3708 52.6264 45.3323C52.5804 45.2402 52.5343 45.1481 52.4883 45.01L52.4423 44.9179C52.12 44.0893 51.6136 42.616 51.0611 41.0047C50.6468 39.7156 50.2324 38.3344 49.9102 37.1374C50.6007 37.2756 51.3373 37.3676 52.0279 37.3676C55.2506 37.3676 58.151 35.9405 60.1767 33.7306V33.6846C60.9133 35.4801 61.6499 38.3345 62.3866 40.5443C62.5707 41.1428 62.8009 41.6952 62.985 42.2017C63.7677 44.2274 64.6424 46.161 66.2538 47.6342C66.3459 47.7263 66.484 47.8184 66.576 47.9104C68.6938 49.6599 71.1799 50.1203 73.8041 50.2124C75.3233 50.2584 76.7045 50.0742 78.3619 49.9361Z" fill="#EC1E2D"/>
<path d="M42.8683 32.2571C40.2901 35.8481 37.4818 39.301 34.2131 42.3395C31.4508 44.9177 28.5043 47.2196 24.9133 48.6008C23.5322 49.1072 22.151 49.4295 20.6778 49.4295C16.5343 49.4295 13.5879 46.8513 12.6671 42.5237C11.8844 38.6565 12.2988 34.8813 13.3577 31.1522C15.3373 24.2925 18.8823 18.2154 23.5322 12.7829C25.6499 10.3429 28.0439 8.22511 31.2206 7.21226C33.4764 6.52169 35.7323 6.2915 37.8961 7.44245C39.5995 8.31718 40.7505 9.69835 41.6713 11.3097C43.0064 13.5656 43.8351 16.0516 44.5257 18.5377C46.4593 16.6962 49.0835 15.5913 51.9839 15.5913C52.5824 15.5913 53.1348 15.6373 53.6873 15.7294C53.7333 15.6833 53.9635 15.269 54.3318 14.7165C53.8254 13.5656 53.4111 12.5527 52.9507 11.5399C51.4774 8.40927 49.4518 5.64697 46.5513 3.71336C43.0985 1.3654 39.2312 0.628776 35.1338 0.997083C29.8855 1.45747 24.9593 2.97674 20.4936 5.73904C13.3577 10.1587 7.78703 16.0056 3.87377 23.4178C1.34166 28.1597 -0.0855262 33.1779 0.328819 38.6104C0.835241 45.6083 4.3802 50.6265 10.6414 53.665C15.5215 56.059 20.7238 56.2431 25.9722 55.5986C30.3458 55.0461 34.4893 53.6189 38.2644 51.4091C42.8683 48.7389 46.8736 45.24 50.6027 41.4648C50.7408 41.3267 50.8329 41.1425 51.0171 41.0505C50.6027 39.7614 50.1884 38.3802 49.8661 37.1832C47.0117 36.5387 44.4336 34.7432 42.8683 32.2571Z" fill="#00C0F2"/>
<path d="M102.626 32.3492H92.0372L89.9654 37.2293H85.9141L95.444 16.0977H99.3112L108.841 37.2293H104.744L102.626 32.3492ZM101.291 29.2646L97.2855 20.0109L93.3262 29.2646H101.291Z" fill="#737A99"/>
<path d="M114.92 14.8545H111.145V37.2291H114.92V14.8545Z" fill="#737A99"/>
<path d="M136.97 29.1725C136.97 34.1907 133.517 37.4594 128.775 37.4594C126.703 37.4594 124.908 36.7688 123.619 35.2956V43.1221H119.844V21.1158H123.435V23.2336C124.724 21.7143 126.565 20.9316 128.775 20.9316C133.517 20.9316 136.97 24.2004 136.97 29.1725ZM133.149 29.1725C133.149 26.0879 131.077 24.1543 128.361 24.1543C125.645 24.1543 123.573 26.134 123.573 29.1725C123.573 32.2571 125.645 34.1907 128.361 34.1907C131.077 34.2367 133.149 32.2571 133.149 29.1725Z" fill="#737A99"/>
<path d="M156.446 28.0215V37.2291H152.671V28.4819C152.671 25.6275 151.243 24.2463 148.849 24.2463C146.179 24.2463 144.338 25.8577 144.338 29.1264V37.2291H140.562V14.8545H144.338V23.0033C145.581 21.6682 147.468 20.9316 149.724 20.9316C153.545 20.9316 156.446 23.1414 156.446 28.0215Z" fill="#737A99"/>
<path d="M174.719 27.7914V37.2292H171.174V35.2496C170.253 36.6307 168.504 37.4134 166.11 37.4134C162.427 37.4134 160.125 35.3877 160.125 32.5793C160.125 29.9091 161.921 27.7914 166.847 27.7914H170.99V27.5612C170.99 25.3513 169.655 24.0622 166.985 24.0622C165.189 24.0622 163.302 24.6607 162.105 25.6736L160.631 22.9113C162.335 21.5762 164.867 20.9316 167.445 20.9316C172.003 20.9316 174.719 23.1415 174.719 27.7914ZM170.944 32.211V30.3235H167.031C164.453 30.3235 163.762 31.2903 163.762 32.4873C163.762 33.8684 164.913 34.7432 166.847 34.7432C168.688 34.6971 170.299 33.8684 170.944 32.211Z" fill="#737A99"/>
<path d="M210.769 16.0977L203.771 37.2293H199.582L194.379 21.6223L189.039 37.2293H184.849L177.852 16.0977H181.949L187.197 32.165L192.63 16.0977H196.267L201.607 32.2571L207.04 16.0977H210.769Z" fill="#737A99"/>
<path d="M225.872 27.7914V37.2292H222.327V35.2496C221.406 36.6307 219.656 37.4134 217.262 37.4134C213.579 37.4134 211.277 35.3877 211.277 32.5793C211.277 29.9091 213.073 27.7914 217.999 27.7914H222.142V27.5612C222.142 25.3513 220.807 24.0622 218.137 24.0622C216.342 24.0622 214.454 24.6607 213.257 25.6736L211.784 22.9113C213.487 21.5762 216.019 20.9316 218.597 20.9316C223.201 20.9316 225.872 23.1415 225.872 27.7914ZM222.096 32.211V30.3235H218.183C215.605 30.3235 214.914 31.2903 214.914 32.4873C214.914 33.8684 216.065 34.7432 217.999 34.7432C219.84 34.6971 221.452 33.8684 222.096 32.211Z" fill="#737A99"/>
<path d="M234.478 14.8545H230.703V37.2291H234.478V14.8545Z" fill="#737A99"/>
<path d="M243.181 14.8545H239.406V37.2291H243.181V14.8545Z" fill="#737A99"/>
<path d="M263.205 30.3696H250.545C251.005 32.7176 252.939 34.2369 255.747 34.2369C257.543 34.2369 258.97 33.6844 260.121 32.4874L262.146 34.7893C260.719 36.4928 258.417 37.4135 255.655 37.4135C250.268 37.4135 246.77 33.9606 246.77 29.1266C246.77 24.3386 250.315 20.8857 255.102 20.8857C259.798 20.8857 263.251 24.1545 263.251 29.2187C263.251 29.587 263.251 30.0013 263.205 30.3696ZM250.545 27.8836H259.706C259.384 25.5817 257.635 23.9703 255.149 23.9703C252.662 23.9703 250.913 25.5356 250.545 27.8836Z" fill="#737A99"/>
<path d="M276.561 36.3541C275.641 37.0907 274.306 37.459 272.924 37.459C269.38 37.459 267.354 35.5715 267.354 32.0265V24.246H264.684V21.2075H267.354V17.5244H271.129V21.2075H275.457V24.246H271.129V31.9344C271.129 33.4997 271.912 34.3284 273.385 34.3284C274.168 34.3284 274.904 34.0982 275.503 33.6839L276.561 36.3541Z" fill="#737A99"/>
</svg>
