<svg width="301" height="57" viewBox="0 0 301 57" fill="none" xmlns="http://www.w3.org/2000/svg">
<path d="M266.005 28.6356C264.454 27.5781 262.762 26.8731 261.07 25.9566C260.012 25.3926 258.884 24.8286 257.968 24.0531C256.417 22.7842 256.699 20.2462 258.391 19.1182C260.717 17.5672 264.595 18.4132 265.018 21.5857C265.018 21.6562 265.088 21.7267 265.159 21.7267H268.684C268.754 21.7267 268.825 21.6562 268.825 21.5857C268.613 19.4002 267.767 17.5672 266.216 16.3687C264.736 15.2407 263.044 14.6768 261.211 14.6768C251.905 14.6768 251.059 24.5466 256.064 27.6486C256.628 28.0011 261.563 30.4685 263.326 31.5965C265.088 32.654 265.582 34.628 264.877 36.179C264.172 37.589 262.409 38.5759 260.647 38.4349C258.673 38.2939 257.192 37.2365 256.628 35.615C256.558 35.333 256.487 34.769 256.487 34.487C256.487 34.4165 256.417 34.346 256.346 34.346H252.539C252.469 34.346 252.398 34.4165 252.398 34.487C252.398 37.2365 253.103 38.7874 254.936 40.1974C256.699 41.5369 258.602 42.1009 260.647 42.1009C265.864 42.1009 268.543 39.1399 269.107 36.1085C269.53 33.1475 268.684 30.4686 266.005 28.6356Z" fill="#737A99"/>
<path d="M99.8402 15.2412H98.1482H96.3152C96.2447 15.2412 96.1742 15.3117 96.1742 15.3117L93.0018 25.6751C92.9313 25.8161 92.7903 25.8161 92.7198 25.6751L89.5473 15.3117C89.5473 15.2412 89.4768 15.2412 89.4063 15.2412H87.5733H85.8814H83.6254C83.5549 15.2412 83.4844 15.3117 83.4844 15.3822V41.8194C83.4844 41.8899 83.5549 41.9604 83.6254 41.9604H87.4323C87.5028 41.9604 87.5733 41.8899 87.5733 41.8194V21.7271C87.5733 21.5861 87.7848 21.5156 87.8553 21.6566L91.0278 32.0905L91.2393 32.7955C91.2393 32.866 91.3098 32.866 91.3803 32.866H94.3412C94.4117 32.866 94.4822 32.7955 94.4822 32.7955L94.6937 32.0905L97.8662 21.6566C97.9367 21.5156 98.1482 21.5156 98.1482 21.7271V41.8194C98.1482 41.8899 98.2187 41.9604 98.2892 41.9604H102.096C102.167 41.9604 102.237 41.8899 102.237 41.8194V15.3822C102.237 15.3117 102.167 15.2412 102.096 15.2412H99.8402Z" fill="#737A99"/>
<path d="M207.421 15.2412C207.35 15.2412 207.28 15.3117 207.28 15.3117L204.107 25.6751C204.037 25.8161 203.896 25.8161 203.825 25.6751L200.653 15.3117C200.653 15.2412 200.582 15.2412 200.512 15.2412H194.661C194.59 15.2412 194.52 15.3117 194.52 15.3822V41.8194C194.52 41.8899 194.59 41.9604 194.661 41.9604H198.467C198.538 41.9604 198.608 41.8899 198.608 41.8194V21.7271C198.608 21.5861 198.82 21.5156 198.89 21.6566L202.063 32.0905L202.274 32.7955C202.274 32.866 202.345 32.866 202.415 32.866H205.376C205.447 32.866 205.517 32.7955 205.517 32.7955L205.729 32.0905L208.901 21.6566C208.972 21.5156 209.183 21.5156 209.183 21.7271V41.8194C209.183 41.8899 209.254 41.9604 209.324 41.9604H213.131C213.202 41.9604 213.272 41.8899 213.272 41.8194V15.3822C213.272 15.3117 213.202 15.2412 213.131 15.2412H207.421Z" fill="#737A99"/>
<path d="M158.072 15.2412H150.951H147.144H139.954C139.883 15.2412 139.812 15.3117 139.812 15.3822V18.6957C139.812 18.7662 139.883 18.8367 139.954 18.8367H146.933V41.8194C146.933 41.8899 147.003 41.9604 147.074 41.9604H150.881C150.951 41.9604 151.022 41.8899 151.022 41.8194V18.8367H158.001C158.072 18.8367 158.142 18.7662 158.142 18.6957V15.3822C158.213 15.3117 158.142 15.2412 158.072 15.2412Z" fill="#737A99"/>
<path d="M180.632 41.9596H184.087C184.157 41.9596 184.228 41.8891 184.228 41.7481L177.037 15.2404C177.037 15.1699 176.966 15.1699 176.896 15.1699H175.556H173.23H171.89C171.82 15.1699 171.75 15.2404 171.75 15.2404L164.559 41.7481C164.559 41.8186 164.629 41.9596 164.7 41.9596H168.154C168.225 41.9596 168.295 41.8891 168.295 41.8891L170.41 34.1342C170.41 34.0637 170.481 34.0637 170.551 34.0637H178.235C178.306 34.0637 178.376 34.1342 178.376 34.1342L180.491 41.8891C180.491 41.8891 180.562 41.9596 180.632 41.9596ZM171.468 30.2567L174.287 19.8934C174.358 19.7524 174.499 19.7524 174.569 19.8934L177.389 30.2567C177.389 30.3272 177.319 30.4682 177.248 30.4682H171.679C171.538 30.4682 171.468 30.3272 171.468 30.2567Z" fill="#737A99"/>
<path d="M239.992 41.9596H243.446C243.517 41.9596 243.587 41.8891 243.587 41.7481L236.396 15.2404C236.396 15.1699 236.326 15.1699 236.255 15.1699H234.916H232.589H231.25C231.179 15.1699 231.109 15.2404 231.109 15.2404L223.918 41.7481C223.918 41.8186 223.988 41.9596 224.059 41.9596H227.513C227.584 41.9596 227.654 41.8891 227.654 41.8891L229.769 34.1342C229.769 34.0637 229.84 34.0637 229.91 34.0637H237.595C237.665 34.0637 237.736 34.1342 237.736 34.1342L239.851 41.8891C239.851 41.8891 239.921 41.9596 239.992 41.9596ZM230.827 30.2567L233.647 19.8934C233.717 19.7524 233.858 19.7524 233.929 19.8934L236.749 30.2567C236.749 30.3272 236.678 30.4682 236.608 30.4682H231.038C230.897 30.4682 230.827 30.3272 230.827 30.2567Z" fill="#737A99"/>
<path d="M117.745 38.0124V29.8345C117.745 29.764 117.816 29.6935 117.886 29.6935H128.109C128.179 29.6935 128.25 29.623 128.25 29.5525V26.2391C128.25 26.1686 128.179 26.0981 128.109 26.0981H117.886C117.816 26.0981 117.745 26.0276 117.745 25.9571V18.9777C117.745 18.9072 117.816 18.8367 117.886 18.8367H129.448C129.519 18.8367 129.589 18.7662 129.589 18.6957V15.3822C129.589 15.3117 129.519 15.2412 129.448 15.2412H117.745H113.797C113.727 15.2412 113.656 15.3117 113.656 15.3822V18.8367V26.1686V29.764V38.2239V41.8194C113.656 41.8899 113.727 41.9604 113.797 41.9604H117.745H129.942C130.012 41.9604 130.083 41.8899 130.083 41.8194V38.3649C130.083 38.2944 130.012 38.2239 129.942 38.2239H117.816C117.816 38.1534 117.745 38.0829 117.745 38.0124Z" fill="#737A99"/>
<path d="M300.973 41.6776L287.719 28.0008C287.649 27.9303 287.649 27.8597 287.719 27.7893L299.634 15.3814C299.704 15.3109 299.634 15.1699 299.563 15.1699H294.699C294.628 15.1699 294.628 15.1699 294.628 15.2404L284.476 25.8153C284.406 25.8858 284.265 25.8153 284.265 25.7448V15.4519C284.265 15.3814 284.194 15.3109 284.124 15.3109H280.246C280.176 15.3109 280.105 15.3814 280.105 15.4519V41.8891C280.105 41.9596 280.176 42.0301 280.246 42.0301H284.053C284.124 42.0301 284.194 41.9596 284.194 41.8891V30.2567C284.194 30.1157 284.335 30.0452 284.406 30.1862L295.827 42.0301L295.897 42.1006H300.762C300.973 41.9596 301.044 41.7481 300.973 41.6776Z" fill="#737A99"/>
<path d="M57.3268 1L34.2031 18.2018L38.5036 8.04991L57.3268 1Z" fill="#E17726" stroke="#E17726" stroke-linecap="round" stroke-linejoin="round"/>
<path d="M3.89062 1L26.8733 18.3428L22.7844 8.04991L3.89062 1Z" fill="#E27625" stroke="#E27625" stroke-linecap="round" stroke-linejoin="round"/>
<path d="M49.0086 40.832L42.8047 50.2789L56.0585 53.9449L59.795 41.0435L49.0086 40.832Z" fill="#E27625" stroke="#E27625" stroke-linecap="round" stroke-linejoin="round"/>
<path d="M1.49219 41.0435L5.22864 53.9449L18.412 50.2789L12.2785 40.832L1.49219 41.0435Z" fill="#E27625" stroke="#E27625" stroke-linecap="round" stroke-linejoin="round"/>
<path d="M17.7089 24.899L14.043 30.4684L27.0853 31.0324L26.6623 16.9326L17.7089 24.899Z" fill="#E27625" stroke="#E27625" stroke-linecap="round" stroke-linejoin="round"/>
<path d="M43.5795 24.8994L34.4851 16.792L34.2031 31.0328L47.2455 30.4688L43.5795 24.8994Z" fill="#E27625" stroke="#E27625" stroke-linecap="round" stroke-linejoin="round"/>
<path d="M18.4141 50.2791L26.31 46.4722L19.4715 41.1143L18.4141 50.2791Z" fill="#E27625" stroke="#E27625" stroke-linecap="round" stroke-linejoin="round"/>
<path d="M34.9766 46.4722L42.802 50.2791L41.7445 41.1143L34.9766 46.4722Z" fill="#E27625" stroke="#E27625" stroke-linecap="round" stroke-linejoin="round"/>
<path d="M42.8059 50.2786L34.9805 46.4717L35.615 51.5476L35.5445 53.7331L42.8059 50.2786Z" fill="#D5BFB2" stroke="#D5BFB2" stroke-linecap="round" stroke-linejoin="round"/>
<path d="M18.4141 50.2786L25.746 53.7331L25.6755 51.5476L26.31 46.4717L18.4141 50.2786Z" fill="#D5BFB2" stroke="#D5BFB2" stroke-linecap="round" stroke-linejoin="round"/>
<path d="M25.8845 37.7304L19.3281 35.8269L23.9106 33.7119L25.8845 37.7304Z" fill="#233447" stroke="#233447" stroke-linecap="round" stroke-linejoin="round"/>
<path d="M35.4062 37.7304L37.3097 33.7119L41.9627 35.8269L35.4062 37.7304Z" fill="#233447" stroke="#233447" stroke-linecap="round" stroke-linejoin="round"/>
<path d="M18.4147 50.2789L19.5427 40.832L12.2812 41.0435L18.4147 50.2789Z" fill="#CC6228" stroke="#CC6228" stroke-linecap="round" stroke-linejoin="round"/>
<path d="M41.75 40.832L42.8075 50.2789L49.0114 41.0435L41.75 40.832Z" fill="#CC6228" stroke="#CC6228" stroke-linecap="round" stroke-linejoin="round"/>
<path d="M47.2494 30.4688L34.207 31.0327L35.4055 37.7302L37.309 33.7117L41.9619 35.8267L47.2494 30.4688Z" fill="#CC6228" stroke="#CC6228" stroke-linecap="round" stroke-linejoin="round"/>
<path d="M19.3304 35.8267L23.9128 33.7117L25.8868 37.7302L27.0853 31.0327L14.043 30.4688L19.3304 35.8267Z" fill="#CC6228" stroke="#CC6228" stroke-linecap="round" stroke-linejoin="round"/>
<path d="M14.043 30.4688L19.4714 41.1141L19.3304 35.8267L14.043 30.4688Z" fill="#E27525" stroke="#E27525" stroke-linecap="round" stroke-linejoin="round"/>
<path d="M41.9615 35.8267L41.75 41.1141L47.2489 30.4688L41.9615 35.8267Z" fill="#E27525" stroke="#E27525" stroke-linecap="round" stroke-linejoin="round"/>
<path d="M27.0852 31.0332L25.8867 37.7306L27.3672 45.697L27.7197 35.1926L27.0852 31.0332Z" fill="#E27525" stroke="#E27525" stroke-linecap="round" stroke-linejoin="round"/>
<path d="M34.2048 31.0332L33.5703 35.1926L33.8523 45.697L35.4033 37.7306L34.2048 31.0332Z" fill="#E27525" stroke="#E27525" stroke-linecap="round" stroke-linejoin="round"/>
<path d="M35.4025 37.7296L33.8516 45.696L34.9795 46.4715L41.7475 41.1136L41.959 35.8262L35.4025 37.7296Z" fill="#F5841F" stroke="#F5841F" stroke-linecap="round" stroke-linejoin="round"/>
<path d="M19.3281 35.8262L19.4691 41.1136L26.3075 46.4715L27.365 45.696L25.8845 37.7296L19.3281 35.8262Z" fill="#F5841F" stroke="#F5841F" stroke-linecap="round" stroke-linejoin="round"/>
<path d="M35.5453 53.7337L35.6158 51.5483L34.9813 51.0548H26.2395L25.6755 51.5483L25.746 53.7337L18.4141 50.2793L20.952 52.3943L26.169 55.9897H35.0518L40.2688 52.3943L42.8067 50.2793L35.5453 53.7337Z" fill="#C0AC9D" stroke="#C0AC9D" stroke-linecap="round" stroke-linejoin="round"/>
<path d="M34.9778 46.4718L33.8498 45.6963H27.3639L26.3064 46.4718L25.6719 51.5477L26.2359 51.0542H34.9778L35.6122 51.5477L34.9778 46.4718Z" fill="#737A99" stroke="#737A99" stroke-linecap="round" stroke-linejoin="round"/>
<path d="M58.3157 19.3298L60.2896 9.81238L57.3287 1L34.9805 17.6378L43.5814 24.8992L55.7072 28.4241L58.3862 25.3222L57.2582 24.4762L59.0911 22.7842L57.6812 21.6562L59.5141 20.2462L58.3157 19.3298Z" fill="#763E1A" stroke="#763E1A" stroke-linecap="round" stroke-linejoin="round"/>
<path d="M1 9.81238L2.97397 19.3298L1.70499 20.2462L3.53797 21.6562L2.12798 22.7842L4.03146 24.4762L2.83297 25.3222L5.51194 28.4241L17.7083 24.8992L26.3092 17.6378L3.89046 1L1 9.81238Z" fill="#763E1A" stroke="#763E1A" stroke-linecap="round" stroke-linejoin="round"/>
<path d="M55.7088 28.4244L43.583 24.8994L47.2489 30.4688L41.75 41.1142L49.0114 41.0437H59.7978L55.7088 28.4244Z" fill="#F5841F" stroke="#F5841F" stroke-linecap="round" stroke-linejoin="round"/>
<path d="M17.707 24.8994L5.51064 28.4244L1.49219 41.0437H12.2785L19.4695 41.1142L14.041 30.4688L17.707 24.8994Z" fill="#F5841F" stroke="#F5841F" stroke-linecap="round" stroke-linejoin="round"/>
<path d="M34.206 31.0325L34.9815 17.6377L38.5064 8.0498H22.7852L26.3101 17.6377L27.0856 31.0325L27.3676 35.2624V45.6963H33.8535V35.2624L34.206 31.0325Z" fill="#F5841F" stroke="#F5841F" stroke-linecap="round" stroke-linejoin="round"/>
</svg>
