<svg width="302" height="56" viewBox="0 0 302 56" fill="none" xmlns="http://www.w3.org/2000/svg">
<path d="M28.3125 55.4473C43.5003 55.4473 55.8125 43.1351 55.8125 27.9473C55.8125 12.7594 43.5003 0.447266 28.3125 0.447266C13.1247 0.447266 0.8125 12.7594 0.8125 27.9473C0.8125 43.1351 13.1247 55.4473 28.3125 55.4473Z" fill="#0052FF"/>
<path d="M37.7938 29.7414C36.9536 34.1932 33.0475 37.5594 28.3521 37.5594C23.0432 37.5594 18.7405 33.2567 18.7405 27.9478C18.7405 22.6389 23.0432 18.3362 28.3521 18.3362C33.0475 18.3362 36.9536 21.7043 37.7938 26.1542H47.4922C46.5879 16.3784 38.3639 8.72461 28.3521 8.72461C17.7342 8.72461 9.12891 17.3318 9.12891 27.9478C9.12891 38.5657 17.7361 47.171 28.3521 47.171C38.3639 47.171 46.5879 39.5172 47.4922 29.7414H37.7938Z" fill="white"/>
<path d="M107.227 15.5902C99.6713 15.5902 93.7676 21.3258 93.7676 29.0042C93.7676 36.6844 99.5221 42.369 107.227 42.369C114.932 42.369 120.786 36.5843 120.786 28.9551C120.784 21.3749 115.032 15.5902 107.227 15.5902ZM107.276 36.8354C102.973 36.8354 99.8204 33.4937 99.8204 29.006C99.8204 24.4674 102.922 21.1276 107.225 21.1276C111.579 21.1276 114.73 24.5184 114.73 29.006C114.731 33.4937 111.579 36.8354 107.276 36.8354ZM122.436 21.4259H126.19V41.8725H132.193V16.0905H122.436V21.4259ZM78.6583 21.1257C81.8112 21.1257 84.3127 23.0703 85.2624 25.9626H91.6172C90.4656 19.7796 85.3624 15.5902 78.7093 15.5902C71.1536 15.5902 65.25 21.3258 65.25 29.0042C65.25 36.6844 71.0045 42.369 78.7093 42.369C85.2133 42.369 90.4165 38.1796 91.5681 31.9456H85.2642C84.3637 34.8379 81.8621 36.8335 78.7093 36.8335C74.3556 36.8335 71.3047 33.4918 71.3047 29.0042C71.3028 24.4674 74.3046 21.1257 78.6583 21.1257ZM236.51 26.512L232.108 25.8645C230.006 25.5662 228.506 24.8676 228.506 23.2213C228.506 21.4259 230.458 20.5291 233.108 20.5291C236.01 20.5291 237.862 21.7752 238.262 23.8198H244.066C243.415 18.6336 239.412 15.5921 233.259 15.5921C226.905 15.5921 222.702 18.8337 222.702 23.4215C222.702 27.8091 225.455 30.354 231.007 31.1508L235.41 31.7983C237.562 32.0966 238.763 32.9462 238.763 34.5415C238.763 36.5862 236.661 37.4339 233.76 37.4339C230.207 37.4339 228.205 35.9877 227.905 33.7939H222.001C222.553 38.831 226.504 42.3709 233.709 42.3709C240.264 42.3709 244.615 39.3785 244.615 34.2413C244.615 29.6536 241.463 27.2597 236.51 26.512ZM129.189 5.46699C126.988 5.46699 125.336 7.06231 125.336 9.25612C125.336 11.4499 126.988 13.0471 129.189 13.0471C131.391 13.0471 133.043 11.4518 133.043 9.258C133.043 7.06419 131.393 5.46699 129.189 5.46699ZM217.297 24.9167C217.297 19.3321 213.895 15.5921 206.69 15.5921C199.886 15.5921 196.084 19.0338 195.332 24.3201H201.287C201.587 22.2755 203.188 20.5801 206.59 20.5801C209.643 20.5801 211.144 21.9262 211.144 23.5725C211.144 25.7172 208.391 26.2647 204.989 26.614C200.386 27.1124 194.683 28.7077 194.683 34.6926C194.683 39.3313 198.136 42.3218 203.639 42.3218C207.942 42.3218 210.644 40.5263 211.995 37.6831C212.195 40.2262 214.097 41.8725 216.749 41.8725H220.251V36.5371H217.299V24.9167H217.297ZM211.393 31.4C211.393 34.8417 208.391 37.3848 204.738 37.3848C202.486 37.3848 200.584 36.437 200.584 34.4434C200.584 31.9003 203.637 31.2017 206.439 30.9034C209.141 30.6542 210.642 30.0557 211.393 28.9079V31.4ZM179.522 15.5902C176.169 15.5902 173.368 16.9873 171.366 19.3303V5.21777H165.363V41.8725H171.266V38.4817C173.268 40.9247 176.12 42.3709 179.522 42.3709C186.727 42.3709 192.181 36.6862 192.181 29.006C192.181 21.3258 186.627 15.5902 179.522 15.5902ZM178.622 36.8354C174.319 36.8354 171.166 33.4937 171.166 29.006C171.166 24.5184 174.368 21.1276 178.671 21.1276C183.025 21.1276 186.076 24.4693 186.076 29.006C186.077 33.4937 182.925 36.8354 178.622 36.8354ZM151.005 15.5902C147.102 15.5902 144.55 17.1855 143.049 19.4303V16.0886H137.094V41.8706H143.098V27.8582C143.098 23.918 145.6 21.1257 149.302 21.1257C152.755 21.1257 154.905 23.5687 154.905 27.1105V41.8725H160.909V26.6631C160.911 20.1798 157.558 15.5902 151.005 15.5902ZM273.233 28.1583C273.233 20.7783 267.83 15.5921 260.574 15.5921C252.87 15.5921 247.215 21.3768 247.215 29.006C247.215 37.0355 253.27 42.3709 260.674 42.3709C266.929 42.3709 271.832 38.6799 273.082 33.4446H266.827C265.927 35.7385 263.725 37.0355 260.773 37.0355C256.919 37.0355 254.017 34.6416 253.368 30.4522H273.231V28.1583H273.233ZM253.721 26.1628C254.673 22.5719 257.374 20.8274 260.476 20.8274C263.878 20.8274 266.48 22.772 267.08 26.1628H253.721Z" fill="#0052FF"/>
</svg>
