<svg width="219" height="56" viewBox="0 0 219 56" fill="none" xmlns="http://www.w3.org/2000/svg">
<path d="M72.9239 22.5579H66.9531V19.0389H83.2122V22.5579H77.2414V37.6979H72.9239V22.5579ZM87.3027 25.25C87.8 24.5568 88.4667 24.0324 89.3016 23.6769C90.1544 23.3219 91.1317 23.1439 92.2334 23.1439V26.9826C91.7718 26.9469 91.4607 26.929 91.3005 26.929C90.11 26.929 89.1771 27.2667 88.5018 27.942C87.8265 28.5995 87.4888 29.5946 87.4888 30.9274V37.6979H83.3309V23.3571H87.3027V25.25ZM107.658 23.3571V37.6979H103.713V35.9918C103.162 36.6135 102.504 37.0935 101.74 37.4311C100.976 37.7509 100.15 37.9111 99.2615 37.9111C97.3778 37.9111 95.8854 37.3689 94.7837 36.285C93.682 35.2012 93.1311 33.593 93.1311 31.4604V23.3571H97.2891V30.8473C97.2891 33.1574 98.2577 34.3127 100.194 34.3127C101.19 34.3127 101.989 33.9929 102.594 33.3527C103.198 32.6952 103.5 31.7272 103.5 30.4474V23.3571H107.658ZM114.736 37.9111C113.545 37.9111 112.381 37.7688 111.244 37.4847C110.106 37.1822 109.2 36.8094 108.525 36.3651L109.911 33.3798C110.551 33.7883 111.323 34.126 112.23 34.3922C113.136 34.6411 114.025 34.7656 114.895 34.7656C116.655 34.7656 117.534 34.3305 117.534 33.4593C117.534 33.0508 117.294 32.7575 116.815 32.58C116.335 32.4025 115.597 32.251 114.602 32.1265C113.429 31.949 112.461 31.7445 111.697 31.514C110.933 31.2829 110.267 30.8738 109.698 30.2878C109.147 29.7012 108.872 28.8663 108.872 27.7818C108.872 26.876 109.129 26.0762 109.644 25.3831C110.177 24.672 110.941 24.1212 111.936 23.7305C112.949 23.3398 114.14 23.1439 115.508 23.1439C116.521 23.1439 117.525 23.2597 118.52 23.4908C119.533 23.704 120.369 24.0059 121.026 24.3966L119.64 27.3554C118.379 26.645 117.001 26.2894 115.508 26.2894C114.62 26.2894 113.954 26.4139 113.51 26.6623C113.065 26.9112 112.843 27.231 112.843 27.6222C112.843 28.0665 113.083 28.3771 113.563 28.5551C114.043 28.7326 114.807 28.9014 115.855 29.0616C117.028 29.257 117.987 29.4702 118.734 29.7012C119.48 29.9144 120.129 30.3143 120.679 30.9009C121.23 31.4869 121.506 32.3046 121.506 33.3527C121.506 34.2412 121.239 35.0324 120.706 35.725C120.173 36.4182 119.391 36.9604 118.361 37.351C117.348 37.7244 116.139 37.9111 114.736 37.9111ZM131.721 37.0047C131.313 37.3067 130.806 37.5377 130.202 37.6979C129.616 37.8397 128.994 37.9111 128.336 37.9111C126.631 37.9111 125.306 37.4755 124.365 36.6049C123.441 35.7342 122.978 34.4544 122.978 32.7667V26.876H120.766V23.6769H122.978V20.1856H127.136V23.6769H130.708V26.876H127.136V32.7131C127.136 33.3175 127.288 33.7883 127.59 34.126C127.91 34.4458 128.354 34.606 128.923 34.606C129.58 34.606 130.14 34.4279 130.602 34.0724L131.721 37.0047ZM166.9 19.0389L160.796 37.6979H156.158L152.053 25.0633L147.815 37.6979H143.204L137.073 19.0389H141.551L145.763 32.1536L150.161 19.0389H154.159L158.424 32.2602L162.768 19.0389H166.9ZM172.135 23.1439C174.356 23.1439 176.062 23.6769 177.253 24.7435C178.443 25.7916 179.038 27.3819 179.038 29.5145V37.6979H175.147V35.9117C174.365 37.2444 172.908 37.9111 170.776 37.9111C169.674 37.9111 168.714 37.7244 167.897 37.351C167.097 36.9782 166.484 36.4625 166.057 35.8051C165.631 35.1476 165.418 34.4014 165.418 33.5659C165.418 32.2337 165.916 31.185 166.911 30.4209C167.923 29.6568 169.478 29.2748 171.575 29.2748H174.88C174.88 28.3684 174.605 27.6752 174.054 27.1958C173.503 26.698 172.677 26.4491 171.575 26.4491C170.811 26.4491 170.056 26.5735 169.31 26.8224C168.581 27.0535 167.959 27.3733 167.444 27.7818L165.951 24.8766C166.733 24.3257 167.666 23.8993 168.75 23.5974C169.851 23.2949 170.98 23.1439 172.135 23.1439ZM171.815 35.1119C172.526 35.1119 173.157 34.9523 173.708 34.6325C174.259 34.2948 174.649 33.8062 174.88 33.1666V31.7001H172.028C170.323 31.7001 169.469 32.2602 169.469 33.3798C169.469 33.9128 169.674 34.3392 170.082 34.659C170.509 34.9609 171.087 35.1119 171.815 35.1119ZM181.203 17.9199H185.361V37.6979H181.203V17.9199ZM187.621 17.9199H191.779V37.6979H187.621V17.9199ZM208.086 30.5805C208.086 30.6341 208.06 31.0075 208.006 31.7001H197.158C197.353 32.5886 197.815 33.2905 198.543 33.8062C199.272 34.3213 200.178 34.5789 201.262 34.5789C202.009 34.5789 202.666 34.4723 203.235 34.2591C203.821 34.028 204.363 33.6731 204.86 33.1931L207.073 35.5919C205.722 37.1378 203.75 37.9111 201.156 37.9111C199.538 37.9111 198.108 37.6 196.864 36.9782C195.62 36.3381 194.661 35.4588 193.985 34.3392C193.31 33.2196 192.972 31.949 192.972 30.5275C192.972 29.1238 193.301 27.8619 193.959 26.7424C194.634 25.6055 195.549 24.7256 196.704 24.1039C197.877 23.4637 199.183 23.1439 200.622 23.1439C202.027 23.1439 203.297 23.4464 204.434 24.0503C205.571 24.6547 206.46 25.5254 207.1 26.6623C207.757 27.7818 208.086 29.0881 208.086 30.5805ZM200.649 26.2894C199.707 26.2894 198.917 26.5557 198.277 27.0892C197.637 27.6222 197.246 28.3506 197.104 29.2748H204.168C204.025 28.3684 203.635 27.6487 202.995 27.1157C202.355 26.5649 201.573 26.2894 200.649 26.2894ZM218.504 37.0047C218.095 37.3067 217.589 37.5377 216.985 37.6979C216.398 37.8397 215.777 37.9111 215.119 37.9111C213.413 37.9111 212.09 37.4755 211.147 36.6049C210.223 35.7342 209.762 34.4544 209.762 32.7667V26.876H207.549V23.6769H209.762V20.1856H213.92V23.6769H217.492V26.876H213.92V32.7131C213.92 33.3175 214.071 33.7883 214.372 34.126C214.692 34.4458 215.137 34.606 215.705 34.606C216.363 34.606 216.923 34.4279 217.385 34.0724L218.504 37.0047Z" fill="#737A99"/>
<path d="M36.5566 0.75H18.4903C8.29132 0.75 0.0234375 9.01788 0.0234375 19.2168V37.2832C0.0234375 47.4821 8.29132 55.75 18.4903 55.75H36.5566C46.7556 55.75 55.0234 47.4821 55.0234 37.2832V19.2168C55.0234 9.01788 46.7556 0.75 36.5566 0.75Z" fill="#F8FAFC"/>
<path d="M2.125 28.6469C2.125 14.5325 13.5668 3.09082 27.6809 3.09082C41.7953 3.09082 53.2372 14.5325 53.2372 28.6469C53.2372 42.7613 41.7953 54.2032 27.6809 54.2032C13.5668 54.2032 2.125 42.7613 2.125 28.6469Z" fill="#F8FAFC"/>
<path d="M27.6961 13.373C32.8532 17.6803 38.7674 17.4146 40.4569 17.4146C40.0876 41.9095 37.271 37.052 27.6961 43.9205C18.1213 37.052 15.3227 41.9095 14.9531 17.4146C16.6252 17.4146 22.5391 17.6803 27.6961 13.373Z" stroke="#3375BB" stroke-width="6.06304" stroke-miterlimit="10" stroke-linecap="round" stroke-linejoin="round"/>
</svg>
